<mxfile host="app.diagrams.net" modified="2023-10-08T08:11:09.105Z" agent="Mozilla/5.0 (Macintosh; Intel Mac OS X 10_15_7) AppleWebKit/537.36 (KHTML, like Gecko) Chrome/117.0.0.0 Safari/537.36" etag="ZW3G-ABWeAszKoTTnB_k" version="22.0.4" type="github" pages="3">
  <diagram id="a6eFwLFaf84fWAjscbE_" name="V0">
    <mxGraphModel dx="1363" dy="917" grid="1" gridSize="10" guides="1" tooltips="1" connect="1" arrows="1" fold="1" page="1" pageScale="1" pageWidth="827" pageHeight="1169" math="0" shadow="0">
      <root>
        <mxCell id="0" />
        <mxCell id="1" parent="0" />
        <mxCell id="NKYCaUZf26EfjrLhenBL-3" style="edgeStyle=orthogonalEdgeStyle;rounded=0;orthogonalLoop=1;jettySize=auto;html=1;exitX=0;exitY=0.5;exitDx=0;exitDy=0;entryX=1;entryY=0.5;entryDx=0;entryDy=0;fillColor=#d5e8d4;strokeColor=#82b366;strokeWidth=3;" parent="1" source="NKYCaUZf26EfjrLhenBL-1" target="NKYCaUZf26EfjrLhenBL-2" edge="1">
          <mxGeometry relative="1" as="geometry" />
        </mxCell>
        <mxCell id="NKYCaUZf26EfjrLhenBL-90" value="1 VS n" style="edgeLabel;html=1;align=center;verticalAlign=middle;resizable=0;points=[];" parent="NKYCaUZf26EfjrLhenBL-3" vertex="1" connectable="0">
          <mxGeometry x="0.4571" relative="1" as="geometry">
            <mxPoint y="-1" as="offset" />
          </mxGeometry>
        </mxCell>
        <mxCell id="NKYCaUZf26EfjrLhenBL-8" style="edgeStyle=orthogonalEdgeStyle;rounded=0;orthogonalLoop=1;jettySize=auto;html=1;exitX=1;exitY=0.5;exitDx=0;exitDy=0;entryX=0;entryY=0.5;entryDx=0;entryDy=0;fillColor=#d5e8d4;strokeColor=#000000;" parent="1" source="NKYCaUZf26EfjrLhenBL-1" target="NKYCaUZf26EfjrLhenBL-4" edge="1">
          <mxGeometry relative="1" as="geometry" />
        </mxCell>
        <mxCell id="NKYCaUZf26EfjrLhenBL-14" value="HAS_ROLE" style="edgeLabel;html=1;align=center;verticalAlign=middle;resizable=0;points=[];" parent="NKYCaUZf26EfjrLhenBL-8" vertex="1" connectable="0">
          <mxGeometry x="-0.02" y="2" relative="1" as="geometry">
            <mxPoint as="offset" />
          </mxGeometry>
        </mxCell>
        <mxCell id="NKYCaUZf26EfjrLhenBL-9" style="edgeStyle=orthogonalEdgeStyle;rounded=0;orthogonalLoop=1;jettySize=auto;html=1;exitX=1;exitY=0;exitDx=0;exitDy=0;entryX=0;entryY=0.5;entryDx=0;entryDy=0;strokeColor=#000000;" parent="1" source="NKYCaUZf26EfjrLhenBL-1" target="NKYCaUZf26EfjrLhenBL-6" edge="1">
          <mxGeometry relative="1" as="geometry" />
        </mxCell>
        <mxCell id="NKYCaUZf26EfjrLhenBL-12" value="HAS_ROLE&lt;br&gt;1 vs 1" style="edgeLabel;html=1;align=center;verticalAlign=middle;resizable=0;points=[];" parent="NKYCaUZf26EfjrLhenBL-9" vertex="1" connectable="0">
          <mxGeometry x="0.2823" y="1" relative="1" as="geometry">
            <mxPoint as="offset" />
          </mxGeometry>
        </mxCell>
        <mxCell id="NKYCaUZf26EfjrLhenBL-10" style="edgeStyle=orthogonalEdgeStyle;rounded=0;orthogonalLoop=1;jettySize=auto;html=1;exitX=0.5;exitY=0;exitDx=0;exitDy=0;entryX=0;entryY=0.5;entryDx=0;entryDy=0;fillColor=#d5e8d4;strokeColor=#82b366;strokeWidth=3;" parent="1" source="NKYCaUZf26EfjrLhenBL-1" target="NKYCaUZf26EfjrLhenBL-7" edge="1">
          <mxGeometry relative="1" as="geometry" />
        </mxCell>
        <mxCell id="NKYCaUZf26EfjrLhenBL-13" value="HAS_ROLE&lt;br&gt;1 vs n" style="edgeLabel;html=1;align=center;verticalAlign=middle;resizable=0;points=[];" parent="NKYCaUZf26EfjrLhenBL-10" vertex="1" connectable="0">
          <mxGeometry x="-0.2882" y="1" relative="1" as="geometry">
            <mxPoint as="offset" />
          </mxGeometry>
        </mxCell>
        <mxCell id="NKYCaUZf26EfjrLhenBL-11" style="edgeStyle=orthogonalEdgeStyle;rounded=0;orthogonalLoop=1;jettySize=auto;html=1;exitX=0.5;exitY=1;exitDx=0;exitDy=0;entryX=0;entryY=0.5;entryDx=0;entryDy=0;fillColor=#d5e8d4;strokeColor=#000000;" parent="1" source="NKYCaUZf26EfjrLhenBL-1" target="NKYCaUZf26EfjrLhenBL-5" edge="1">
          <mxGeometry relative="1" as="geometry" />
        </mxCell>
        <mxCell id="NKYCaUZf26EfjrLhenBL-15" value="HAS_ROLE" style="edgeLabel;html=1;align=center;verticalAlign=middle;resizable=0;points=[];" parent="NKYCaUZf26EfjrLhenBL-11" vertex="1" connectable="0">
          <mxGeometry x="0.4818" y="1" relative="1" as="geometry">
            <mxPoint as="offset" />
          </mxGeometry>
        </mxCell>
        <mxCell id="NKYCaUZf26EfjrLhenBL-1" value="Person&lt;br&gt;姓名&lt;br&gt;性别&lt;br&gt;生日" style="ellipse;whiteSpace=wrap;html=1;aspect=fixed;" parent="1" vertex="1">
          <mxGeometry x="370" y="520" width="80" height="80" as="geometry" />
        </mxCell>
        <mxCell id="NKYCaUZf26EfjrLhenBL-2" value="PERSON_ID&lt;br&gt;证件号+证件类型" style="ellipse;whiteSpace=wrap;html=1;aspect=fixed;" parent="1" vertex="1">
          <mxGeometry x="150" y="520" width="80" height="80" as="geometry" />
        </mxCell>
        <mxCell id="ByGQQFDxRcZomttB7kPi-13" style="edgeStyle=orthogonalEdgeStyle;rounded=0;orthogonalLoop=1;jettySize=auto;html=1;exitX=0.5;exitY=1;exitDx=0;exitDy=0;entryX=0.5;entryY=0;entryDx=0;entryDy=0;" parent="1" source="NKYCaUZf26EfjrLhenBL-4" target="ByGQQFDxRcZomttB7kPi-6" edge="1">
          <mxGeometry relative="1" as="geometry">
            <Array as="points">
              <mxPoint x="590" y="940" />
              <mxPoint x="650" y="940" />
            </Array>
          </mxGeometry>
        </mxCell>
        <mxCell id="ByGQQFDxRcZomttB7kPi-14" style="edgeStyle=orthogonalEdgeStyle;rounded=0;orthogonalLoop=1;jettySize=auto;html=1;exitX=0.5;exitY=1;exitDx=0;exitDy=0;" parent="1" source="NKYCaUZf26EfjrLhenBL-4" target="ByGQQFDxRcZomttB7kPi-7" edge="1">
          <mxGeometry relative="1" as="geometry">
            <Array as="points">
              <mxPoint x="590" y="940" />
              <mxPoint x="530" y="940" />
            </Array>
          </mxGeometry>
        </mxCell>
        <mxCell id="ByGQQFDxRcZomttB7kPi-15" style="edgeStyle=orthogonalEdgeStyle;rounded=0;orthogonalLoop=1;jettySize=auto;html=1;exitX=0.5;exitY=1;exitDx=0;exitDy=0;entryX=0.5;entryY=0;entryDx=0;entryDy=0;" parent="1" source="NKYCaUZf26EfjrLhenBL-4" target="ByGQQFDxRcZomttB7kPi-8" edge="1">
          <mxGeometry relative="1" as="geometry">
            <Array as="points">
              <mxPoint x="590" y="940" />
              <mxPoint x="410" y="940" />
            </Array>
          </mxGeometry>
        </mxCell>
        <mxCell id="NKYCaUZf26EfjrLhenBL-4" value="Insured&lt;br&gt;&lt;font color=&quot;#0000ff&quot;&gt;cust_id&lt;/font&gt;" style="ellipse;whiteSpace=wrap;html=1;aspect=fixed;" parent="1" vertex="1">
          <mxGeometry x="550" y="520" width="80" height="80" as="geometry" />
        </mxCell>
        <mxCell id="ByGQQFDxRcZomttB7kPi-10" style="edgeStyle=orthogonalEdgeStyle;rounded=0;orthogonalLoop=1;jettySize=auto;html=1;exitX=0.5;exitY=1;exitDx=0;exitDy=0;entryX=0.5;entryY=0;entryDx=0;entryDy=0;" parent="1" source="NKYCaUZf26EfjrLhenBL-5" target="ByGQQFDxRcZomttB7kPi-6" edge="1">
          <mxGeometry relative="1" as="geometry">
            <Array as="points">
              <mxPoint x="590" y="940" />
              <mxPoint x="650" y="940" />
            </Array>
          </mxGeometry>
        </mxCell>
        <mxCell id="ByGQQFDxRcZomttB7kPi-11" style="edgeStyle=orthogonalEdgeStyle;rounded=0;orthogonalLoop=1;jettySize=auto;html=1;exitX=0.5;exitY=1;exitDx=0;exitDy=0;" parent="1" source="NKYCaUZf26EfjrLhenBL-5" target="ByGQQFDxRcZomttB7kPi-7" edge="1">
          <mxGeometry relative="1" as="geometry">
            <Array as="points">
              <mxPoint x="590" y="940" />
              <mxPoint x="530" y="940" />
            </Array>
          </mxGeometry>
        </mxCell>
        <mxCell id="ByGQQFDxRcZomttB7kPi-12" style="edgeStyle=orthogonalEdgeStyle;rounded=0;orthogonalLoop=1;jettySize=auto;html=1;exitX=0.5;exitY=1;exitDx=0;exitDy=0;entryX=0.5;entryY=0;entryDx=0;entryDy=0;" parent="1" source="NKYCaUZf26EfjrLhenBL-5" target="ByGQQFDxRcZomttB7kPi-8" edge="1">
          <mxGeometry relative="1" as="geometry">
            <Array as="points">
              <mxPoint x="590" y="940" />
              <mxPoint x="410" y="940" />
            </Array>
          </mxGeometry>
        </mxCell>
        <mxCell id="NKYCaUZf26EfjrLhenBL-5" value="Applicant&lt;br&gt;&lt;font color=&quot;#0000ff&quot;&gt;cust_id&lt;/font&gt;" style="ellipse;whiteSpace=wrap;html=1;aspect=fixed;" parent="1" vertex="1">
          <mxGeometry x="550" y="640" width="80" height="80" as="geometry" />
        </mxCell>
        <mxCell id="NKYCaUZf26EfjrLhenBL-88" style="edgeStyle=orthogonalEdgeStyle;rounded=0;orthogonalLoop=1;jettySize=auto;html=1;exitX=1;exitY=0.5;exitDx=0;exitDy=0;entryX=0;entryY=0;entryDx=0;entryDy=0;endArrow=none;endFill=0;startArrow=classic;startFill=1;fillColor=#d5e8d4;strokeColor=#82b366;strokeWidth=3;" parent="1" source="NKYCaUZf26EfjrLhenBL-6" target="NKYCaUZf26EfjrLhenBL-19" edge="1">
          <mxGeometry relative="1" as="geometry">
            <Array as="points">
              <mxPoint x="710" y="440" />
              <mxPoint x="710" y="532" />
            </Array>
          </mxGeometry>
        </mxCell>
        <mxCell id="ByGQQFDxRcZomttB7kPi-16" style="edgeStyle=orthogonalEdgeStyle;rounded=0;orthogonalLoop=1;jettySize=auto;html=1;exitX=0.5;exitY=1;exitDx=0;exitDy=0;entryX=0.5;entryY=0;entryDx=0;entryDy=0;fillColor=#d5e8d4;strokeColor=#82b366;strokeWidth=3;" parent="1" source="NKYCaUZf26EfjrLhenBL-6" target="ByGQQFDxRcZomttB7kPi-6" edge="1">
          <mxGeometry relative="1" as="geometry">
            <Array as="points">
              <mxPoint x="590" y="940" />
              <mxPoint x="650" y="940" />
            </Array>
          </mxGeometry>
        </mxCell>
        <mxCell id="ByGQQFDxRcZomttB7kPi-17" style="edgeStyle=orthogonalEdgeStyle;rounded=0;orthogonalLoop=1;jettySize=auto;html=1;exitX=0.5;exitY=1;exitDx=0;exitDy=0;entryX=0.5;entryY=0;entryDx=0;entryDy=0;" parent="1" source="NKYCaUZf26EfjrLhenBL-6" target="ByGQQFDxRcZomttB7kPi-7" edge="1">
          <mxGeometry relative="1" as="geometry">
            <Array as="points">
              <mxPoint x="590" y="940" />
              <mxPoint x="530" y="940" />
            </Array>
          </mxGeometry>
        </mxCell>
        <mxCell id="ByGQQFDxRcZomttB7kPi-18" style="edgeStyle=orthogonalEdgeStyle;rounded=0;orthogonalLoop=1;jettySize=auto;html=1;exitX=0.5;exitY=1;exitDx=0;exitDy=0;entryX=0.5;entryY=0;entryDx=0;entryDy=0;fillColor=#d5e8d4;strokeColor=#82b366;strokeWidth=3;" parent="1" source="NKYCaUZf26EfjrLhenBL-6" target="ByGQQFDxRcZomttB7kPi-8" edge="1">
          <mxGeometry relative="1" as="geometry">
            <Array as="points">
              <mxPoint x="590" y="940" />
              <mxPoint x="410" y="940" />
            </Array>
          </mxGeometry>
        </mxCell>
        <mxCell id="NKYCaUZf26EfjrLhenBL-6" value="Beneficiary&lt;br&gt;&lt;font color=&quot;#0000ff&quot;&gt;cust_id&lt;/font&gt;" style="ellipse;whiteSpace=wrap;html=1;aspect=fixed;" parent="1" vertex="1">
          <mxGeometry x="550" y="400" width="80" height="80" as="geometry" />
        </mxCell>
        <mxCell id="NKYCaUZf26EfjrLhenBL-68" style="edgeStyle=orthogonalEdgeStyle;rounded=0;orthogonalLoop=1;jettySize=auto;html=1;exitX=0.5;exitY=0;exitDx=0;exitDy=0;entryX=0;entryY=0.5;entryDx=0;entryDy=0;fillColor=#d5e8d4;strokeColor=#82b366;strokeWidth=3;" parent="1" source="NKYCaUZf26EfjrLhenBL-7" target="NKYCaUZf26EfjrLhenBL-63" edge="1">
          <mxGeometry relative="1" as="geometry">
            <Array as="points">
              <mxPoint x="590" y="208" />
              <mxPoint x="140" y="208" />
              <mxPoint x="140" y="95" />
            </Array>
          </mxGeometry>
        </mxCell>
        <mxCell id="NKYCaUZf26EfjrLhenBL-69" value="WORK_IN&lt;br&gt;1 VS n" style="edgeLabel;html=1;align=center;verticalAlign=middle;resizable=0;points=[];" parent="NKYCaUZf26EfjrLhenBL-68" vertex="1" connectable="0">
          <mxGeometry x="0.4744" relative="1" as="geometry">
            <mxPoint as="offset" />
          </mxGeometry>
        </mxCell>
        <mxCell id="NKYCaUZf26EfjrLhenBL-89" value="Q: 投保人每次入职对应的组/分公司" style="edgeLabel;html=1;align=center;verticalAlign=middle;resizable=0;points=[];fontColor=#FF0000;" parent="NKYCaUZf26EfjrLhenBL-68" vertex="1" connectable="0">
          <mxGeometry x="-0.0565" y="-1" relative="1" as="geometry">
            <mxPoint as="offset" />
          </mxGeometry>
        </mxCell>
        <mxCell id="NKYCaUZf26EfjrLhenBL-97" style="edgeStyle=orthogonalEdgeStyle;rounded=0;orthogonalLoop=1;jettySize=auto;html=1;exitX=1;exitY=0.5;exitDx=0;exitDy=0;entryX=0;entryY=1;entryDx=0;entryDy=0;fillColor=#d5e8d4;strokeColor=#82b366;strokeWidth=3;" parent="1" source="NKYCaUZf26EfjrLhenBL-7" target="NKYCaUZf26EfjrLhenBL-16" edge="1">
          <mxGeometry relative="1" as="geometry">
            <Array as="points">
              <mxPoint x="720" y="320" />
              <mxPoint x="720" y="468" />
            </Array>
          </mxGeometry>
        </mxCell>
        <mxCell id="NKYCaUZf26EfjrLhenBL-98" value="SELL / SERVE" style="edgeLabel;html=1;align=center;verticalAlign=middle;resizable=0;points=[];" parent="NKYCaUZf26EfjrLhenBL-97" vertex="1" connectable="0">
          <mxGeometry x="-0.3768" relative="1" as="geometry">
            <mxPoint as="offset" />
          </mxGeometry>
        </mxCell>
        <mxCell id="ByGQQFDxRcZomttB7kPi-19" style="edgeStyle=orthogonalEdgeStyle;rounded=0;orthogonalLoop=1;jettySize=auto;html=1;exitX=0.5;exitY=1;exitDx=0;exitDy=0;entryX=0.5;entryY=0;entryDx=0;entryDy=0;fillColor=#d5e8d4;strokeColor=#82b366;strokeWidth=3;" parent="1" source="NKYCaUZf26EfjrLhenBL-7" target="ByGQQFDxRcZomttB7kPi-7" edge="1">
          <mxGeometry relative="1" as="geometry">
            <Array as="points">
              <mxPoint x="480" y="360" />
              <mxPoint x="480" y="850" />
              <mxPoint x="530" y="850" />
            </Array>
          </mxGeometry>
        </mxCell>
        <mxCell id="ByGQQFDxRcZomttB7kPi-20" style="edgeStyle=orthogonalEdgeStyle;rounded=0;orthogonalLoop=1;jettySize=auto;html=1;exitX=0.5;exitY=1;exitDx=0;exitDy=0;entryX=0.5;entryY=0;entryDx=0;entryDy=0;fillColor=#d5e8d4;strokeColor=#82b366;strokeWidth=3;" parent="1" source="NKYCaUZf26EfjrLhenBL-7" target="ByGQQFDxRcZomttB7kPi-8" edge="1">
          <mxGeometry relative="1" as="geometry">
            <Array as="points">
              <mxPoint x="480" y="360" />
              <mxPoint x="480" y="850" />
              <mxPoint x="410" y="850" />
            </Array>
          </mxGeometry>
        </mxCell>
        <mxCell id="ByGQQFDxRcZomttB7kPi-21" style="edgeStyle=orthogonalEdgeStyle;rounded=0;orthogonalLoop=1;jettySize=auto;html=1;exitX=0.5;exitY=1;exitDx=0;exitDy=0;entryX=0.5;entryY=0;entryDx=0;entryDy=0;fillColor=#fff2cc;strokeColor=#d6b656;strokeWidth=3;dashed=1;dashPattern=1 1;" parent="1" source="NKYCaUZf26EfjrLhenBL-7" target="ByGQQFDxRcZomttB7kPi-6" edge="1">
          <mxGeometry relative="1" as="geometry">
            <Array as="points">
              <mxPoint x="480" y="360" />
              <mxPoint x="480" y="850" />
              <mxPoint x="650" y="850" />
            </Array>
          </mxGeometry>
        </mxCell>
        <mxCell id="NKYCaUZf26EfjrLhenBL-7" value="Agent&lt;br&gt;&lt;font color=&quot;#0000ff&quot;&gt;agent_id&lt;/font&gt;" style="ellipse;whiteSpace=wrap;html=1;aspect=fixed;" parent="1" vertex="1">
          <mxGeometry x="550" y="280" width="80" height="80" as="geometry" />
        </mxCell>
        <mxCell id="NKYCaUZf26EfjrLhenBL-20" style="edgeStyle=orthogonalEdgeStyle;rounded=0;orthogonalLoop=1;jettySize=auto;html=1;exitX=0.5;exitY=1;exitDx=0;exitDy=0;entryX=0.5;entryY=0;entryDx=0;entryDy=0;" parent="1" source="NKYCaUZf26EfjrLhenBL-16" target="NKYCaUZf26EfjrLhenBL-19" edge="1">
          <mxGeometry relative="1" as="geometry" />
        </mxCell>
        <mxCell id="NKYCaUZf26EfjrLhenBL-16" value="Policy&lt;br&gt;&lt;font color=&quot;#0000ff&quot;&gt;policy_id&lt;/font&gt;" style="ellipse;whiteSpace=wrap;html=1;aspect=fixed;" parent="1" vertex="1">
          <mxGeometry x="900" y="400" width="80" height="80" as="geometry" />
        </mxCell>
        <mxCell id="NKYCaUZf26EfjrLhenBL-22" style="edgeStyle=orthogonalEdgeStyle;rounded=0;orthogonalLoop=1;jettySize=auto;html=1;exitX=0.5;exitY=1;exitDx=0;exitDy=0;entryX=0.5;entryY=0;entryDx=0;entryDy=0;" parent="1" source="NKYCaUZf26EfjrLhenBL-17" target="NKYCaUZf26EfjrLhenBL-18" edge="1">
          <mxGeometry relative="1" as="geometry" />
        </mxCell>
        <mxCell id="NKYCaUZf26EfjrLhenBL-17" value="Product&lt;br&gt;&lt;font color=&quot;#0000ff&quot;&gt;product_id&lt;/font&gt;" style="ellipse;whiteSpace=wrap;html=1;aspect=fixed;fillColor=#e1d5e7;strokeColor=#9673a6;" parent="1" vertex="1">
          <mxGeometry x="1080" y="520" width="80" height="80" as="geometry" />
        </mxCell>
        <mxCell id="NKYCaUZf26EfjrLhenBL-18" value="Liability&lt;br&gt;&lt;font color=&quot;#0000ff&quot;&gt;liab_id&lt;/font&gt;" style="ellipse;whiteSpace=wrap;html=1;aspect=fixed;fillColor=#e1d5e7;strokeColor=#9673a6;" parent="1" vertex="1">
          <mxGeometry x="1080" y="640" width="80" height="80" as="geometry" />
        </mxCell>
        <mxCell id="NKYCaUZf26EfjrLhenBL-21" style="edgeStyle=orthogonalEdgeStyle;rounded=0;orthogonalLoop=1;jettySize=auto;html=1;exitX=1;exitY=0.5;exitDx=0;exitDy=0;entryX=0;entryY=0.5;entryDx=0;entryDy=0;" parent="1" source="NKYCaUZf26EfjrLhenBL-19" target="NKYCaUZf26EfjrLhenBL-17" edge="1">
          <mxGeometry relative="1" as="geometry" />
        </mxCell>
        <mxCell id="NKYCaUZf26EfjrLhenBL-23" style="edgeStyle=orthogonalEdgeStyle;rounded=0;orthogonalLoop=1;jettySize=auto;html=1;exitX=0;exitY=0.5;exitDx=0;exitDy=0;entryX=1;entryY=0.5;entryDx=0;entryDy=0;fillColor=#d5e8d4;strokeColor=#82b366;strokeWidth=3;" parent="1" source="NKYCaUZf26EfjrLhenBL-19" target="NKYCaUZf26EfjrLhenBL-4" edge="1">
          <mxGeometry relative="1" as="geometry" />
        </mxCell>
        <mxCell id="NKYCaUZf26EfjrLhenBL-24" value="MAIN_INSURED" style="edgeLabel;html=1;align=center;verticalAlign=middle;resizable=0;points=[];" parent="NKYCaUZf26EfjrLhenBL-23" vertex="1" connectable="0">
          <mxGeometry x="-0.0148" y="1" relative="1" as="geometry">
            <mxPoint as="offset" />
          </mxGeometry>
        </mxCell>
        <mxCell id="NKYCaUZf26EfjrLhenBL-25" style="edgeStyle=orthogonalEdgeStyle;rounded=0;orthogonalLoop=1;jettySize=auto;html=1;exitX=0;exitY=1;exitDx=0;exitDy=0;entryX=1;entryY=1;entryDx=0;entryDy=0;strokeWidth=3;fillColor=#d5e8d4;strokeColor=#82b366;" parent="1" source="NKYCaUZf26EfjrLhenBL-19" target="NKYCaUZf26EfjrLhenBL-4" edge="1">
          <mxGeometry relative="1" as="geometry" />
        </mxCell>
        <mxCell id="NKYCaUZf26EfjrLhenBL-26" value="SECOND_INSURED" style="edgeLabel;html=1;align=center;verticalAlign=middle;resizable=0;points=[];" parent="NKYCaUZf26EfjrLhenBL-25" vertex="1" connectable="0">
          <mxGeometry x="0.0341" y="1" relative="1" as="geometry">
            <mxPoint as="offset" />
          </mxGeometry>
        </mxCell>
        <mxCell id="NKYCaUZf26EfjrLhenBL-27" style="edgeStyle=orthogonalEdgeStyle;rounded=0;orthogonalLoop=1;jettySize=auto;html=1;exitX=0.5;exitY=1;exitDx=0;exitDy=0;entryX=1;entryY=0.5;entryDx=0;entryDy=0;fillColor=#d5e8d4;strokeColor=#82b366;strokeWidth=3;" parent="1" source="NKYCaUZf26EfjrLhenBL-19" target="NKYCaUZf26EfjrLhenBL-5" edge="1">
          <mxGeometry relative="1" as="geometry" />
        </mxCell>
        <mxCell id="NKYCaUZf26EfjrLhenBL-28" value="APPLICANT" style="edgeLabel;html=1;align=center;verticalAlign=middle;resizable=0;points=[];" parent="NKYCaUZf26EfjrLhenBL-27" vertex="1" connectable="0">
          <mxGeometry x="0.2667" relative="1" as="geometry">
            <mxPoint as="offset" />
          </mxGeometry>
        </mxCell>
        <mxCell id="NKYCaUZf26EfjrLhenBL-58" style="edgeStyle=orthogonalEdgeStyle;rounded=0;orthogonalLoop=1;jettySize=auto;html=1;exitX=1;exitY=1;exitDx=0;exitDy=0;entryX=0;entryY=0.5;entryDx=0;entryDy=0;dashed=1;" parent="1" source="NKYCaUZf26EfjrLhenBL-19" target="NKYCaUZf26EfjrLhenBL-18" edge="1">
          <mxGeometry relative="1" as="geometry">
            <Array as="points">
              <mxPoint x="968" y="680" />
            </Array>
          </mxGeometry>
        </mxCell>
        <mxCell id="NKYCaUZf26EfjrLhenBL-19" value="Config&lt;br&gt;&lt;font color=&quot;#00994d&quot;&gt;保单配置&lt;/font&gt;" style="ellipse;whiteSpace=wrap;html=1;aspect=fixed;" parent="1" vertex="1">
          <mxGeometry x="900" y="520" width="80" height="80" as="geometry" />
        </mxCell>
        <mxCell id="NKYCaUZf26EfjrLhenBL-30" style="edgeStyle=orthogonalEdgeStyle;rounded=0;orthogonalLoop=1;jettySize=auto;html=1;exitX=0;exitY=0.5;exitDx=0;exitDy=0;entryX=1;entryY=0;entryDx=0;entryDy=0;" parent="1" source="NKYCaUZf26EfjrLhenBL-29" target="NKYCaUZf26EfjrLhenBL-4" edge="1">
          <mxGeometry relative="1" as="geometry">
            <Array as="points">
              <mxPoint x="1290" y="440" />
              <mxPoint x="1290" y="290" />
              <mxPoint x="690" y="290" />
              <mxPoint x="690" y="532" />
            </Array>
          </mxGeometry>
        </mxCell>
        <mxCell id="NKYCaUZf26EfjrLhenBL-99" value="COVER_INSURED" style="edgeLabel;html=1;align=center;verticalAlign=middle;resizable=0;points=[];" parent="NKYCaUZf26EfjrLhenBL-30" vertex="1" connectable="0">
          <mxGeometry x="0.073" y="-1" relative="1" as="geometry">
            <mxPoint as="offset" />
          </mxGeometry>
        </mxCell>
        <mxCell id="NKYCaUZf26EfjrLhenBL-32" style="edgeStyle=orthogonalEdgeStyle;rounded=0;orthogonalLoop=1;jettySize=auto;html=1;exitX=1;exitY=0.5;exitDx=0;exitDy=0;entryX=0;entryY=0.5;entryDx=0;entryDy=0;startArrow=classic;startFill=1;" parent="1" source="NKYCaUZf26EfjrLhenBL-29" target="NKYCaUZf26EfjrLhenBL-31" edge="1">
          <mxGeometry relative="1" as="geometry" />
        </mxCell>
        <mxCell id="NKYCaUZf26EfjrLhenBL-92" value="n VS n" style="edgeLabel;html=1;align=center;verticalAlign=middle;resizable=0;points=[];" parent="NKYCaUZf26EfjrLhenBL-32" vertex="1" connectable="0">
          <mxGeometry x="-0.0286" y="1" relative="1" as="geometry">
            <mxPoint as="offset" />
          </mxGeometry>
        </mxCell>
        <mxCell id="NKYCaUZf26EfjrLhenBL-61" style="edgeStyle=orthogonalEdgeStyle;rounded=0;orthogonalLoop=1;jettySize=auto;html=1;exitX=0.5;exitY=1;exitDx=0;exitDy=0;" parent="1" source="NKYCaUZf26EfjrLhenBL-29" target="NKYCaUZf26EfjrLhenBL-59" edge="1">
          <mxGeometry relative="1" as="geometry" />
        </mxCell>
        <mxCell id="ByGQQFDxRcZomttB7kPi-5" value="1 VS n" style="edgeLabel;html=1;align=center;verticalAlign=middle;resizable=0;points=[];" parent="NKYCaUZf26EfjrLhenBL-61" vertex="1" connectable="0">
          <mxGeometry x="0.025" relative="1" as="geometry">
            <mxPoint as="offset" />
          </mxGeometry>
        </mxCell>
        <mxCell id="NKYCaUZf26EfjrLhenBL-94" style="edgeStyle=orthogonalEdgeStyle;rounded=0;orthogonalLoop=1;jettySize=auto;html=1;exitX=0;exitY=0;exitDx=0;exitDy=0;entryX=1;entryY=0;entryDx=0;entryDy=0;" parent="1" source="NKYCaUZf26EfjrLhenBL-29" target="NKYCaUZf26EfjrLhenBL-6" edge="1">
          <mxGeometry relative="1" as="geometry">
            <Array as="points">
              <mxPoint x="1320" y="412" />
              <mxPoint x="1320" y="270" />
              <mxPoint x="670" y="270" />
              <mxPoint x="670" y="412" />
            </Array>
          </mxGeometry>
        </mxCell>
        <mxCell id="ByGQQFDxRcZomttB7kPi-1" style="edgeStyle=orthogonalEdgeStyle;rounded=0;orthogonalLoop=1;jettySize=auto;html=1;exitX=0;exitY=0;exitDx=0;exitDy=0;entryX=1;entryY=0;entryDx=0;entryDy=0;" parent="1" source="NKYCaUZf26EfjrLhenBL-29" target="NKYCaUZf26EfjrLhenBL-7" edge="1">
          <mxGeometry relative="1" as="geometry">
            <Array as="points">
              <mxPoint x="1562" y="240" />
              <mxPoint x="618" y="240" />
            </Array>
          </mxGeometry>
        </mxCell>
        <mxCell id="ByGQQFDxRcZomttB7kPi-2" value="&lt;font color=&quot;#ff0000&quot;&gt;一个赔案的服务代理人是否是固定的一个&lt;/font&gt;" style="edgeLabel;html=1;align=center;verticalAlign=middle;resizable=0;points=[];" parent="ByGQQFDxRcZomttB7kPi-1" vertex="1" connectable="0">
          <mxGeometry x="-0.2537" y="-1" relative="1" as="geometry">
            <mxPoint as="offset" />
          </mxGeometry>
        </mxCell>
        <mxCell id="ByGQQFDxRcZomttB7kPi-23" style="edgeStyle=orthogonalEdgeStyle;rounded=0;orthogonalLoop=1;jettySize=auto;html=1;exitX=0;exitY=1;exitDx=0;exitDy=0;entryX=1;entryY=1;entryDx=0;entryDy=0;" parent="1" source="NKYCaUZf26EfjrLhenBL-29" target="NKYCaUZf26EfjrLhenBL-16" edge="1">
          <mxGeometry relative="1" as="geometry" />
        </mxCell>
        <mxCell id="ByGQQFDxRcZomttB7kPi-24" value="&lt;font color=&quot;#ff0000&quot;&gt;1 vs 1&lt;br&gt;一个赔案只有一个保单对应？&lt;/font&gt;" style="edgeLabel;html=1;align=center;verticalAlign=middle;resizable=0;points=[];" parent="ByGQQFDxRcZomttB7kPi-23" vertex="1" connectable="0">
          <mxGeometry x="-0.0944" y="1" relative="1" as="geometry">
            <mxPoint as="offset" />
          </mxGeometry>
        </mxCell>
        <mxCell id="NKYCaUZf26EfjrLhenBL-29" value="Claim&lt;br&gt;&lt;font color=&quot;#0000ff&quot;&gt;claim_id&lt;/font&gt;" style="ellipse;whiteSpace=wrap;html=1;aspect=fixed;" parent="1" vertex="1">
          <mxGeometry x="1550" y="400" width="80" height="80" as="geometry" />
        </mxCell>
        <mxCell id="NKYCaUZf26EfjrLhenBL-42" style="edgeStyle=orthogonalEdgeStyle;rounded=0;orthogonalLoop=1;jettySize=auto;html=1;exitX=0.5;exitY=1;exitDx=0;exitDy=0;entryX=0.5;entryY=0;entryDx=0;entryDy=0;" parent="1" source="NKYCaUZf26EfjrLhenBL-31" target="NKYCaUZf26EfjrLhenBL-41" edge="1">
          <mxGeometry relative="1" as="geometry" />
        </mxCell>
        <mxCell id="ByGQQFDxRcZomttB7kPi-3" value="1 VS n" style="edgeLabel;html=1;align=center;verticalAlign=middle;resizable=0;points=[];" parent="NKYCaUZf26EfjrLhenBL-42" vertex="1" connectable="0">
          <mxGeometry x="-0.1778" relative="1" as="geometry">
            <mxPoint as="offset" />
          </mxGeometry>
        </mxCell>
        <mxCell id="NKYCaUZf26EfjrLhenBL-44" style="edgeStyle=orthogonalEdgeStyle;rounded=0;orthogonalLoop=1;jettySize=auto;html=1;exitX=1;exitY=0.5;exitDx=0;exitDy=0;entryX=0;entryY=0.5;entryDx=0;entryDy=0;" parent="1" source="NKYCaUZf26EfjrLhenBL-31" target="NKYCaUZf26EfjrLhenBL-43" edge="1">
          <mxGeometry relative="1" as="geometry" />
        </mxCell>
        <mxCell id="NKYCaUZf26EfjrLhenBL-48" style="edgeStyle=orthogonalEdgeStyle;rounded=0;orthogonalLoop=1;jettySize=auto;html=1;exitX=0.5;exitY=0;exitDx=0;exitDy=0;entryX=0.5;entryY=1;entryDx=0;entryDy=0;" parent="1" source="NKYCaUZf26EfjrLhenBL-31" target="NKYCaUZf26EfjrLhenBL-49" edge="1">
          <mxGeometry relative="1" as="geometry">
            <mxPoint x="1740" y="310" as="targetPoint" />
          </mxGeometry>
        </mxCell>
        <mxCell id="ByGQQFDxRcZomttB7kPi-4" value="1 VS n&lt;br&gt;n VS n" style="edgeLabel;html=1;align=center;verticalAlign=middle;resizable=0;points=[];" parent="NKYCaUZf26EfjrLhenBL-48" vertex="1" connectable="0">
          <mxGeometry x="-0.0455" y="-1" relative="1" as="geometry">
            <mxPoint as="offset" />
          </mxGeometry>
        </mxCell>
        <mxCell id="NKYCaUZf26EfjrLhenBL-31" value="Admission&lt;br&gt;&lt;font color=&quot;#0000ff&quot;&gt;admin_id&lt;/font&gt;" style="ellipse;whiteSpace=wrap;html=1;aspect=fixed;" parent="1" vertex="1">
          <mxGeometry x="1700" y="400" width="80" height="80" as="geometry" />
        </mxCell>
        <mxCell id="NKYCaUZf26EfjrLhenBL-37" style="edgeStyle=orthogonalEdgeStyle;rounded=0;orthogonalLoop=1;jettySize=auto;html=1;exitX=1;exitY=0.5;exitDx=0;exitDy=0;" parent="1" source="NKYCaUZf26EfjrLhenBL-33" target="NKYCaUZf26EfjrLhenBL-29" edge="1">
          <mxGeometry relative="1" as="geometry" />
        </mxCell>
        <mxCell id="NKYCaUZf26EfjrLhenBL-38" style="edgeStyle=orthogonalEdgeStyle;rounded=0;orthogonalLoop=1;jettySize=auto;html=1;exitX=0.5;exitY=1;exitDx=0;exitDy=0;entryX=0.5;entryY=0;entryDx=0;entryDy=0;" parent="1" source="NKYCaUZf26EfjrLhenBL-33" target="NKYCaUZf26EfjrLhenBL-17" edge="1">
          <mxGeometry relative="1" as="geometry" />
        </mxCell>
        <mxCell id="NKYCaUZf26EfjrLhenBL-39" style="edgeStyle=orthogonalEdgeStyle;rounded=0;orthogonalLoop=1;jettySize=auto;html=1;exitX=0;exitY=0.5;exitDx=0;exitDy=0;" parent="1" source="NKYCaUZf26EfjrLhenBL-33" target="NKYCaUZf26EfjrLhenBL-16" edge="1">
          <mxGeometry relative="1" as="geometry" />
        </mxCell>
        <mxCell id="NKYCaUZf26EfjrLhenBL-40" style="edgeStyle=orthogonalEdgeStyle;rounded=0;orthogonalLoop=1;jettySize=auto;html=1;exitX=1;exitY=1;exitDx=0;exitDy=0;entryX=1;entryY=0.5;entryDx=0;entryDy=0;" parent="1" source="NKYCaUZf26EfjrLhenBL-33" target="NKYCaUZf26EfjrLhenBL-18" edge="1">
          <mxGeometry relative="1" as="geometry">
            <Array as="points">
              <mxPoint x="1180" y="188" />
              <mxPoint x="1180" y="680" />
            </Array>
          </mxGeometry>
        </mxCell>
        <mxCell id="NKYCaUZf26EfjrLhenBL-100" style="edgeStyle=orthogonalEdgeStyle;rounded=0;orthogonalLoop=1;jettySize=auto;html=1;exitX=0;exitY=1;exitDx=0;exitDy=0;entryX=1;entryY=0;entryDx=0;entryDy=0;" parent="1" source="NKYCaUZf26EfjrLhenBL-33" target="NKYCaUZf26EfjrLhenBL-19" edge="1">
          <mxGeometry relative="1" as="geometry">
            <Array as="points">
              <mxPoint x="1050" y="188" />
              <mxPoint x="1050" y="532" />
            </Array>
          </mxGeometry>
        </mxCell>
        <mxCell id="NKYCaUZf26EfjrLhenBL-33" value="LiabilityPay" style="ellipse;whiteSpace=wrap;html=1;aspect=fixed;" parent="1" vertex="1">
          <mxGeometry x="1080" y="120" width="80" height="80" as="geometry" />
        </mxCell>
        <mxCell id="NKYCaUZf26EfjrLhenBL-41" value="Diagnosis" style="ellipse;whiteSpace=wrap;html=1;aspect=fixed;fillColor=#e1d5e7;strokeColor=#9673a6;" parent="1" vertex="1">
          <mxGeometry x="1700" y="570" width="80" height="80" as="geometry" />
        </mxCell>
        <mxCell id="NKYCaUZf26EfjrLhenBL-43" value="Surgery" style="ellipse;whiteSpace=wrap;html=1;aspect=fixed;fillColor=#e1d5e7;strokeColor=#9673a6;" parent="1" vertex="1">
          <mxGeometry x="1870" y="400" width="80" height="80" as="geometry" />
        </mxCell>
        <mxCell id="NKYCaUZf26EfjrLhenBL-46" value="Hospital" style="ellipse;whiteSpace=wrap;html=1;aspect=fixed;fillColor=#e1d5e7;strokeColor=#9673a6;" parent="1" vertex="1">
          <mxGeometry x="1870" y="570" width="80" height="80" as="geometry" />
        </mxCell>
        <mxCell id="NKYCaUZf26EfjrLhenBL-47" value="" style="endArrow=classic;html=1;rounded=0;entryX=0;entryY=0;entryDx=0;entryDy=0;exitX=1;exitY=1;exitDx=0;exitDy=0;" parent="1" source="NKYCaUZf26EfjrLhenBL-31" target="NKYCaUZf26EfjrLhenBL-46" edge="1">
          <mxGeometry width="50" height="50" relative="1" as="geometry">
            <mxPoint x="1320" y="580" as="sourcePoint" />
            <mxPoint x="1370" y="530" as="targetPoint" />
          </mxGeometry>
        </mxCell>
        <mxCell id="NKYCaUZf26EfjrLhenBL-53" style="edgeStyle=orthogonalEdgeStyle;rounded=0;orthogonalLoop=1;jettySize=auto;html=1;exitX=1;exitY=0.5;exitDx=0;exitDy=0;" parent="1" source="NKYCaUZf26EfjrLhenBL-49" target="NKYCaUZf26EfjrLhenBL-51" edge="1">
          <mxGeometry relative="1" as="geometry" />
        </mxCell>
        <mxCell id="NKYCaUZf26EfjrLhenBL-54" style="edgeStyle=orthogonalEdgeStyle;rounded=0;orthogonalLoop=1;jettySize=auto;html=1;exitX=1;exitY=0.5;exitDx=0;exitDy=0;entryX=0;entryY=0.5;entryDx=0;entryDy=0;" parent="1" source="NKYCaUZf26EfjrLhenBL-49" target="NKYCaUZf26EfjrLhenBL-52" edge="1">
          <mxGeometry relative="1" as="geometry" />
        </mxCell>
        <mxCell id="NKYCaUZf26EfjrLhenBL-49" value="Invoice&lt;br&gt;&lt;font color=&quot;#0000ff&quot;&gt;inv_id&lt;/font&gt;" style="ellipse;whiteSpace=wrap;html=1;aspect=fixed;" parent="1" vertex="1">
          <mxGeometry x="1700" y="100" width="80" height="80" as="geometry" />
        </mxCell>
        <mxCell id="NKYCaUZf26EfjrLhenBL-51" value="Item&lt;br&gt;&lt;font color=&quot;#0000ff&quot;&gt;item_id&lt;/font&gt;" style="ellipse;whiteSpace=wrap;html=1;aspect=fixed;" parent="1" vertex="1">
          <mxGeometry x="1870" y="100" width="80" height="80" as="geometry" />
        </mxCell>
        <mxCell id="NKYCaUZf26EfjrLhenBL-55" style="edgeStyle=orthogonalEdgeStyle;rounded=0;orthogonalLoop=1;jettySize=auto;html=1;exitX=0.5;exitY=0;exitDx=0;exitDy=0;entryX=0.5;entryY=1;entryDx=0;entryDy=0;" parent="1" source="NKYCaUZf26EfjrLhenBL-52" target="NKYCaUZf26EfjrLhenBL-51" edge="1">
          <mxGeometry relative="1" as="geometry" />
        </mxCell>
        <mxCell id="NKYCaUZf26EfjrLhenBL-52" value="CategoricalFee&lt;br&gt;&lt;font color=&quot;#0000ff&quot;&gt;cf_id&lt;/font&gt;" style="ellipse;whiteSpace=wrap;html=1;aspect=fixed;" parent="1" vertex="1">
          <mxGeometry x="1870" y="230" width="80" height="80" as="geometry" />
        </mxCell>
        <mxCell id="NKYCaUZf26EfjrLhenBL-56" style="edgeStyle=orthogonalEdgeStyle;rounded=0;orthogonalLoop=1;jettySize=auto;html=1;exitX=0;exitY=0;exitDx=0;exitDy=0;entryX=0;entryY=1;entryDx=0;entryDy=0;fillColor=#d5e8d4;strokeColor=#82b366;strokeWidth=3;" parent="1" source="NKYCaUZf26EfjrLhenBL-1" target="NKYCaUZf26EfjrLhenBL-1" edge="1">
          <mxGeometry relative="1" as="geometry">
            <Array as="points">
              <mxPoint x="382" y="500" />
              <mxPoint x="300" y="500" />
              <mxPoint x="300" y="620" />
              <mxPoint x="382" y="620" />
            </Array>
          </mxGeometry>
        </mxCell>
        <mxCell id="NKYCaUZf26EfjrLhenBL-57" value="HAS_RELATION" style="edgeLabel;html=1;align=center;verticalAlign=middle;resizable=0;points=[];" parent="NKYCaUZf26EfjrLhenBL-56" vertex="1" connectable="0">
          <mxGeometry x="0.5882" y="-1" relative="1" as="geometry">
            <mxPoint as="offset" />
          </mxGeometry>
        </mxCell>
        <mxCell id="NKYCaUZf26EfjrLhenBL-91" value="1 VS n" style="edgeLabel;html=1;align=center;verticalAlign=middle;resizable=0;points=[];" parent="NKYCaUZf26EfjrLhenBL-56" vertex="1" connectable="0">
          <mxGeometry x="-0.5939" relative="1" as="geometry">
            <mxPoint as="offset" />
          </mxGeometry>
        </mxCell>
        <mxCell id="NKYCaUZf26EfjrLhenBL-59" value="Investigation&lt;br&gt;&lt;font color=&quot;#0000ff&quot;&gt;invest_id&lt;/font&gt;" style="ellipse;whiteSpace=wrap;html=1;aspect=fixed;" parent="1" vertex="1">
          <mxGeometry x="1550" y="640" width="80" height="80" as="geometry" />
        </mxCell>
        <mxCell id="NKYCaUZf26EfjrLhenBL-64" style="edgeStyle=orthogonalEdgeStyle;rounded=0;orthogonalLoop=1;jettySize=auto;html=1;exitX=0;exitY=0.5;exitDx=0;exitDy=0;entryX=1;entryY=0.5;entryDx=0;entryDy=0;" parent="1" source="NKYCaUZf26EfjrLhenBL-62" target="NKYCaUZf26EfjrLhenBL-63" edge="1">
          <mxGeometry relative="1" as="geometry" />
        </mxCell>
        <mxCell id="NKYCaUZf26EfjrLhenBL-67" value="SUB_ORGANIZATION" style="edgeLabel;html=1;align=center;verticalAlign=middle;resizable=0;points=[];" parent="NKYCaUZf26EfjrLhenBL-64" vertex="1" connectable="0">
          <mxGeometry x="-0.06" relative="1" as="geometry">
            <mxPoint as="offset" />
          </mxGeometry>
        </mxCell>
        <mxCell id="NKYCaUZf26EfjrLhenBL-62" value="Company&lt;br&gt;&lt;font color=&quot;#0000ff&quot;&gt;company_id&lt;/font&gt;" style="ellipse;whiteSpace=wrap;html=1;aspect=fixed;fillColor=#e1d5e7;strokeColor=#9673a6;" parent="1" vertex="1">
          <mxGeometry x="400" y="55" width="80" height="80" as="geometry" />
        </mxCell>
        <mxCell id="NKYCaUZf26EfjrLhenBL-63" value="Department&lt;br&gt;&lt;font color=&quot;#0000ff&quot;&gt;department_id&lt;/font&gt;" style="ellipse;whiteSpace=wrap;html=1;aspect=fixed;fillColor=#e1d5e7;strokeColor=#9673a6;" parent="1" vertex="1">
          <mxGeometry x="160" y="55" width="80" height="80" as="geometry" />
        </mxCell>
        <mxCell id="NKYCaUZf26EfjrLhenBL-65" style="edgeStyle=orthogonalEdgeStyle;rounded=0;orthogonalLoop=1;jettySize=auto;html=1;exitX=1;exitY=0;exitDx=0;exitDy=0;entryX=1;entryY=1;entryDx=0;entryDy=0;" parent="1" source="NKYCaUZf26EfjrLhenBL-62" target="NKYCaUZf26EfjrLhenBL-62" edge="1">
          <mxGeometry relative="1" as="geometry">
            <Array as="points">
              <mxPoint x="468" y="35" />
              <mxPoint x="550" y="35" />
              <mxPoint x="550" y="155" />
              <mxPoint x="468" y="155" />
            </Array>
          </mxGeometry>
        </mxCell>
        <mxCell id="NKYCaUZf26EfjrLhenBL-66" value="SUB_ORGANIZATION" style="edgeLabel;html=1;align=center;verticalAlign=middle;resizable=0;points=[];" parent="NKYCaUZf26EfjrLhenBL-65" vertex="1" connectable="0">
          <mxGeometry x="0.0081" y="2" relative="1" as="geometry">
            <mxPoint x="-2" y="-2" as="offset" />
          </mxGeometry>
        </mxCell>
        <mxCell id="NKYCaUZf26EfjrLhenBL-71" style="edgeStyle=orthogonalEdgeStyle;rounded=0;orthogonalLoop=1;jettySize=auto;html=1;exitX=1;exitY=0.5;exitDx=0;exitDy=0;entryX=0.5;entryY=1;entryDx=0;entryDy=0;fillColor=#d5e8d4;strokeColor=#82b366;strokeWidth=3;" parent="1" source="NKYCaUZf26EfjrLhenBL-70" target="NKYCaUZf26EfjrLhenBL-1" edge="1">
          <mxGeometry relative="1" as="geometry" />
        </mxCell>
        <mxCell id="NKYCaUZf26EfjrLhenBL-72" value="HAS_MEMBER" style="edgeLabel;html=1;align=center;verticalAlign=middle;resizable=0;points=[];" parent="NKYCaUZf26EfjrLhenBL-71" vertex="1" connectable="0">
          <mxGeometry x="-0.2519" y="-1" relative="1" as="geometry">
            <mxPoint as="offset" />
          </mxGeometry>
        </mxCell>
        <mxCell id="NKYCaUZf26EfjrLhenBL-70" value="Family" style="ellipse;whiteSpace=wrap;html=1;aspect=fixed;" parent="1" vertex="1">
          <mxGeometry x="150" y="790" width="80" height="80" as="geometry" />
        </mxCell>
        <mxCell id="NKYCaUZf26EfjrLhenBL-75" style="edgeStyle=orthogonalEdgeStyle;rounded=0;orthogonalLoop=1;jettySize=auto;html=1;exitX=0.5;exitY=1;exitDx=0;exitDy=0;entryX=0;entryY=0.5;entryDx=0;entryDy=0;" parent="1" source="NKYCaUZf26EfjrLhenBL-74" target="NKYCaUZf26EfjrLhenBL-16" edge="1">
          <mxGeometry relative="1" as="geometry" />
        </mxCell>
        <mxCell id="NKYCaUZf26EfjrLhenBL-74" value="AppliedPolicy" style="ellipse;whiteSpace=wrap;html=1;aspect=fixed;" parent="1" vertex="1">
          <mxGeometry x="780" y="120" width="80" height="80" as="geometry" />
        </mxCell>
        <mxCell id="NKYCaUZf26EfjrLhenBL-76" value="WithdrewClaim&lt;br&gt;&lt;font color=&quot;#0000ff&quot;&gt;claim_id&lt;/font&gt;" style="ellipse;whiteSpace=wrap;html=1;aspect=fixed;" parent="1" vertex="1">
          <mxGeometry x="1430" y="505" width="80" height="80" as="geometry" />
        </mxCell>
        <mxCell id="NKYCaUZf26EfjrLhenBL-78" value="" style="endArrow=classic;startArrow=classic;html=1;rounded=0;entryX=0;entryY=1;entryDx=0;entryDy=0;exitX=1;exitY=0;exitDx=0;exitDy=0;dashed=1;dashPattern=8 8;" parent="1" source="NKYCaUZf26EfjrLhenBL-76" target="NKYCaUZf26EfjrLhenBL-29" edge="1">
          <mxGeometry width="50" height="50" relative="1" as="geometry">
            <mxPoint x="1150" y="610" as="sourcePoint" />
            <mxPoint x="1200" y="560" as="targetPoint" />
          </mxGeometry>
        </mxCell>
        <mxCell id="NKYCaUZf26EfjrLhenBL-79" value="" style="endArrow=classic;startArrow=classic;html=1;rounded=0;entryX=1;entryY=1;entryDx=0;entryDy=0;exitX=0;exitY=0;exitDx=0;exitDy=0;dashed=1;dashPattern=8 8;" parent="1" source="NKYCaUZf26EfjrLhenBL-16" target="NKYCaUZf26EfjrLhenBL-74" edge="1">
          <mxGeometry width="50" height="50" relative="1" as="geometry">
            <mxPoint x="1328" y="527" as="sourcePoint" />
            <mxPoint x="1392" y="478" as="targetPoint" />
          </mxGeometry>
        </mxCell>
        <mxCell id="NKYCaUZf26EfjrLhenBL-87" value="Q:投保单相对保单而言，&lt;br&gt;有多少字段是可以提供的" style="edgeLabel;html=1;align=center;verticalAlign=middle;resizable=0;points=[];fontColor=#FF0000;" parent="NKYCaUZf26EfjrLhenBL-79" vertex="1" connectable="0">
          <mxGeometry x="0.1502" y="-1" relative="1" as="geometry">
            <mxPoint as="offset" />
          </mxGeometry>
        </mxCell>
        <mxCell id="NKYCaUZf26EfjrLhenBL-80" value="PolicyChange" style="ellipse;whiteSpace=wrap;html=1;aspect=fixed;fillColor=#ffe6cc;strokeColor=#d79b00;" parent="1" vertex="1">
          <mxGeometry x="950" y="980" width="80" height="80" as="geometry" />
        </mxCell>
        <mxCell id="NKYCaUZf26EfjrLhenBL-81" value="LiabilityChange" style="ellipse;whiteSpace=wrap;html=1;aspect=fixed;fillColor=#ffe6cc;strokeColor=#d79b00;" parent="1" vertex="1">
          <mxGeometry x="1090" y="980" width="80" height="80" as="geometry" />
        </mxCell>
        <mxCell id="NKYCaUZf26EfjrLhenBL-108" style="edgeStyle=orthogonalEdgeStyle;rounded=0;orthogonalLoop=1;jettySize=auto;html=1;exitX=0.5;exitY=0;exitDx=0;exitDy=0;strokeWidth=3;strokeColor=#FF0000;" parent="1" source="NKYCaUZf26EfjrLhenBL-82" edge="1">
          <mxGeometry relative="1" as="geometry">
            <Array as="points">
              <mxPoint x="850" y="790" />
              <mxPoint x="940" y="790" />
            </Array>
            <mxPoint x="940" y="600" as="targetPoint" />
          </mxGeometry>
        </mxCell>
        <mxCell id="NKYCaUZf26EfjrLhenBL-82" value="不实告知" style="ellipse;whiteSpace=wrap;html=1;aspect=fixed;fillColor=#ffe6cc;strokeColor=#d79b00;" parent="1" vertex="1">
          <mxGeometry x="810" y="980" width="80" height="80" as="geometry" />
        </mxCell>
        <mxCell id="NKYCaUZf26EfjrLhenBL-104" style="edgeStyle=orthogonalEdgeStyle;rounded=0;orthogonalLoop=1;jettySize=auto;html=1;entryX=1;entryY=1;entryDx=0;entryDy=0;strokeWidth=3;strokeColor=#FF0000;" parent="1" source="NKYCaUZf26EfjrLhenBL-83" target="NKYCaUZf26EfjrLhenBL-29" edge="1">
          <mxGeometry relative="1" as="geometry" />
        </mxCell>
        <mxCell id="NKYCaUZf26EfjrLhenBL-105" style="edgeStyle=orthogonalEdgeStyle;rounded=0;orthogonalLoop=1;jettySize=auto;html=1;exitX=0.5;exitY=0;exitDx=0;exitDy=0;entryX=1;entryY=0.5;entryDx=0;entryDy=0;strokeWidth=3;strokeColor=#FF0000;" parent="1" source="NKYCaUZf26EfjrLhenBL-83" target="NKYCaUZf26EfjrLhenBL-16" edge="1">
          <mxGeometry relative="1" as="geometry" />
        </mxCell>
        <mxCell id="NKYCaUZf26EfjrLhenBL-106" style="edgeStyle=orthogonalEdgeStyle;rounded=0;orthogonalLoop=1;jettySize=auto;html=1;exitX=0.5;exitY=1;exitDx=0;exitDy=0;entryX=0.5;entryY=1;entryDx=0;entryDy=0;strokeWidth=3;strokeColor=#FF0000;" parent="1" source="NKYCaUZf26EfjrLhenBL-83" target="NKYCaUZf26EfjrLhenBL-81" edge="1">
          <mxGeometry relative="1" as="geometry" />
        </mxCell>
        <mxCell id="NKYCaUZf26EfjrLhenBL-107" style="edgeStyle=orthogonalEdgeStyle;rounded=0;orthogonalLoop=1;jettySize=auto;html=1;exitX=0.5;exitY=1;exitDx=0;exitDy=0;entryX=0.5;entryY=1;entryDx=0;entryDy=0;strokeWidth=3;strokeColor=#FF0000;" parent="1" source="NKYCaUZf26EfjrLhenBL-83" target="NKYCaUZf26EfjrLhenBL-80" edge="1">
          <mxGeometry relative="1" as="geometry" />
        </mxCell>
        <mxCell id="NKYCaUZf26EfjrLhenBL-83" value="核保" style="ellipse;whiteSpace=wrap;html=1;aspect=fixed;fillColor=#ffe6cc;strokeColor=#d79b00;" parent="1" vertex="1">
          <mxGeometry x="1230" y="980" width="80" height="80" as="geometry" />
        </mxCell>
        <mxCell id="NKYCaUZf26EfjrLhenBL-84" value="保全" style="text;html=1;strokeColor=none;fillColor=none;align=center;verticalAlign=middle;whiteSpace=wrap;rounded=0;" parent="1" vertex="1">
          <mxGeometry x="1030" y="1005" width="60" height="30" as="geometry" />
        </mxCell>
        <mxCell id="NKYCaUZf26EfjrLhenBL-85" value="Q: 发票是否集中在某一次就诊下" style="text;html=1;strokeColor=none;fillColor=none;align=center;verticalAlign=middle;whiteSpace=wrap;rounded=0;fontColor=#FF0000;" parent="1" vertex="1">
          <mxGeometry x="1670" y="200" width="140" height="30" as="geometry" />
        </mxCell>
        <mxCell id="NKYCaUZf26EfjrLhenBL-86" value="Q: 投被保人是否可以变更&lt;br&gt;Q: 其它与当前图业务节点相关的保单变更可能&lt;br&gt;&lt;br&gt;所有的保单变更，是直接生成新的保单配置项，还是在保单配置项上进行变更？" style="text;html=1;strokeColor=none;fillColor=none;align=left;verticalAlign=middle;whiteSpace=wrap;rounded=0;fontColor=#FF0000;" parent="1" vertex="1">
          <mxGeometry x="700" y="690" width="140" height="130" as="geometry" />
        </mxCell>
        <mxCell id="NKYCaUZf26EfjrLhenBL-95" value="Q:受益人定义在保单配置里面，还是在赔案上" style="edgeLabel;html=1;align=center;verticalAlign=middle;resizable=0;points=[];fontColor=#FF0000;" parent="1" vertex="1" connectable="0">
          <mxGeometry x="660.0017466487319" y="389.9967083218748" as="geometry">
            <mxPoint x="1" y="-2" as="offset" />
          </mxGeometry>
        </mxCell>
        <mxCell id="NKYCaUZf26EfjrLhenBL-96" value="&lt;div style=&quot;text-align: left;&quot;&gt;Q: 是否所有证件类型/证件号都具有唯一性&lt;br&gt;&lt;/div&gt;&lt;div style=&quot;text-align: left;&quot;&gt;准生证号有可能重复&lt;/div&gt;&lt;div style=&quot;text-align: left;&quot;&gt;Q: 删除操作是否有全量记录，哪怕是物理删除&lt;/div&gt;&lt;div style=&quot;text-align: left;&quot;&gt;Q: 完全无法跟踪的东西的量&lt;/div&gt;" style="edgeLabel;html=1;align=center;verticalAlign=middle;resizable=0;points=[];fontColor=#FF0000;" parent="1" vertex="1" connectable="0">
          <mxGeometry x="190" y="670" as="geometry" />
        </mxCell>
        <mxCell id="NKYCaUZf26EfjrLhenBL-101" value="Q: 保单配置中，特别约定导致责任与险种通用配置不符，所以直连配置，不算险种" style="text;html=1;strokeColor=none;fillColor=none;align=center;verticalAlign=middle;whiteSpace=wrap;rounded=0;fontColor=#FF0000;" parent="1" vertex="1">
          <mxGeometry x="970" y="610" width="140" height="60" as="geometry" />
        </mxCell>
        <mxCell id="NKYCaUZf26EfjrLhenBL-102" value="&lt;font color=&quot;#ff0000&quot;&gt;撤销件与其它案件字段是否完全一致？&lt;/font&gt;" style="text;html=1;align=center;verticalAlign=middle;resizable=0;points=[];autosize=1;strokeColor=none;fillColor=none;" parent="1" vertex="1">
          <mxGeometry x="1400" y="480" width="230" height="30" as="geometry" />
        </mxCell>
        <mxCell id="NKYCaUZf26EfjrLhenBL-109" style="edgeStyle=orthogonalEdgeStyle;rounded=0;orthogonalLoop=1;jettySize=auto;html=1;exitX=0.5;exitY=0;exitDx=0;exitDy=0;entryX=0;entryY=0.5;entryDx=0;entryDy=0;strokeWidth=3;strokeColor=#FF0000;" parent="1" target="NKYCaUZf26EfjrLhenBL-16" edge="1">
          <mxGeometry relative="1" as="geometry">
            <mxPoint x="850" y="920" as="sourcePoint" />
            <mxPoint x="1170" y="480" as="targetPoint" />
            <Array as="points">
              <mxPoint x="850" y="440" />
            </Array>
          </mxGeometry>
        </mxCell>
        <mxCell id="ByGQQFDxRcZomttB7kPi-6" value="BankAccount&lt;br&gt;&lt;font color=&quot;#0000ff&quot;&gt;bank_code&lt;br&gt;bankcard&lt;/font&gt;" style="ellipse;whiteSpace=wrap;html=1;aspect=fixed;" parent="1" vertex="1">
          <mxGeometry x="610" y="1050" width="80" height="80" as="geometry" />
        </mxCell>
        <mxCell id="ByGQQFDxRcZomttB7kPi-7" value="Telephone&lt;br&gt;&lt;font color=&quot;#0000ff&quot;&gt;number&lt;br&gt;&lt;/font&gt;" style="ellipse;whiteSpace=wrap;html=1;aspect=fixed;" parent="1" vertex="1">
          <mxGeometry x="490" y="1050" width="80" height="80" as="geometry" />
        </mxCell>
        <mxCell id="ByGQQFDxRcZomttB7kPi-8" value="Address&lt;br&gt;&lt;font color=&quot;#0000ff&quot;&gt;address&lt;br&gt;&lt;/font&gt;" style="ellipse;whiteSpace=wrap;html=1;aspect=fixed;" parent="1" vertex="1">
          <mxGeometry x="370" y="1050" width="80" height="80" as="geometry" />
        </mxCell>
        <mxCell id="ByGQQFDxRcZomttB7kPi-22" value="&lt;font color=&quot;#ff0000&quot;&gt;Q: 组织架构层级，数据里面很奇怪&lt;/font&gt;" style="text;html=1;strokeColor=none;fillColor=none;align=center;verticalAlign=middle;whiteSpace=wrap;rounded=0;" parent="1" vertex="1">
          <mxGeometry x="570" y="40" width="220" height="60" as="geometry" />
        </mxCell>
      </root>
    </mxGraphModel>
  </diagram>
  <diagram name="V1" id="M5B1Yc10DnqzV7me4WYL">
    <mxGraphModel dx="1306" dy="928" grid="1" gridSize="10" guides="1" tooltips="1" connect="1" arrows="1" fold="1" page="1" pageScale="1" pageWidth="827" pageHeight="1169" math="0" shadow="0">
      <root>
        <mxCell id="Vn5EulRnXRKcgzjqo5Ll-0" />
        <mxCell id="Vn5EulRnXRKcgzjqo5Ll-1" parent="Vn5EulRnXRKcgzjqo5Ll-0" />
        <mxCell id="Vn5EulRnXRKcgzjqo5Ll-24" style="edgeStyle=orthogonalEdgeStyle;rounded=0;orthogonalLoop=1;jettySize=auto;html=1;exitX=0.5;exitY=1;exitDx=0;exitDy=0;entryX=0.5;entryY=0;entryDx=0;entryDy=0;" edge="1" parent="Vn5EulRnXRKcgzjqo5Ll-1" source="Vn5EulRnXRKcgzjqo5Ll-26" target="Vn5EulRnXRKcgzjqo5Ll-121">
          <mxGeometry relative="1" as="geometry">
            <Array as="points">
              <mxPoint x="590" y="940" />
              <mxPoint x="530" y="940" />
            </Array>
          </mxGeometry>
        </mxCell>
        <mxCell id="Vn5EulRnXRKcgzjqo5Ll-25" style="edgeStyle=orthogonalEdgeStyle;rounded=0;orthogonalLoop=1;jettySize=auto;html=1;exitX=0.5;exitY=1;exitDx=0;exitDy=0;entryX=0.5;entryY=0;entryDx=0;entryDy=0;fillColor=#d5e8d4;strokeColor=#82b366;strokeWidth=3;" edge="1" parent="Vn5EulRnXRKcgzjqo5Ll-1" source="Vn5EulRnXRKcgzjqo5Ll-26" target="Vn5EulRnXRKcgzjqo5Ll-122">
          <mxGeometry relative="1" as="geometry">
            <Array as="points">
              <mxPoint x="590" y="940" />
              <mxPoint x="410" y="940" />
            </Array>
          </mxGeometry>
        </mxCell>
        <mxCell id="Vn5EulRnXRKcgzjqo5Ll-2" style="edgeStyle=orthogonalEdgeStyle;rounded=0;orthogonalLoop=1;jettySize=auto;html=1;exitX=0;exitY=0;exitDx=0;exitDy=0;entryX=1;entryY=0.5;entryDx=0;entryDy=0;fillColor=#d5e8d4;strokeColor=#82b366;strokeWidth=3;endArrow=none;endFill=0;startArrow=classic;startFill=1;" edge="1" parent="Vn5EulRnXRKcgzjqo5Ll-1" source="Vn5EulRnXRKcgzjqo5Ll-35" target="Vn5EulRnXRKcgzjqo5Ll-13">
          <mxGeometry relative="1" as="geometry">
            <Array as="points">
              <mxPoint x="310" y="292" />
              <mxPoint x="310" y="560" />
            </Array>
          </mxGeometry>
        </mxCell>
        <mxCell id="Vn5EulRnXRKcgzjqo5Ll-6" style="edgeStyle=orthogonalEdgeStyle;rounded=0;orthogonalLoop=1;jettySize=auto;html=1;exitX=1;exitY=0;exitDx=0;exitDy=0;entryX=0;entryY=0.5;entryDx=0;entryDy=0;strokeColor=#000000;startArrow=classic;startFill=1;endArrow=none;endFill=0;" edge="1" parent="Vn5EulRnXRKcgzjqo5Ll-1" source="Vn5EulRnXRKcgzjqo5Ll-12" target="Vn5EulRnXRKcgzjqo5Ll-26">
          <mxGeometry relative="1" as="geometry" />
        </mxCell>
        <mxCell id="Vn5EulRnXRKcgzjqo5Ll-7" value="HAS_CERT&lt;br&gt;1 vs 1" style="edgeLabel;html=1;align=center;verticalAlign=middle;resizable=0;points=[];" vertex="1" connectable="0" parent="Vn5EulRnXRKcgzjqo5Ll-6">
          <mxGeometry x="0.2823" y="1" relative="1" as="geometry">
            <mxPoint as="offset" />
          </mxGeometry>
        </mxCell>
        <mxCell id="Vn5EulRnXRKcgzjqo5Ll-8" style="edgeStyle=orthogonalEdgeStyle;rounded=0;orthogonalLoop=1;jettySize=auto;html=1;exitX=0.5;exitY=0;exitDx=0;exitDy=0;entryX=0;entryY=0.5;entryDx=0;entryDy=0;fillColor=#d5e8d4;strokeColor=#000000;strokeWidth=1;endArrow=none;endFill=0;startArrow=classic;startFill=1;" edge="1" parent="Vn5EulRnXRKcgzjqo5Ll-1" source="Vn5EulRnXRKcgzjqo5Ll-12" target="Vn5EulRnXRKcgzjqo5Ll-35">
          <mxGeometry relative="1" as="geometry" />
        </mxCell>
        <mxCell id="Vn5EulRnXRKcgzjqo5Ll-9" value="HAS_CERT&lt;br&gt;1 vs n" style="edgeLabel;html=1;align=center;verticalAlign=middle;resizable=0;points=[];" vertex="1" connectable="0" parent="Vn5EulRnXRKcgzjqo5Ll-8">
          <mxGeometry x="-0.2882" y="1" relative="1" as="geometry">
            <mxPoint as="offset" />
          </mxGeometry>
        </mxCell>
        <mxCell id="Vn5EulRnXRKcgzjqo5Ll-10" style="edgeStyle=orthogonalEdgeStyle;rounded=0;orthogonalLoop=1;jettySize=auto;html=1;exitX=0.5;exitY=1;exitDx=0;exitDy=0;entryX=0;entryY=0.5;entryDx=0;entryDy=0;fillColor=#d5e8d4;strokeColor=#000000;startArrow=classic;startFill=1;endArrow=none;endFill=0;" edge="1" parent="Vn5EulRnXRKcgzjqo5Ll-1" source="Vn5EulRnXRKcgzjqo5Ll-12" target="Vn5EulRnXRKcgzjqo5Ll-21">
          <mxGeometry relative="1" as="geometry" />
        </mxCell>
        <mxCell id="Vn5EulRnXRKcgzjqo5Ll-11" value="HAS_CERT" style="edgeLabel;html=1;align=center;verticalAlign=middle;resizable=0;points=[];" vertex="1" connectable="0" parent="Vn5EulRnXRKcgzjqo5Ll-10">
          <mxGeometry x="0.4818" y="1" relative="1" as="geometry">
            <mxPoint as="offset" />
          </mxGeometry>
        </mxCell>
        <mxCell id="Vn5EulRnXRKcgzjqo5Ll-12" value="CertID&lt;br&gt;证件号+证件类型" style="ellipse;whiteSpace=wrap;html=1;aspect=fixed;" vertex="1" parent="Vn5EulRnXRKcgzjqo5Ll-1">
          <mxGeometry x="370" y="520" width="80" height="80" as="geometry" />
        </mxCell>
        <mxCell id="Vn5EulRnXRKcgzjqo5Ll-13" value="PERSON" style="ellipse;whiteSpace=wrap;html=1;aspect=fixed;fillColor=#dae8fc;strokeColor=#6c8ebf;" vertex="1" parent="Vn5EulRnXRKcgzjqo5Ll-1">
          <mxGeometry x="150" y="520" width="80" height="80" as="geometry" />
        </mxCell>
        <mxCell id="Vn5EulRnXRKcgzjqo5Ll-14" style="edgeStyle=orthogonalEdgeStyle;rounded=0;orthogonalLoop=1;jettySize=auto;html=1;exitX=0.5;exitY=1;exitDx=0;exitDy=0;entryX=0.5;entryY=0;entryDx=0;entryDy=0;" edge="1" parent="Vn5EulRnXRKcgzjqo5Ll-1" target="Vn5EulRnXRKcgzjqo5Ll-120">
          <mxGeometry relative="1" as="geometry">
            <mxPoint x="590" y="600" as="sourcePoint" />
            <Array as="points">
              <mxPoint x="590" y="940" />
              <mxPoint x="650" y="940" />
            </Array>
          </mxGeometry>
        </mxCell>
        <mxCell id="Vn5EulRnXRKcgzjqo5Ll-15" style="edgeStyle=orthogonalEdgeStyle;rounded=0;orthogonalLoop=1;jettySize=auto;html=1;exitX=0.5;exitY=1;exitDx=0;exitDy=0;" edge="1" parent="Vn5EulRnXRKcgzjqo5Ll-1" target="Vn5EulRnXRKcgzjqo5Ll-121">
          <mxGeometry relative="1" as="geometry">
            <mxPoint x="590" y="600" as="sourcePoint" />
            <Array as="points">
              <mxPoint x="590" y="940" />
              <mxPoint x="530" y="940" />
            </Array>
          </mxGeometry>
        </mxCell>
        <mxCell id="Vn5EulRnXRKcgzjqo5Ll-16" style="edgeStyle=orthogonalEdgeStyle;rounded=0;orthogonalLoop=1;jettySize=auto;html=1;exitX=0.5;exitY=1;exitDx=0;exitDy=0;entryX=0.5;entryY=0;entryDx=0;entryDy=0;" edge="1" parent="Vn5EulRnXRKcgzjqo5Ll-1" target="Vn5EulRnXRKcgzjqo5Ll-122">
          <mxGeometry relative="1" as="geometry">
            <mxPoint x="590" y="600" as="sourcePoint" />
            <Array as="points">
              <mxPoint x="590" y="940" />
              <mxPoint x="410" y="940" />
            </Array>
          </mxGeometry>
        </mxCell>
        <mxCell id="Vn5EulRnXRKcgzjqo5Ll-18" style="edgeStyle=orthogonalEdgeStyle;rounded=0;orthogonalLoop=1;jettySize=auto;html=1;exitX=0.5;exitY=1;exitDx=0;exitDy=0;entryX=0.5;entryY=0;entryDx=0;entryDy=0;" edge="1" parent="Vn5EulRnXRKcgzjqo5Ll-1" source="Vn5EulRnXRKcgzjqo5Ll-21" target="Vn5EulRnXRKcgzjqo5Ll-120">
          <mxGeometry relative="1" as="geometry">
            <Array as="points">
              <mxPoint x="590" y="940" />
              <mxPoint x="650" y="940" />
            </Array>
          </mxGeometry>
        </mxCell>
        <mxCell id="Vn5EulRnXRKcgzjqo5Ll-19" style="edgeStyle=orthogonalEdgeStyle;rounded=0;orthogonalLoop=1;jettySize=auto;html=1;exitX=0.5;exitY=1;exitDx=0;exitDy=0;" edge="1" parent="Vn5EulRnXRKcgzjqo5Ll-1" source="Vn5EulRnXRKcgzjqo5Ll-21" target="Vn5EulRnXRKcgzjqo5Ll-121">
          <mxGeometry relative="1" as="geometry">
            <Array as="points">
              <mxPoint x="590" y="940" />
              <mxPoint x="530" y="940" />
            </Array>
          </mxGeometry>
        </mxCell>
        <mxCell id="Vn5EulRnXRKcgzjqo5Ll-20" style="edgeStyle=orthogonalEdgeStyle;rounded=0;orthogonalLoop=1;jettySize=auto;html=1;exitX=0.5;exitY=1;exitDx=0;exitDy=0;entryX=0.5;entryY=0;entryDx=0;entryDy=0;" edge="1" parent="Vn5EulRnXRKcgzjqo5Ll-1" source="Vn5EulRnXRKcgzjqo5Ll-21" target="Vn5EulRnXRKcgzjqo5Ll-122">
          <mxGeometry relative="1" as="geometry">
            <Array as="points">
              <mxPoint x="590" y="940" />
              <mxPoint x="410" y="940" />
            </Array>
          </mxGeometry>
        </mxCell>
        <mxCell id="Vn5EulRnXRKcgzjqo5Ll-22" style="edgeStyle=orthogonalEdgeStyle;rounded=0;orthogonalLoop=1;jettySize=auto;html=1;exitX=1;exitY=0.5;exitDx=0;exitDy=0;entryX=0;entryY=0;entryDx=0;entryDy=0;endArrow=none;endFill=0;startArrow=classic;startFill=1;fillColor=#d5e8d4;strokeColor=#82b366;strokeWidth=3;" edge="1" parent="Vn5EulRnXRKcgzjqo5Ll-1" source="Vn5EulRnXRKcgzjqo5Ll-26" target="Vn5EulRnXRKcgzjqo5Ll-49">
          <mxGeometry relative="1" as="geometry">
            <Array as="points">
              <mxPoint x="710" y="440" />
              <mxPoint x="710" y="532" />
            </Array>
          </mxGeometry>
        </mxCell>
        <mxCell id="Vn5EulRnXRKcgzjqo5Ll-23" style="edgeStyle=orthogonalEdgeStyle;rounded=0;orthogonalLoop=1;jettySize=auto;html=1;exitX=0.5;exitY=1;exitDx=0;exitDy=0;entryX=0.5;entryY=0;entryDx=0;entryDy=0;fillColor=#d5e8d4;strokeColor=#82b366;strokeWidth=3;" edge="1" parent="Vn5EulRnXRKcgzjqo5Ll-1" source="Vn5EulRnXRKcgzjqo5Ll-26" target="Vn5EulRnXRKcgzjqo5Ll-120">
          <mxGeometry relative="1" as="geometry">
            <Array as="points">
              <mxPoint x="590" y="940" />
              <mxPoint x="650" y="940" />
            </Array>
          </mxGeometry>
        </mxCell>
        <mxCell id="3YV5C5tq33uIkFS6HMni-23" style="edgeStyle=orthogonalEdgeStyle;rounded=0;orthogonalLoop=1;jettySize=auto;html=1;exitX=0;exitY=1;exitDx=0;exitDy=0;startArrow=classic;startFill=1;endArrow=none;endFill=0;strokeWidth=3;strokeColor=#97D077;" edge="1" parent="Vn5EulRnXRKcgzjqo5Ll-1" source="Vn5EulRnXRKcgzjqo5Ll-26">
          <mxGeometry relative="1" as="geometry">
            <mxPoint x="230" y="560" as="targetPoint" />
            <Array as="points">
              <mxPoint x="562" y="560" />
            </Array>
          </mxGeometry>
        </mxCell>
        <mxCell id="Vn5EulRnXRKcgzjqo5Ll-26" value="Beneficiary&lt;br&gt;&lt;font color=&quot;#0000ff&quot;&gt;cust_id&lt;/font&gt;" style="ellipse;whiteSpace=wrap;html=1;aspect=fixed;dashed=1;" vertex="1" parent="Vn5EulRnXRKcgzjqo5Ll-1">
          <mxGeometry x="550" y="400" width="80" height="80" as="geometry" />
        </mxCell>
        <mxCell id="Vn5EulRnXRKcgzjqo5Ll-27" style="edgeStyle=orthogonalEdgeStyle;rounded=0;orthogonalLoop=1;jettySize=auto;html=1;exitX=0.5;exitY=0;exitDx=0;exitDy=0;entryX=0;entryY=0.5;entryDx=0;entryDy=0;fillColor=#d5e8d4;strokeColor=#82b366;strokeWidth=3;" edge="1" parent="Vn5EulRnXRKcgzjqo5Ll-1" source="Vn5EulRnXRKcgzjqo5Ll-35" target="Vn5EulRnXRKcgzjqo5Ll-91">
          <mxGeometry relative="1" as="geometry">
            <Array as="points">
              <mxPoint x="590" y="208" />
              <mxPoint x="140" y="208" />
              <mxPoint x="140" y="95" />
            </Array>
          </mxGeometry>
        </mxCell>
        <mxCell id="Vn5EulRnXRKcgzjqo5Ll-28" value="WORK_IN&lt;br&gt;1 VS n" style="edgeLabel;html=1;align=center;verticalAlign=middle;resizable=0;points=[];" vertex="1" connectable="0" parent="Vn5EulRnXRKcgzjqo5Ll-27">
          <mxGeometry x="0.4744" relative="1" as="geometry">
            <mxPoint as="offset" />
          </mxGeometry>
        </mxCell>
        <mxCell id="Vn5EulRnXRKcgzjqo5Ll-29" value="Q: 投保人每次入职对应的组/分公司" style="edgeLabel;html=1;align=center;verticalAlign=middle;resizable=0;points=[];fontColor=#FF0000;" vertex="1" connectable="0" parent="Vn5EulRnXRKcgzjqo5Ll-27">
          <mxGeometry x="-0.0565" y="-1" relative="1" as="geometry">
            <mxPoint as="offset" />
          </mxGeometry>
        </mxCell>
        <mxCell id="Vn5EulRnXRKcgzjqo5Ll-30" style="edgeStyle=orthogonalEdgeStyle;rounded=0;orthogonalLoop=1;jettySize=auto;html=1;exitX=1;exitY=0.5;exitDx=0;exitDy=0;entryX=0;entryY=1;entryDx=0;entryDy=0;fillColor=#d5e8d4;strokeColor=#82b366;strokeWidth=3;" edge="1" parent="Vn5EulRnXRKcgzjqo5Ll-1" source="Vn5EulRnXRKcgzjqo5Ll-35" target="Vn5EulRnXRKcgzjqo5Ll-37">
          <mxGeometry relative="1" as="geometry">
            <Array as="points">
              <mxPoint x="720" y="320" />
              <mxPoint x="720" y="468" />
            </Array>
          </mxGeometry>
        </mxCell>
        <mxCell id="Vn5EulRnXRKcgzjqo5Ll-31" value="SELL / SERVE" style="edgeLabel;html=1;align=center;verticalAlign=middle;resizable=0;points=[];" vertex="1" connectable="0" parent="Vn5EulRnXRKcgzjqo5Ll-30">
          <mxGeometry x="-0.3768" relative="1" as="geometry">
            <mxPoint as="offset" />
          </mxGeometry>
        </mxCell>
        <mxCell id="Vn5EulRnXRKcgzjqo5Ll-32" style="edgeStyle=orthogonalEdgeStyle;rounded=0;orthogonalLoop=1;jettySize=auto;html=1;exitX=0.5;exitY=1;exitDx=0;exitDy=0;entryX=0.5;entryY=0;entryDx=0;entryDy=0;fillColor=#d5e8d4;strokeColor=#82b366;strokeWidth=3;" edge="1" parent="Vn5EulRnXRKcgzjqo5Ll-1" source="Vn5EulRnXRKcgzjqo5Ll-35" target="Vn5EulRnXRKcgzjqo5Ll-121">
          <mxGeometry relative="1" as="geometry">
            <Array as="points">
              <mxPoint x="480" y="360" />
              <mxPoint x="480" y="850" />
              <mxPoint x="530" y="850" />
            </Array>
          </mxGeometry>
        </mxCell>
        <mxCell id="Vn5EulRnXRKcgzjqo5Ll-33" style="edgeStyle=orthogonalEdgeStyle;rounded=0;orthogonalLoop=1;jettySize=auto;html=1;exitX=0.5;exitY=1;exitDx=0;exitDy=0;entryX=0.5;entryY=0;entryDx=0;entryDy=0;fillColor=#d5e8d4;strokeColor=#82b366;strokeWidth=3;" edge="1" parent="Vn5EulRnXRKcgzjqo5Ll-1" source="Vn5EulRnXRKcgzjqo5Ll-35" target="Vn5EulRnXRKcgzjqo5Ll-122">
          <mxGeometry relative="1" as="geometry">
            <Array as="points">
              <mxPoint x="480" y="360" />
              <mxPoint x="480" y="850" />
              <mxPoint x="410" y="850" />
            </Array>
          </mxGeometry>
        </mxCell>
        <mxCell id="Vn5EulRnXRKcgzjqo5Ll-34" style="edgeStyle=orthogonalEdgeStyle;rounded=0;orthogonalLoop=1;jettySize=auto;html=1;exitX=0.5;exitY=1;exitDx=0;exitDy=0;entryX=0.5;entryY=0;entryDx=0;entryDy=0;fillColor=#fff2cc;strokeColor=#d6b656;strokeWidth=3;dashed=1;dashPattern=1 1;" edge="1" parent="Vn5EulRnXRKcgzjqo5Ll-1" source="Vn5EulRnXRKcgzjqo5Ll-35" target="Vn5EulRnXRKcgzjqo5Ll-120">
          <mxGeometry relative="1" as="geometry">
            <Array as="points">
              <mxPoint x="480" y="360" />
              <mxPoint x="480" y="850" />
              <mxPoint x="650" y="850" />
            </Array>
          </mxGeometry>
        </mxCell>
        <mxCell id="Vn5EulRnXRKcgzjqo5Ll-35" value="Agent&lt;br&gt;&lt;font color=&quot;#0000ff&quot;&gt;agent_id&lt;/font&gt;" style="ellipse;whiteSpace=wrap;html=1;aspect=fixed;" vertex="1" parent="Vn5EulRnXRKcgzjqo5Ll-1">
          <mxGeometry x="550" y="280" width="80" height="80" as="geometry" />
        </mxCell>
        <mxCell id="Vn5EulRnXRKcgzjqo5Ll-36" style="edgeStyle=orthogonalEdgeStyle;rounded=0;orthogonalLoop=1;jettySize=auto;html=1;exitX=0.5;exitY=1;exitDx=0;exitDy=0;entryX=0.5;entryY=0;entryDx=0;entryDy=0;" edge="1" parent="Vn5EulRnXRKcgzjqo5Ll-1" source="Vn5EulRnXRKcgzjqo5Ll-37" target="Vn5EulRnXRKcgzjqo5Ll-49">
          <mxGeometry relative="1" as="geometry" />
        </mxCell>
        <mxCell id="Vn5EulRnXRKcgzjqo5Ll-37" value="Policy&lt;br&gt;&lt;font color=&quot;#0000ff&quot;&gt;policy_id&lt;/font&gt;" style="ellipse;whiteSpace=wrap;html=1;aspect=fixed;" vertex="1" parent="Vn5EulRnXRKcgzjqo5Ll-1">
          <mxGeometry x="900" y="400" width="80" height="80" as="geometry" />
        </mxCell>
        <mxCell id="Vn5EulRnXRKcgzjqo5Ll-38" style="edgeStyle=orthogonalEdgeStyle;rounded=0;orthogonalLoop=1;jettySize=auto;html=1;exitX=0.5;exitY=1;exitDx=0;exitDy=0;entryX=0.5;entryY=0;entryDx=0;entryDy=0;" edge="1" parent="Vn5EulRnXRKcgzjqo5Ll-1" source="Vn5EulRnXRKcgzjqo5Ll-39" target="Vn5EulRnXRKcgzjqo5Ll-40">
          <mxGeometry relative="1" as="geometry" />
        </mxCell>
        <mxCell id="Vn5EulRnXRKcgzjqo5Ll-39" value="Product&lt;br&gt;&lt;font color=&quot;#0000ff&quot;&gt;product_id&lt;/font&gt;" style="ellipse;whiteSpace=wrap;html=1;aspect=fixed;fillColor=#e1d5e7;strokeColor=#9673a6;dashed=1;" vertex="1" parent="Vn5EulRnXRKcgzjqo5Ll-1">
          <mxGeometry x="1080" y="520" width="80" height="80" as="geometry" />
        </mxCell>
        <mxCell id="Vn5EulRnXRKcgzjqo5Ll-40" value="Liability&lt;br&gt;&lt;font color=&quot;#0000ff&quot;&gt;liab_id&lt;/font&gt;" style="ellipse;whiteSpace=wrap;html=1;aspect=fixed;fillColor=#e1d5e7;strokeColor=#9673a6;dashed=1;" vertex="1" parent="Vn5EulRnXRKcgzjqo5Ll-1">
          <mxGeometry x="1080" y="640" width="80" height="80" as="geometry" />
        </mxCell>
        <mxCell id="Vn5EulRnXRKcgzjqo5Ll-41" style="edgeStyle=orthogonalEdgeStyle;rounded=0;orthogonalLoop=1;jettySize=auto;html=1;exitX=1;exitY=0.5;exitDx=0;exitDy=0;entryX=0;entryY=0.5;entryDx=0;entryDy=0;" edge="1" parent="Vn5EulRnXRKcgzjqo5Ll-1" source="Vn5EulRnXRKcgzjqo5Ll-49" target="Vn5EulRnXRKcgzjqo5Ll-39">
          <mxGeometry relative="1" as="geometry" />
        </mxCell>
        <mxCell id="Vn5EulRnXRKcgzjqo5Ll-42" style="edgeStyle=orthogonalEdgeStyle;rounded=0;orthogonalLoop=1;jettySize=auto;html=1;exitX=0;exitY=0.5;exitDx=0;exitDy=0;fillColor=#d5e8d4;strokeColor=#82b366;strokeWidth=3;entryX=1;entryY=0.5;entryDx=0;entryDy=0;" edge="1" parent="Vn5EulRnXRKcgzjqo5Ll-1" source="Vn5EulRnXRKcgzjqo5Ll-49" target="Vn5EulRnXRKcgzjqo5Ll-21">
          <mxGeometry relative="1" as="geometry">
            <mxPoint x="630" y="560" as="targetPoint" />
            <Array as="points">
              <mxPoint x="740" y="560" />
              <mxPoint x="740" y="680" />
            </Array>
          </mxGeometry>
        </mxCell>
        <mxCell id="Vn5EulRnXRKcgzjqo5Ll-43" value="MAIN_INSURED" style="edgeLabel;html=1;align=center;verticalAlign=middle;resizable=0;points=[];" vertex="1" connectable="0" parent="Vn5EulRnXRKcgzjqo5Ll-42">
          <mxGeometry x="-0.0148" y="1" relative="1" as="geometry">
            <mxPoint as="offset" />
          </mxGeometry>
        </mxCell>
        <mxCell id="Vn5EulRnXRKcgzjqo5Ll-44" style="edgeStyle=orthogonalEdgeStyle;rounded=0;orthogonalLoop=1;jettySize=auto;html=1;exitX=0;exitY=1;exitDx=0;exitDy=0;entryX=1;entryY=0.5;entryDx=0;entryDy=0;strokeWidth=3;fillColor=#d5e8d4;strokeColor=#82b366;" edge="1" parent="Vn5EulRnXRKcgzjqo5Ll-1" source="Vn5EulRnXRKcgzjqo5Ll-49" target="Vn5EulRnXRKcgzjqo5Ll-21">
          <mxGeometry relative="1" as="geometry">
            <Array as="points">
              <mxPoint x="912" y="680" />
            </Array>
          </mxGeometry>
        </mxCell>
        <mxCell id="Vn5EulRnXRKcgzjqo5Ll-45" value="SECOND_INSURED" style="edgeLabel;html=1;align=center;verticalAlign=middle;resizable=0;points=[];" vertex="1" connectable="0" parent="Vn5EulRnXRKcgzjqo5Ll-44">
          <mxGeometry x="0.0341" y="1" relative="1" as="geometry">
            <mxPoint as="offset" />
          </mxGeometry>
        </mxCell>
        <mxCell id="Vn5EulRnXRKcgzjqo5Ll-46" style="edgeStyle=orthogonalEdgeStyle;rounded=0;orthogonalLoop=1;jettySize=auto;html=1;exitX=0.5;exitY=1;exitDx=0;exitDy=0;entryX=1;entryY=1;entryDx=0;entryDy=0;fillColor=#d5e8d4;strokeColor=#82b366;strokeWidth=3;" edge="1" parent="Vn5EulRnXRKcgzjqo5Ll-1" source="Vn5EulRnXRKcgzjqo5Ll-49" target="Vn5EulRnXRKcgzjqo5Ll-21">
          <mxGeometry relative="1" as="geometry">
            <Array as="points">
              <mxPoint x="940" y="708" />
            </Array>
          </mxGeometry>
        </mxCell>
        <mxCell id="Vn5EulRnXRKcgzjqo5Ll-47" value="APPLICANT" style="edgeLabel;html=1;align=center;verticalAlign=middle;resizable=0;points=[];" vertex="1" connectable="0" parent="Vn5EulRnXRKcgzjqo5Ll-46">
          <mxGeometry x="0.2667" relative="1" as="geometry">
            <mxPoint as="offset" />
          </mxGeometry>
        </mxCell>
        <mxCell id="Vn5EulRnXRKcgzjqo5Ll-48" style="edgeStyle=orthogonalEdgeStyle;rounded=0;orthogonalLoop=1;jettySize=auto;html=1;exitX=1;exitY=1;exitDx=0;exitDy=0;entryX=0;entryY=0.5;entryDx=0;entryDy=0;dashed=1;" edge="1" parent="Vn5EulRnXRKcgzjqo5Ll-1" source="Vn5EulRnXRKcgzjqo5Ll-49" target="Vn5EulRnXRKcgzjqo5Ll-40">
          <mxGeometry relative="1" as="geometry">
            <Array as="points">
              <mxPoint x="968" y="680" />
            </Array>
          </mxGeometry>
        </mxCell>
        <mxCell id="Vn5EulRnXRKcgzjqo5Ll-49" value="Config&lt;br&gt;&lt;font color=&quot;#00994d&quot;&gt;保单配置&lt;/font&gt;" style="ellipse;whiteSpace=wrap;html=1;aspect=fixed;" vertex="1" parent="Vn5EulRnXRKcgzjqo5Ll-1">
          <mxGeometry x="900" y="520" width="80" height="80" as="geometry" />
        </mxCell>
        <mxCell id="Vn5EulRnXRKcgzjqo5Ll-50" style="edgeStyle=orthogonalEdgeStyle;rounded=0;orthogonalLoop=1;jettySize=auto;html=1;exitX=0;exitY=0;exitDx=0;exitDy=0;entryX=1;entryY=0;entryDx=0;entryDy=0;" edge="1" parent="Vn5EulRnXRKcgzjqo5Ll-1" source="Vn5EulRnXRKcgzjqo5Ll-61" target="Vn5EulRnXRKcgzjqo5Ll-21">
          <mxGeometry relative="1" as="geometry">
            <Array as="points">
              <mxPoint x="1562" y="410" />
              <mxPoint x="690" y="410" />
              <mxPoint x="690" y="652" />
            </Array>
            <mxPoint x="790" y="640" as="targetPoint" />
          </mxGeometry>
        </mxCell>
        <mxCell id="Vn5EulRnXRKcgzjqo5Ll-51" value="SETTLE" style="edgeLabel;html=1;align=center;verticalAlign=middle;resizable=0;points=[];" vertex="1" connectable="0" parent="Vn5EulRnXRKcgzjqo5Ll-50">
          <mxGeometry x="0.073" y="-1" relative="1" as="geometry">
            <mxPoint x="454" as="offset" />
          </mxGeometry>
        </mxCell>
        <mxCell id="Vn5EulRnXRKcgzjqo5Ll-52" style="edgeStyle=orthogonalEdgeStyle;rounded=0;orthogonalLoop=1;jettySize=auto;html=1;exitX=1;exitY=0.5;exitDx=0;exitDy=0;entryX=0;entryY=0.5;entryDx=0;entryDy=0;startArrow=classic;startFill=1;" edge="1" parent="Vn5EulRnXRKcgzjqo5Ll-1" source="Vn5EulRnXRKcgzjqo5Ll-61" target="Vn5EulRnXRKcgzjqo5Ll-67">
          <mxGeometry relative="1" as="geometry" />
        </mxCell>
        <mxCell id="Vn5EulRnXRKcgzjqo5Ll-53" value="RELATED&lt;br&gt;n VS n" style="edgeLabel;html=1;align=center;verticalAlign=middle;resizable=0;points=[];" vertex="1" connectable="0" parent="Vn5EulRnXRKcgzjqo5Ll-52">
          <mxGeometry x="-0.0286" y="1" relative="1" as="geometry">
            <mxPoint as="offset" />
          </mxGeometry>
        </mxCell>
        <mxCell id="Vn5EulRnXRKcgzjqo5Ll-54" style="edgeStyle=orthogonalEdgeStyle;rounded=0;orthogonalLoop=1;jettySize=auto;html=1;exitX=0.5;exitY=1;exitDx=0;exitDy=0;" edge="1" parent="Vn5EulRnXRKcgzjqo5Ll-1" source="Vn5EulRnXRKcgzjqo5Ll-61" target="Vn5EulRnXRKcgzjqo5Ll-87">
          <mxGeometry relative="1" as="geometry" />
        </mxCell>
        <mxCell id="Vn5EulRnXRKcgzjqo5Ll-55" value="HAS_INVESTIGATION&lt;br&gt;1 VS n" style="edgeLabel;html=1;align=center;verticalAlign=middle;resizable=0;points=[];" vertex="1" connectable="0" parent="Vn5EulRnXRKcgzjqo5Ll-54">
          <mxGeometry x="0.025" relative="1" as="geometry">
            <mxPoint as="offset" />
          </mxGeometry>
        </mxCell>
        <mxCell id="Vn5EulRnXRKcgzjqo5Ll-56" style="edgeStyle=orthogonalEdgeStyle;rounded=0;orthogonalLoop=1;jettySize=auto;html=1;exitX=0;exitY=0;exitDx=0;exitDy=0;entryX=1;entryY=0;entryDx=0;entryDy=0;" edge="1" parent="Vn5EulRnXRKcgzjqo5Ll-1" source="Vn5EulRnXRKcgzjqo5Ll-61" target="Vn5EulRnXRKcgzjqo5Ll-26">
          <mxGeometry relative="1" as="geometry">
            <Array as="points">
              <mxPoint x="1562" y="410" />
              <mxPoint x="1510" y="410" />
              <mxPoint x="1510" y="270" />
              <mxPoint x="670" y="270" />
              <mxPoint x="670" y="412" />
            </Array>
          </mxGeometry>
        </mxCell>
        <mxCell id="Vn5EulRnXRKcgzjqo5Ll-57" style="edgeStyle=orthogonalEdgeStyle;rounded=0;orthogonalLoop=1;jettySize=auto;html=1;exitX=0;exitY=0;exitDx=0;exitDy=0;entryX=1;entryY=0;entryDx=0;entryDy=0;startArrow=classic;startFill=1;endArrow=none;endFill=0;" edge="1" parent="Vn5EulRnXRKcgzjqo5Ll-1" source="Vn5EulRnXRKcgzjqo5Ll-61" target="Vn5EulRnXRKcgzjqo5Ll-35">
          <mxGeometry relative="1" as="geometry">
            <Array as="points">
              <mxPoint x="1562" y="240" />
              <mxPoint x="618" y="240" />
            </Array>
          </mxGeometry>
        </mxCell>
        <mxCell id="Vn5EulRnXRKcgzjqo5Ll-58" value="&lt;font color=&quot;#ff0000&quot;&gt;一个赔案的服务代理人是否是固定的一个&lt;/font&gt;" style="edgeLabel;html=1;align=center;verticalAlign=middle;resizable=0;points=[];" vertex="1" connectable="0" parent="Vn5EulRnXRKcgzjqo5Ll-57">
          <mxGeometry x="-0.2537" y="-1" relative="1" as="geometry">
            <mxPoint as="offset" />
          </mxGeometry>
        </mxCell>
        <mxCell id="3YV5C5tq33uIkFS6HMni-6" value="SERVE" style="edgeLabel;html=1;align=center;verticalAlign=middle;resizable=0;points=[];" vertex="1" connectable="0" parent="Vn5EulRnXRKcgzjqo5Ll-57">
          <mxGeometry x="-0.5099" y="2" relative="1" as="geometry">
            <mxPoint y="-2" as="offset" />
          </mxGeometry>
        </mxCell>
        <mxCell id="Vn5EulRnXRKcgzjqo5Ll-59" style="edgeStyle=orthogonalEdgeStyle;rounded=0;orthogonalLoop=1;jettySize=auto;html=1;exitX=0;exitY=1;exitDx=0;exitDy=0;entryX=1;entryY=1;entryDx=0;entryDy=0;" edge="1" parent="Vn5EulRnXRKcgzjqo5Ll-1" source="Vn5EulRnXRKcgzjqo5Ll-61" target="Vn5EulRnXRKcgzjqo5Ll-37">
          <mxGeometry relative="1" as="geometry" />
        </mxCell>
        <mxCell id="Vn5EulRnXRKcgzjqo5Ll-60" value="&lt;font color=&quot;#ff0000&quot;&gt;SETTLE&lt;br&gt;1 vs 1&lt;br&gt;一个赔案只有一个保单对应？&lt;/font&gt;" style="edgeLabel;html=1;align=center;verticalAlign=middle;resizable=0;points=[];" vertex="1" connectable="0" parent="Vn5EulRnXRKcgzjqo5Ll-59">
          <mxGeometry x="-0.0944" y="1" relative="1" as="geometry">
            <mxPoint as="offset" />
          </mxGeometry>
        </mxCell>
        <mxCell id="Vn5EulRnXRKcgzjqo5Ll-61" value="Claim&lt;br&gt;&lt;font color=&quot;#0000ff&quot;&gt;claim_id&lt;/font&gt;" style="ellipse;whiteSpace=wrap;html=1;aspect=fixed;" vertex="1" parent="Vn5EulRnXRKcgzjqo5Ll-1">
          <mxGeometry x="1550" y="400" width="80" height="80" as="geometry" />
        </mxCell>
        <mxCell id="Vn5EulRnXRKcgzjqo5Ll-62" style="edgeStyle=orthogonalEdgeStyle;rounded=0;orthogonalLoop=1;jettySize=auto;html=1;exitX=0.5;exitY=1;exitDx=0;exitDy=0;entryX=0.5;entryY=0;entryDx=0;entryDy=0;" edge="1" parent="Vn5EulRnXRKcgzjqo5Ll-1" source="Vn5EulRnXRKcgzjqo5Ll-67" target="Vn5EulRnXRKcgzjqo5Ll-74">
          <mxGeometry relative="1" as="geometry" />
        </mxCell>
        <mxCell id="Vn5EulRnXRKcgzjqo5Ll-63" value="HAS_DIAGNOSIS&lt;br&gt;is_main&lt;br&gt;1 VS n" style="edgeLabel;html=1;align=center;verticalAlign=middle;resizable=0;points=[];" vertex="1" connectable="0" parent="Vn5EulRnXRKcgzjqo5Ll-62">
          <mxGeometry x="-0.1778" relative="1" as="geometry">
            <mxPoint as="offset" />
          </mxGeometry>
        </mxCell>
        <mxCell id="Vn5EulRnXRKcgzjqo5Ll-64" style="edgeStyle=orthogonalEdgeStyle;rounded=0;orthogonalLoop=1;jettySize=auto;html=1;exitX=1;exitY=0.5;exitDx=0;exitDy=0;entryX=0;entryY=0.5;entryDx=0;entryDy=0;" edge="1" parent="Vn5EulRnXRKcgzjqo5Ll-1" source="Vn5EulRnXRKcgzjqo5Ll-67" target="Vn5EulRnXRKcgzjqo5Ll-75">
          <mxGeometry relative="1" as="geometry" />
        </mxCell>
        <mxCell id="Vn5EulRnXRKcgzjqo5Ll-65" style="edgeStyle=orthogonalEdgeStyle;rounded=0;orthogonalLoop=1;jettySize=auto;html=1;exitX=0.5;exitY=0;exitDx=0;exitDy=0;entryX=0.5;entryY=1;entryDx=0;entryDy=0;" edge="1" parent="Vn5EulRnXRKcgzjqo5Ll-1" source="Vn5EulRnXRKcgzjqo5Ll-67" target="Vn5EulRnXRKcgzjqo5Ll-80">
          <mxGeometry relative="1" as="geometry">
            <mxPoint x="1740" y="310" as="targetPoint" />
          </mxGeometry>
        </mxCell>
        <mxCell id="Vn5EulRnXRKcgzjqo5Ll-66" value="HAS&lt;br&gt;1 VS n or n VS n" style="edgeLabel;html=1;align=center;verticalAlign=middle;resizable=0;points=[];" vertex="1" connectable="0" parent="Vn5EulRnXRKcgzjqo5Ll-65">
          <mxGeometry x="-0.0455" y="-1" relative="1" as="geometry">
            <mxPoint as="offset" />
          </mxGeometry>
        </mxCell>
        <mxCell id="Vn5EulRnXRKcgzjqo5Ll-67" value="Admission&lt;br&gt;&lt;font color=&quot;#0000ff&quot;&gt;admin_id&lt;/font&gt;" style="ellipse;whiteSpace=wrap;html=1;aspect=fixed;" vertex="1" parent="Vn5EulRnXRKcgzjqo5Ll-1">
          <mxGeometry x="1700" y="400" width="80" height="80" as="geometry" />
        </mxCell>
        <mxCell id="Vn5EulRnXRKcgzjqo5Ll-68" style="edgeStyle=orthogonalEdgeStyle;rounded=0;orthogonalLoop=1;jettySize=auto;html=1;exitX=1;exitY=0.5;exitDx=0;exitDy=0;" edge="1" parent="Vn5EulRnXRKcgzjqo5Ll-1" source="Vn5EulRnXRKcgzjqo5Ll-73" target="Vn5EulRnXRKcgzjqo5Ll-61">
          <mxGeometry relative="1" as="geometry" />
        </mxCell>
        <mxCell id="3YV5C5tq33uIkFS6HMni-12" value="SETTLE" style="edgeLabel;html=1;align=center;verticalAlign=middle;resizable=0;points=[];" vertex="1" connectable="0" parent="Vn5EulRnXRKcgzjqo5Ll-68">
          <mxGeometry x="-0.4992" y="-1" relative="1" as="geometry">
            <mxPoint as="offset" />
          </mxGeometry>
        </mxCell>
        <mxCell id="Vn5EulRnXRKcgzjqo5Ll-69" style="edgeStyle=orthogonalEdgeStyle;rounded=0;orthogonalLoop=1;jettySize=auto;html=1;exitX=0.5;exitY=1;exitDx=0;exitDy=0;entryX=0.5;entryY=0;entryDx=0;entryDy=0;" edge="1" parent="Vn5EulRnXRKcgzjqo5Ll-1" source="Vn5EulRnXRKcgzjqo5Ll-73" target="Vn5EulRnXRKcgzjqo5Ll-39">
          <mxGeometry relative="1" as="geometry" />
        </mxCell>
        <mxCell id="3YV5C5tq33uIkFS6HMni-10" value="SETTLE" style="edgeLabel;html=1;align=center;verticalAlign=middle;resizable=0;points=[];" vertex="1" connectable="0" parent="Vn5EulRnXRKcgzjqo5Ll-69">
          <mxGeometry x="-0.0061" y="-3" relative="1" as="geometry">
            <mxPoint as="offset" />
          </mxGeometry>
        </mxCell>
        <mxCell id="Vn5EulRnXRKcgzjqo5Ll-70" style="edgeStyle=orthogonalEdgeStyle;rounded=0;orthogonalLoop=1;jettySize=auto;html=1;exitX=0;exitY=0.5;exitDx=0;exitDy=0;" edge="1" parent="Vn5EulRnXRKcgzjqo5Ll-1" source="Vn5EulRnXRKcgzjqo5Ll-73" target="Vn5EulRnXRKcgzjqo5Ll-37">
          <mxGeometry relative="1" as="geometry" />
        </mxCell>
        <mxCell id="3YV5C5tq33uIkFS6HMni-11" value="SETTLE" style="edgeLabel;html=1;align=center;verticalAlign=middle;resizable=0;points=[];" vertex="1" connectable="0" parent="Vn5EulRnXRKcgzjqo5Ll-70">
          <mxGeometry x="-0.2813" y="-1" relative="1" as="geometry">
            <mxPoint as="offset" />
          </mxGeometry>
        </mxCell>
        <mxCell id="Vn5EulRnXRKcgzjqo5Ll-71" style="edgeStyle=orthogonalEdgeStyle;rounded=0;orthogonalLoop=1;jettySize=auto;html=1;exitX=0.5;exitY=1;exitDx=0;exitDy=0;entryX=1;entryY=0.5;entryDx=0;entryDy=0;" edge="1" parent="Vn5EulRnXRKcgzjqo5Ll-1" source="Vn5EulRnXRKcgzjqo5Ll-73" target="Vn5EulRnXRKcgzjqo5Ll-40">
          <mxGeometry relative="1" as="geometry">
            <Array as="points">
              <mxPoint x="1240" y="150" />
              <mxPoint x="1240" y="680" />
            </Array>
          </mxGeometry>
        </mxCell>
        <mxCell id="3YV5C5tq33uIkFS6HMni-9" value="SETTLE" style="edgeLabel;html=1;align=center;verticalAlign=middle;resizable=0;points=[];" vertex="1" connectable="0" parent="Vn5EulRnXRKcgzjqo5Ll-71">
          <mxGeometry x="-0.234" y="1" relative="1" as="geometry">
            <mxPoint as="offset" />
          </mxGeometry>
        </mxCell>
        <mxCell id="Vn5EulRnXRKcgzjqo5Ll-73" value="LiabilityPay" style="ellipse;whiteSpace=wrap;html=1;aspect=fixed;" vertex="1" parent="Vn5EulRnXRKcgzjqo5Ll-1">
          <mxGeometry x="1201" y="70" width="80" height="80" as="geometry" />
        </mxCell>
        <mxCell id="Vn5EulRnXRKcgzjqo5Ll-74" value="Diagnosis" style="ellipse;whiteSpace=wrap;html=1;aspect=fixed;fillColor=#e1d5e7;strokeColor=#9673a6;" vertex="1" parent="Vn5EulRnXRKcgzjqo5Ll-1">
          <mxGeometry x="1700" y="570" width="80" height="80" as="geometry" />
        </mxCell>
        <mxCell id="Vn5EulRnXRKcgzjqo5Ll-75" value="Surgery" style="ellipse;whiteSpace=wrap;html=1;aspect=fixed;fillColor=#e1d5e7;strokeColor=#9673a6;" vertex="1" parent="Vn5EulRnXRKcgzjqo5Ll-1">
          <mxGeometry x="1870" y="400" width="80" height="80" as="geometry" />
        </mxCell>
        <mxCell id="3YV5C5tq33uIkFS6HMni-2" style="edgeStyle=orthogonalEdgeStyle;rounded=0;orthogonalLoop=1;jettySize=auto;html=1;exitX=1;exitY=0.5;exitDx=0;exitDy=0;entryX=0.5;entryY=0;entryDx=0;entryDy=0;" edge="1" parent="Vn5EulRnXRKcgzjqo5Ll-1" source="Vn5EulRnXRKcgzjqo5Ll-76" target="Vn5EulRnXRKcgzjqo5Ll-90">
          <mxGeometry relative="1" as="geometry">
            <Array as="points">
              <mxPoint x="1970" y="610" />
              <mxPoint x="1970" y="10" />
              <mxPoint x="440" y="10" />
            </Array>
          </mxGeometry>
        </mxCell>
        <mxCell id="Vn5EulRnXRKcgzjqo5Ll-76" value="Hospital" style="ellipse;whiteSpace=wrap;html=1;aspect=fixed;fillColor=#e1d5e7;strokeColor=#9673a6;" vertex="1" parent="Vn5EulRnXRKcgzjqo5Ll-1">
          <mxGeometry x="1870" y="570" width="80" height="80" as="geometry" />
        </mxCell>
        <mxCell id="Vn5EulRnXRKcgzjqo5Ll-77" value="" style="endArrow=classic;html=1;rounded=0;entryX=0;entryY=0;entryDx=0;entryDy=0;exitX=1;exitY=1;exitDx=0;exitDy=0;" edge="1" parent="Vn5EulRnXRKcgzjqo5Ll-1" source="Vn5EulRnXRKcgzjqo5Ll-67" target="Vn5EulRnXRKcgzjqo5Ll-76">
          <mxGeometry width="50" height="50" relative="1" as="geometry">
            <mxPoint x="1320" y="580" as="sourcePoint" />
            <mxPoint x="1370" y="530" as="targetPoint" />
          </mxGeometry>
        </mxCell>
        <mxCell id="3YV5C5tq33uIkFS6HMni-0" value="LOCATE_IN" style="edgeLabel;html=1;align=center;verticalAlign=middle;resizable=0;points=[];" vertex="1" connectable="0" parent="Vn5EulRnXRKcgzjqo5Ll-77">
          <mxGeometry x="-0.0617" y="1" relative="1" as="geometry">
            <mxPoint as="offset" />
          </mxGeometry>
        </mxCell>
        <mxCell id="Vn5EulRnXRKcgzjqo5Ll-78" style="edgeStyle=orthogonalEdgeStyle;rounded=0;orthogonalLoop=1;jettySize=auto;html=1;exitX=1;exitY=0.5;exitDx=0;exitDy=0;" edge="1" parent="Vn5EulRnXRKcgzjqo5Ll-1" source="Vn5EulRnXRKcgzjqo5Ll-80" target="Vn5EulRnXRKcgzjqo5Ll-81">
          <mxGeometry relative="1" as="geometry" />
        </mxCell>
        <mxCell id="3YV5C5tq33uIkFS6HMni-4" value="HAS" style="edgeLabel;html=1;align=center;verticalAlign=middle;resizable=0;points=[];" vertex="1" connectable="0" parent="Vn5EulRnXRKcgzjqo5Ll-78">
          <mxGeometry x="0.4" relative="1" as="geometry">
            <mxPoint as="offset" />
          </mxGeometry>
        </mxCell>
        <mxCell id="Vn5EulRnXRKcgzjqo5Ll-79" style="edgeStyle=orthogonalEdgeStyle;rounded=0;orthogonalLoop=1;jettySize=auto;html=1;exitX=1;exitY=0.5;exitDx=0;exitDy=0;entryX=0;entryY=0.5;entryDx=0;entryDy=0;" edge="1" parent="Vn5EulRnXRKcgzjqo5Ll-1" source="Vn5EulRnXRKcgzjqo5Ll-80" target="Vn5EulRnXRKcgzjqo5Ll-83">
          <mxGeometry relative="1" as="geometry" />
        </mxCell>
        <mxCell id="3YV5C5tq33uIkFS6HMni-3" value="HAS" style="edgeLabel;html=1;align=center;verticalAlign=middle;resizable=0;points=[];" vertex="1" connectable="0" parent="Vn5EulRnXRKcgzjqo5Ll-79">
          <mxGeometry x="-0.0091" y="1" relative="1" as="geometry">
            <mxPoint as="offset" />
          </mxGeometry>
        </mxCell>
        <mxCell id="Vn5EulRnXRKcgzjqo5Ll-80" value="Invoice&lt;br&gt;&lt;font color=&quot;#0000ff&quot;&gt;inv_id&lt;/font&gt;" style="ellipse;whiteSpace=wrap;html=1;aspect=fixed;" vertex="1" parent="Vn5EulRnXRKcgzjqo5Ll-1">
          <mxGeometry x="1700" y="100" width="80" height="80" as="geometry" />
        </mxCell>
        <mxCell id="Vn5EulRnXRKcgzjqo5Ll-81" value="Item&lt;br&gt;&lt;font color=&quot;#0000ff&quot;&gt;item_id&lt;/font&gt;" style="ellipse;whiteSpace=wrap;html=1;aspect=fixed;" vertex="1" parent="Vn5EulRnXRKcgzjqo5Ll-1">
          <mxGeometry x="1870" y="100" width="80" height="80" as="geometry" />
        </mxCell>
        <mxCell id="Vn5EulRnXRKcgzjqo5Ll-82" style="edgeStyle=orthogonalEdgeStyle;rounded=0;orthogonalLoop=1;jettySize=auto;html=1;exitX=0.5;exitY=0;exitDx=0;exitDy=0;entryX=0.5;entryY=1;entryDx=0;entryDy=0;" edge="1" parent="Vn5EulRnXRKcgzjqo5Ll-1" source="Vn5EulRnXRKcgzjqo5Ll-83" target="Vn5EulRnXRKcgzjqo5Ll-81">
          <mxGeometry relative="1" as="geometry" />
        </mxCell>
        <mxCell id="3YV5C5tq33uIkFS6HMni-5" value="HAS" style="edgeLabel;html=1;align=center;verticalAlign=middle;resizable=0;points=[];" vertex="1" connectable="0" parent="Vn5EulRnXRKcgzjqo5Ll-82">
          <mxGeometry x="-0.04" relative="1" as="geometry">
            <mxPoint as="offset" />
          </mxGeometry>
        </mxCell>
        <mxCell id="Vn5EulRnXRKcgzjqo5Ll-83" value="CategoricalFee&lt;br&gt;&lt;font color=&quot;#0000ff&quot;&gt;cf_id&lt;/font&gt;" style="ellipse;whiteSpace=wrap;html=1;aspect=fixed;" vertex="1" parent="Vn5EulRnXRKcgzjqo5Ll-1">
          <mxGeometry x="1870" y="230" width="80" height="80" as="geometry" />
        </mxCell>
        <mxCell id="Vn5EulRnXRKcgzjqo5Ll-84" style="edgeStyle=orthogonalEdgeStyle;rounded=0;orthogonalLoop=1;jettySize=auto;html=1;exitX=0;exitY=0;exitDx=0;exitDy=0;entryX=0;entryY=1;entryDx=0;entryDy=0;fillColor=#d5e8d4;strokeColor=#82b366;strokeWidth=3;" edge="1" parent="Vn5EulRnXRKcgzjqo5Ll-1" source="Vn5EulRnXRKcgzjqo5Ll-21" target="Vn5EulRnXRKcgzjqo5Ll-21">
          <mxGeometry relative="1" as="geometry">
            <Array as="points">
              <mxPoint x="460" y="652" />
              <mxPoint x="460" y="708" />
            </Array>
          </mxGeometry>
        </mxCell>
        <mxCell id="Vn5EulRnXRKcgzjqo5Ll-85" value="HAS_RELATION" style="edgeLabel;html=1;align=center;verticalAlign=middle;resizable=0;points=[];" vertex="1" connectable="0" parent="Vn5EulRnXRKcgzjqo5Ll-84">
          <mxGeometry x="0.5882" y="-1" relative="1" as="geometry">
            <mxPoint as="offset" />
          </mxGeometry>
        </mxCell>
        <mxCell id="Vn5EulRnXRKcgzjqo5Ll-86" value="1 VS n" style="edgeLabel;html=1;align=center;verticalAlign=middle;resizable=0;points=[];" vertex="1" connectable="0" parent="Vn5EulRnXRKcgzjqo5Ll-84">
          <mxGeometry x="-0.5939" relative="1" as="geometry">
            <mxPoint as="offset" />
          </mxGeometry>
        </mxCell>
        <mxCell id="3YV5C5tq33uIkFS6HMni-13" style="edgeStyle=orthogonalEdgeStyle;rounded=0;orthogonalLoop=1;jettySize=auto;html=1;exitX=0;exitY=0.5;exitDx=0;exitDy=0;entryX=1;entryY=1;entryDx=0;entryDy=0;" edge="1" parent="Vn5EulRnXRKcgzjqo5Ll-1" source="Vn5EulRnXRKcgzjqo5Ll-87" target="Vn5EulRnXRKcgzjqo5Ll-37">
          <mxGeometry relative="1" as="geometry">
            <Array as="points">
              <mxPoint x="1370" y="680" />
              <mxPoint x="1370" y="468" />
            </Array>
          </mxGeometry>
        </mxCell>
        <mxCell id="3YV5C5tq33uIkFS6HMni-14" value="HAS_TARGET" style="edgeLabel;html=1;align=center;verticalAlign=middle;resizable=0;points=[];" vertex="1" connectable="0" parent="3YV5C5tq33uIkFS6HMni-13">
          <mxGeometry x="-0.6799" y="1" relative="1" as="geometry">
            <mxPoint as="offset" />
          </mxGeometry>
        </mxCell>
        <mxCell id="3YV5C5tq33uIkFS6HMni-17" style="edgeStyle=orthogonalEdgeStyle;rounded=0;orthogonalLoop=1;jettySize=auto;html=1;exitX=1;exitY=0.5;exitDx=0;exitDy=0;entryX=0.5;entryY=1;entryDx=0;entryDy=0;" edge="1" parent="Vn5EulRnXRKcgzjqo5Ll-1" source="Vn5EulRnXRKcgzjqo5Ll-87" target="Vn5EulRnXRKcgzjqo5Ll-76">
          <mxGeometry relative="1" as="geometry" />
        </mxCell>
        <mxCell id="3YV5C5tq33uIkFS6HMni-18" value="HAS_TARGET" style="edgeLabel;html=1;align=center;verticalAlign=middle;resizable=0;points=[];" vertex="1" connectable="0" parent="3YV5C5tq33uIkFS6HMni-17">
          <mxGeometry x="-0.1194" y="-1" relative="1" as="geometry">
            <mxPoint x="1" as="offset" />
          </mxGeometry>
        </mxCell>
        <mxCell id="Vn5EulRnXRKcgzjqo5Ll-87" value="Investigation&lt;br&gt;&lt;font color=&quot;#0000ff&quot;&gt;invest_id&lt;/font&gt;" style="ellipse;whiteSpace=wrap;html=1;aspect=fixed;" vertex="1" parent="Vn5EulRnXRKcgzjqo5Ll-1">
          <mxGeometry x="1550" y="640" width="80" height="80" as="geometry" />
        </mxCell>
        <mxCell id="Vn5EulRnXRKcgzjqo5Ll-88" style="edgeStyle=orthogonalEdgeStyle;rounded=0;orthogonalLoop=1;jettySize=auto;html=1;exitX=0;exitY=0.5;exitDx=0;exitDy=0;entryX=1;entryY=0.5;entryDx=0;entryDy=0;" edge="1" parent="Vn5EulRnXRKcgzjqo5Ll-1" source="Vn5EulRnXRKcgzjqo5Ll-90" target="Vn5EulRnXRKcgzjqo5Ll-91">
          <mxGeometry relative="1" as="geometry" />
        </mxCell>
        <mxCell id="Vn5EulRnXRKcgzjqo5Ll-89" value="SUB_ORGANIZATION" style="edgeLabel;html=1;align=center;verticalAlign=middle;resizable=0;points=[];" vertex="1" connectable="0" parent="Vn5EulRnXRKcgzjqo5Ll-88">
          <mxGeometry x="-0.06" relative="1" as="geometry">
            <mxPoint as="offset" />
          </mxGeometry>
        </mxCell>
        <mxCell id="Vn5EulRnXRKcgzjqo5Ll-90" value="Company&lt;br&gt;&lt;font color=&quot;#0000ff&quot;&gt;company_id&lt;/font&gt;" style="ellipse;whiteSpace=wrap;html=1;aspect=fixed;fillColor=#e1d5e7;strokeColor=#9673a6;dashed=1;" vertex="1" parent="Vn5EulRnXRKcgzjqo5Ll-1">
          <mxGeometry x="400" y="55" width="80" height="80" as="geometry" />
        </mxCell>
        <mxCell id="Vn5EulRnXRKcgzjqo5Ll-91" value="Department&lt;br&gt;&lt;font color=&quot;#0000ff&quot;&gt;department_id&lt;/font&gt;" style="ellipse;whiteSpace=wrap;html=1;aspect=fixed;fillColor=#e1d5e7;strokeColor=#9673a6;dashed=1;" vertex="1" parent="Vn5EulRnXRKcgzjqo5Ll-1">
          <mxGeometry x="160" y="55" width="80" height="80" as="geometry" />
        </mxCell>
        <mxCell id="Vn5EulRnXRKcgzjqo5Ll-92" style="edgeStyle=orthogonalEdgeStyle;rounded=0;orthogonalLoop=1;jettySize=auto;html=1;exitX=1;exitY=0;exitDx=0;exitDy=0;entryX=1;entryY=1;entryDx=0;entryDy=0;" edge="1" parent="Vn5EulRnXRKcgzjqo5Ll-1" source="Vn5EulRnXRKcgzjqo5Ll-90" target="Vn5EulRnXRKcgzjqo5Ll-90">
          <mxGeometry relative="1" as="geometry">
            <Array as="points">
              <mxPoint x="468" y="35" />
              <mxPoint x="550" y="35" />
              <mxPoint x="550" y="155" />
              <mxPoint x="468" y="155" />
            </Array>
          </mxGeometry>
        </mxCell>
        <mxCell id="Vn5EulRnXRKcgzjqo5Ll-93" value="SUB_ORGANIZATION" style="edgeLabel;html=1;align=center;verticalAlign=middle;resizable=0;points=[];" vertex="1" connectable="0" parent="Vn5EulRnXRKcgzjqo5Ll-92">
          <mxGeometry x="0.0081" y="2" relative="1" as="geometry">
            <mxPoint x="-2" y="-2" as="offset" />
          </mxGeometry>
        </mxCell>
        <mxCell id="Vn5EulRnXRKcgzjqo5Ll-94" style="edgeStyle=orthogonalEdgeStyle;rounded=0;orthogonalLoop=1;jettySize=auto;html=1;exitX=0.5;exitY=0;exitDx=0;exitDy=0;entryX=0.5;entryY=1;entryDx=0;entryDy=0;fillColor=#d5e8d4;strokeColor=#82b366;strokeWidth=3;" edge="1" parent="Vn5EulRnXRKcgzjqo5Ll-1" source="Vn5EulRnXRKcgzjqo5Ll-96" target="Vn5EulRnXRKcgzjqo5Ll-13">
          <mxGeometry relative="1" as="geometry" />
        </mxCell>
        <mxCell id="Vn5EulRnXRKcgzjqo5Ll-95" value="HAS_MEMBER" style="edgeLabel;html=1;align=center;verticalAlign=middle;resizable=0;points=[];" vertex="1" connectable="0" parent="Vn5EulRnXRKcgzjqo5Ll-94">
          <mxGeometry x="-0.2519" y="-1" relative="1" as="geometry">
            <mxPoint as="offset" />
          </mxGeometry>
        </mxCell>
        <mxCell id="Vn5EulRnXRKcgzjqo5Ll-96" value="Family" style="ellipse;whiteSpace=wrap;html=1;aspect=fixed;fillColor=#dae8fc;strokeColor=#6c8ebf;" vertex="1" parent="Vn5EulRnXRKcgzjqo5Ll-1">
          <mxGeometry x="150" y="790" width="80" height="80" as="geometry" />
        </mxCell>
        <mxCell id="Vn5EulRnXRKcgzjqo5Ll-97" style="edgeStyle=orthogonalEdgeStyle;rounded=0;orthogonalLoop=1;jettySize=auto;html=1;exitX=0.5;exitY=1;exitDx=0;exitDy=0;entryX=0;entryY=0.5;entryDx=0;entryDy=0;" edge="1" parent="Vn5EulRnXRKcgzjqo5Ll-1" source="Vn5EulRnXRKcgzjqo5Ll-98" target="Vn5EulRnXRKcgzjqo5Ll-37">
          <mxGeometry relative="1" as="geometry" />
        </mxCell>
        <mxCell id="Vn5EulRnXRKcgzjqo5Ll-98" value="AppliedPolicy" style="ellipse;whiteSpace=wrap;html=1;aspect=fixed;dashed=1;" vertex="1" parent="Vn5EulRnXRKcgzjqo5Ll-1">
          <mxGeometry x="780" y="120" width="80" height="80" as="geometry" />
        </mxCell>
        <mxCell id="Vn5EulRnXRKcgzjqo5Ll-99" value="WithdrewClaim&lt;br&gt;&lt;font color=&quot;#0000ff&quot;&gt;claim_id&lt;/font&gt;" style="ellipse;whiteSpace=wrap;html=1;aspect=fixed;dashed=1;" vertex="1" parent="Vn5EulRnXRKcgzjqo5Ll-1">
          <mxGeometry x="1430" y="505" width="80" height="80" as="geometry" />
        </mxCell>
        <mxCell id="Vn5EulRnXRKcgzjqo5Ll-100" value="" style="endArrow=classic;startArrow=classic;html=1;rounded=0;entryX=0;entryY=1;entryDx=0;entryDy=0;exitX=1;exitY=0;exitDx=0;exitDy=0;dashed=1;dashPattern=8 8;" edge="1" parent="Vn5EulRnXRKcgzjqo5Ll-1" source="Vn5EulRnXRKcgzjqo5Ll-99" target="Vn5EulRnXRKcgzjqo5Ll-61">
          <mxGeometry width="50" height="50" relative="1" as="geometry">
            <mxPoint x="1150" y="610" as="sourcePoint" />
            <mxPoint x="1200" y="560" as="targetPoint" />
          </mxGeometry>
        </mxCell>
        <mxCell id="Vn5EulRnXRKcgzjqo5Ll-101" value="" style="endArrow=classic;startArrow=classic;html=1;rounded=0;entryX=1;entryY=1;entryDx=0;entryDy=0;exitX=0;exitY=0;exitDx=0;exitDy=0;dashed=1;dashPattern=8 8;" edge="1" parent="Vn5EulRnXRKcgzjqo5Ll-1" source="Vn5EulRnXRKcgzjqo5Ll-37" target="Vn5EulRnXRKcgzjqo5Ll-98">
          <mxGeometry width="50" height="50" relative="1" as="geometry">
            <mxPoint x="1328" y="527" as="sourcePoint" />
            <mxPoint x="1392" y="478" as="targetPoint" />
          </mxGeometry>
        </mxCell>
        <mxCell id="Vn5EulRnXRKcgzjqo5Ll-102" value="Q:投保单相对保单而言，&lt;br&gt;有多少字段是可以提供的" style="edgeLabel;html=1;align=center;verticalAlign=middle;resizable=0;points=[];fontColor=#FF0000;" vertex="1" connectable="0" parent="Vn5EulRnXRKcgzjqo5Ll-101">
          <mxGeometry x="0.1502" y="-1" relative="1" as="geometry">
            <mxPoint x="-166" y="-123" as="offset" />
          </mxGeometry>
        </mxCell>
        <mxCell id="Vn5EulRnXRKcgzjqo5Ll-103" value="PolicyChange" style="ellipse;whiteSpace=wrap;html=1;aspect=fixed;fillColor=#ffe6cc;strokeColor=#d79b00;" vertex="1" parent="Vn5EulRnXRKcgzjqo5Ll-1">
          <mxGeometry x="950" y="980" width="80" height="80" as="geometry" />
        </mxCell>
        <mxCell id="Vn5EulRnXRKcgzjqo5Ll-104" value="LiabilityChange" style="ellipse;whiteSpace=wrap;html=1;aspect=fixed;fillColor=#ffe6cc;strokeColor=#d79b00;" vertex="1" parent="Vn5EulRnXRKcgzjqo5Ll-1">
          <mxGeometry x="1090" y="980" width="80" height="80" as="geometry" />
        </mxCell>
        <mxCell id="Vn5EulRnXRKcgzjqo5Ll-105" style="edgeStyle=orthogonalEdgeStyle;rounded=0;orthogonalLoop=1;jettySize=auto;html=1;exitX=0.5;exitY=0;exitDx=0;exitDy=0;strokeWidth=3;strokeColor=#FF0000;" edge="1" parent="Vn5EulRnXRKcgzjqo5Ll-1" source="Vn5EulRnXRKcgzjqo5Ll-106">
          <mxGeometry relative="1" as="geometry">
            <Array as="points">
              <mxPoint x="850" y="790" />
              <mxPoint x="940" y="790" />
            </Array>
            <mxPoint x="940" y="600" as="targetPoint" />
          </mxGeometry>
        </mxCell>
        <mxCell id="Vn5EulRnXRKcgzjqo5Ll-106" value="不实告知" style="ellipse;whiteSpace=wrap;html=1;aspect=fixed;fillColor=#ffe6cc;strokeColor=#d79b00;" vertex="1" parent="Vn5EulRnXRKcgzjqo5Ll-1">
          <mxGeometry x="810" y="980" width="80" height="80" as="geometry" />
        </mxCell>
        <mxCell id="Vn5EulRnXRKcgzjqo5Ll-109" style="edgeStyle=orthogonalEdgeStyle;rounded=0;orthogonalLoop=1;jettySize=auto;html=1;exitX=0.5;exitY=1;exitDx=0;exitDy=0;entryX=0.5;entryY=1;entryDx=0;entryDy=0;strokeWidth=3;strokeColor=#FF0000;" edge="1" parent="Vn5EulRnXRKcgzjqo5Ll-1" source="Vn5EulRnXRKcgzjqo5Ll-111" target="Vn5EulRnXRKcgzjqo5Ll-104">
          <mxGeometry relative="1" as="geometry" />
        </mxCell>
        <mxCell id="Vn5EulRnXRKcgzjqo5Ll-110" style="edgeStyle=orthogonalEdgeStyle;rounded=0;orthogonalLoop=1;jettySize=auto;html=1;exitX=0.5;exitY=1;exitDx=0;exitDy=0;entryX=0.5;entryY=1;entryDx=0;entryDy=0;strokeWidth=3;strokeColor=#FF0000;" edge="1" parent="Vn5EulRnXRKcgzjqo5Ll-1" source="Vn5EulRnXRKcgzjqo5Ll-111" target="Vn5EulRnXRKcgzjqo5Ll-103">
          <mxGeometry relative="1" as="geometry" />
        </mxCell>
        <mxCell id="Vn5EulRnXRKcgzjqo5Ll-111" value="核保" style="ellipse;whiteSpace=wrap;html=1;aspect=fixed;fillColor=#ffe6cc;strokeColor=#d79b00;" vertex="1" parent="Vn5EulRnXRKcgzjqo5Ll-1">
          <mxGeometry x="1230" y="980" width="80" height="80" as="geometry" />
        </mxCell>
        <mxCell id="Vn5EulRnXRKcgzjqo5Ll-112" value="保全" style="text;html=1;strokeColor=none;fillColor=none;align=center;verticalAlign=middle;whiteSpace=wrap;rounded=0;" vertex="1" parent="Vn5EulRnXRKcgzjqo5Ll-1">
          <mxGeometry x="1030" y="1005" width="60" height="30" as="geometry" />
        </mxCell>
        <mxCell id="Vn5EulRnXRKcgzjqo5Ll-113" value="Q: 发票是否集中在某一次就诊下" style="text;html=1;strokeColor=none;fillColor=none;align=center;verticalAlign=middle;whiteSpace=wrap;rounded=0;fontColor=#FF0000;" vertex="1" parent="Vn5EulRnXRKcgzjqo5Ll-1">
          <mxGeometry x="1670" y="200" width="140" height="30" as="geometry" />
        </mxCell>
        <mxCell id="Vn5EulRnXRKcgzjqo5Ll-114" value="Q: 投被保人是否可以变更&lt;br&gt;Q: 其它与当前图业务节点相关的保单变更可能&lt;br&gt;&lt;br&gt;所有的保单变更，是直接生成新的保单配置项，还是在保单配置项上进行变更？" style="text;html=1;strokeColor=none;fillColor=none;align=left;verticalAlign=middle;whiteSpace=wrap;rounded=0;fontColor=#FF0000;" vertex="1" parent="Vn5EulRnXRKcgzjqo5Ll-1">
          <mxGeometry x="700" y="690" width="140" height="130" as="geometry" />
        </mxCell>
        <mxCell id="Vn5EulRnXRKcgzjqo5Ll-115" value="Q:受益人定义在保单配置里面，还是在赔案上" style="edgeLabel;html=1;align=center;verticalAlign=middle;resizable=0;points=[];fontColor=#FF0000;" vertex="1" connectable="0" parent="Vn5EulRnXRKcgzjqo5Ll-1">
          <mxGeometry x="660.0017466487319" y="389.9967083218748" as="geometry">
            <mxPoint x="1" y="-2" as="offset" />
          </mxGeometry>
        </mxCell>
        <mxCell id="Vn5EulRnXRKcgzjqo5Ll-116" value="&lt;div style=&quot;text-align: left;&quot;&gt;Q: 是否所有证件类型/证件号都具有唯一性&lt;br&gt;&lt;/div&gt;&lt;div style=&quot;text-align: left;&quot;&gt;准生证号有可能重复&lt;/div&gt;&lt;div style=&quot;text-align: left;&quot;&gt;Q: 删除操作是否有全量记录，哪怕是物理删除&lt;/div&gt;&lt;div style=&quot;text-align: left;&quot;&gt;Q: 完全无法跟踪的东西的量&lt;/div&gt;" style="edgeLabel;html=1;align=center;verticalAlign=middle;resizable=0;points=[];fontColor=#FF0000;" vertex="1" connectable="0" parent="Vn5EulRnXRKcgzjqo5Ll-1">
          <mxGeometry x="190" y="670" as="geometry" />
        </mxCell>
        <mxCell id="Vn5EulRnXRKcgzjqo5Ll-117" value="Q: 保单配置中，特别约定导致责任与险种通用配置不符，所以直连配置，不算险种" style="text;html=1;strokeColor=none;fillColor=none;align=center;verticalAlign=middle;whiteSpace=wrap;rounded=0;fontColor=#FF0000;" vertex="1" parent="Vn5EulRnXRKcgzjqo5Ll-1">
          <mxGeometry x="970" y="610" width="140" height="60" as="geometry" />
        </mxCell>
        <mxCell id="Vn5EulRnXRKcgzjqo5Ll-118" value="&lt;font color=&quot;#ff0000&quot;&gt;撤销件与其它案件字段是否完全一致？&lt;/font&gt;" style="text;html=1;align=center;verticalAlign=middle;resizable=0;points=[];autosize=1;strokeColor=none;fillColor=none;" vertex="1" parent="Vn5EulRnXRKcgzjqo5Ll-1">
          <mxGeometry x="1400" y="480" width="230" height="30" as="geometry" />
        </mxCell>
        <mxCell id="Vn5EulRnXRKcgzjqo5Ll-119" style="edgeStyle=orthogonalEdgeStyle;rounded=0;orthogonalLoop=1;jettySize=auto;html=1;exitX=0.5;exitY=0;exitDx=0;exitDy=0;entryX=0;entryY=0.5;entryDx=0;entryDy=0;strokeWidth=3;strokeColor=#FF0000;" edge="1" parent="Vn5EulRnXRKcgzjqo5Ll-1" target="Vn5EulRnXRKcgzjqo5Ll-37">
          <mxGeometry relative="1" as="geometry">
            <mxPoint x="850" y="920" as="sourcePoint" />
            <mxPoint x="1170" y="480" as="targetPoint" />
            <Array as="points">
              <mxPoint x="850" y="440" />
            </Array>
          </mxGeometry>
        </mxCell>
        <mxCell id="Vn5EulRnXRKcgzjqo5Ll-120" value="BankAccount&lt;br&gt;&lt;font color=&quot;#0000ff&quot;&gt;bank_code&lt;br&gt;bankcard&lt;/font&gt;" style="ellipse;whiteSpace=wrap;html=1;aspect=fixed;dashed=1;" vertex="1" parent="Vn5EulRnXRKcgzjqo5Ll-1">
          <mxGeometry x="610" y="1050" width="80" height="80" as="geometry" />
        </mxCell>
        <mxCell id="Vn5EulRnXRKcgzjqo5Ll-121" value="Telephone&lt;br&gt;&lt;font color=&quot;#0000ff&quot;&gt;number&lt;br&gt;&lt;/font&gt;" style="ellipse;whiteSpace=wrap;html=1;aspect=fixed;" vertex="1" parent="Vn5EulRnXRKcgzjqo5Ll-1">
          <mxGeometry x="490" y="1050" width="80" height="80" as="geometry" />
        </mxCell>
        <mxCell id="Vn5EulRnXRKcgzjqo5Ll-122" value="Address&lt;br&gt;&lt;font color=&quot;#0000ff&quot;&gt;address&lt;br&gt;&lt;/font&gt;" style="ellipse;whiteSpace=wrap;html=1;aspect=fixed;" vertex="1" parent="Vn5EulRnXRKcgzjqo5Ll-1">
          <mxGeometry x="370" y="1050" width="80" height="80" as="geometry" />
        </mxCell>
        <mxCell id="Vn5EulRnXRKcgzjqo5Ll-123" value="&lt;font color=&quot;#ff0000&quot;&gt;Q: 组织架构层级，数据里面很奇怪&lt;/font&gt;" style="text;html=1;strokeColor=none;fillColor=none;align=center;verticalAlign=middle;whiteSpace=wrap;rounded=0;" vertex="1" parent="Vn5EulRnXRKcgzjqo5Ll-1">
          <mxGeometry x="570" y="40" width="220" height="60" as="geometry" />
        </mxCell>
        <mxCell id="3YV5C5tq33uIkFS6HMni-24" style="edgeStyle=orthogonalEdgeStyle;rounded=0;orthogonalLoop=1;jettySize=auto;html=1;exitX=0.5;exitY=0;exitDx=0;exitDy=0;entryX=1;entryY=0.5;entryDx=0;entryDy=0;startArrow=classic;startFill=1;endArrow=none;endFill=0;strokeWidth=3;strokeColor=#97D077;" edge="1" parent="Vn5EulRnXRKcgzjqo5Ll-1" source="Vn5EulRnXRKcgzjqo5Ll-21" target="Vn5EulRnXRKcgzjqo5Ll-13">
          <mxGeometry relative="1" as="geometry">
            <Array as="points">
              <mxPoint x="310" y="640" />
              <mxPoint x="310" y="560" />
            </Array>
          </mxGeometry>
        </mxCell>
        <mxCell id="3YV5C5tq33uIkFS6HMni-26" value="HAS_ROLE&lt;br&gt;1 vs n" style="edgeLabel;html=1;align=center;verticalAlign=middle;resizable=0;points=[];" vertex="1" connectable="0" parent="3YV5C5tq33uIkFS6HMni-24">
          <mxGeometry x="0.8682" y="1" relative="1" as="geometry">
            <mxPoint x="11" y="-1" as="offset" />
          </mxGeometry>
        </mxCell>
        <mxCell id="Vn5EulRnXRKcgzjqo5Ll-21" value="Customer&lt;br&gt;&lt;font color=&quot;#0000ff&quot;&gt;cust_id&lt;/font&gt;" style="ellipse;whiteSpace=wrap;html=1;aspect=fixed;" vertex="1" parent="Vn5EulRnXRKcgzjqo5Ll-1">
          <mxGeometry x="550" y="640" width="80" height="80" as="geometry" />
        </mxCell>
        <mxCell id="3YV5C5tq33uIkFS6HMni-20" style="edgeStyle=orthogonalEdgeStyle;rounded=0;orthogonalLoop=1;jettySize=auto;html=1;exitX=0.5;exitY=0;exitDx=0;exitDy=0;entryX=1;entryY=0.5;entryDx=0;entryDy=0;" edge="1" parent="Vn5EulRnXRKcgzjqo5Ll-1" source="3YV5C5tq33uIkFS6HMni-19" target="Vn5EulRnXRKcgzjqo5Ll-37">
          <mxGeometry relative="1" as="geometry" />
        </mxCell>
        <mxCell id="3YV5C5tq33uIkFS6HMni-21" style="edgeStyle=orthogonalEdgeStyle;rounded=0;orthogonalLoop=1;jettySize=auto;html=1;exitX=0;exitY=0;exitDx=0;exitDy=0;entryX=1;entryY=0.5;entryDx=0;entryDy=0;" edge="1" parent="Vn5EulRnXRKcgzjqo5Ll-1" source="3YV5C5tq33uIkFS6HMni-19" target="Vn5EulRnXRKcgzjqo5Ll-39">
          <mxGeometry relative="1" as="geometry" />
        </mxCell>
        <mxCell id="3YV5C5tq33uIkFS6HMni-22" style="edgeStyle=orthogonalEdgeStyle;rounded=0;orthogonalLoop=1;jettySize=auto;html=1;exitX=0;exitY=0.5;exitDx=0;exitDy=0;entryX=1;entryY=1;entryDx=0;entryDy=0;" edge="1" parent="Vn5EulRnXRKcgzjqo5Ll-1" source="3YV5C5tq33uIkFS6HMni-19" target="Vn5EulRnXRKcgzjqo5Ll-21">
          <mxGeometry relative="1" as="geometry" />
        </mxCell>
        <mxCell id="3YV5C5tq33uIkFS6HMni-19" value="RideUW&lt;br&gt;核保结论" style="ellipse;whiteSpace=wrap;html=1;aspect=fixed;" vertex="1" parent="Vn5EulRnXRKcgzjqo5Ll-1">
          <mxGeometry x="1230" y="780" width="80" height="80" as="geometry" />
        </mxCell>
      </root>
    </mxGraphModel>
  </diagram>
  <diagram name="V1.1" id="nd8RMGbc4K31Humn0pD5">
    <mxGraphModel dx="954" dy="642" grid="1" gridSize="10" guides="1" tooltips="1" connect="1" arrows="1" fold="1" page="1" pageScale="1" pageWidth="827" pageHeight="1169" math="0" shadow="0">
      <root>
        <mxCell id="LMdJlQjHxz6_B-gr1qmA-0" />
        <mxCell id="LMdJlQjHxz6_B-gr1qmA-1" parent="LMdJlQjHxz6_B-gr1qmA-0" />
        <mxCell id="LMdJlQjHxz6_B-gr1qmA-2" style="edgeStyle=orthogonalEdgeStyle;rounded=0;orthogonalLoop=1;jettySize=auto;html=1;exitX=0.5;exitY=1;exitDx=0;exitDy=0;entryX=0.5;entryY=0;entryDx=0;entryDy=0;" parent="LMdJlQjHxz6_B-gr1qmA-1" source="LMdJlQjHxz6_B-gr1qmA-22" target="LMdJlQjHxz6_B-gr1qmA-128" edge="1">
          <mxGeometry relative="1" as="geometry">
            <Array as="points">
              <mxPoint x="590" y="940" />
              <mxPoint x="530" y="940" />
            </Array>
          </mxGeometry>
        </mxCell>
        <mxCell id="LMdJlQjHxz6_B-gr1qmA-3" style="edgeStyle=orthogonalEdgeStyle;rounded=0;orthogonalLoop=1;jettySize=auto;html=1;exitX=0.5;exitY=1;exitDx=0;exitDy=0;entryX=0.5;entryY=0;entryDx=0;entryDy=0;fillColor=#d5e8d4;strokeColor=#82b366;strokeWidth=3;" parent="LMdJlQjHxz6_B-gr1qmA-1" source="LMdJlQjHxz6_B-gr1qmA-22" target="LMdJlQjHxz6_B-gr1qmA-129" edge="1">
          <mxGeometry relative="1" as="geometry">
            <Array as="points">
              <mxPoint x="590" y="940" />
              <mxPoint x="410" y="940" />
            </Array>
          </mxGeometry>
        </mxCell>
        <mxCell id="LMdJlQjHxz6_B-gr1qmA-4" style="edgeStyle=orthogonalEdgeStyle;rounded=0;orthogonalLoop=1;jettySize=auto;html=1;exitX=0;exitY=0;exitDx=0;exitDy=0;entryX=1;entryY=0.5;entryDx=0;entryDy=0;fillColor=#d5e8d4;strokeColor=#000000;strokeWidth=1;endArrow=none;endFill=0;startArrow=classic;startFill=1;" parent="LMdJlQjHxz6_B-gr1qmA-1" source="LMdJlQjHxz6_B-gr1qmA-31" target="LMdJlQjHxz6_B-gr1qmA-12" edge="1">
          <mxGeometry relative="1" as="geometry">
            <Array as="points">
              <mxPoint x="310" y="292" />
              <mxPoint x="310" y="560" />
            </Array>
          </mxGeometry>
        </mxCell>
        <mxCell id="LMdJlQjHxz6_B-gr1qmA-5" style="edgeStyle=orthogonalEdgeStyle;rounded=0;orthogonalLoop=1;jettySize=auto;html=1;exitX=1;exitY=0;exitDx=0;exitDy=0;entryX=0;entryY=0.5;entryDx=0;entryDy=0;strokeColor=#000000;startArrow=classic;startFill=1;endArrow=none;endFill=0;" parent="LMdJlQjHxz6_B-gr1qmA-1" source="LMdJlQjHxz6_B-gr1qmA-11" target="LMdJlQjHxz6_B-gr1qmA-22" edge="1">
          <mxGeometry relative="1" as="geometry" />
        </mxCell>
        <mxCell id="LMdJlQjHxz6_B-gr1qmA-6" value="HAS_CERT&lt;br&gt;1 vs 1" style="edgeLabel;html=1;align=center;verticalAlign=middle;resizable=0;points=[];" parent="LMdJlQjHxz6_B-gr1qmA-5" vertex="1" connectable="0">
          <mxGeometry x="0.2823" y="1" relative="1" as="geometry">
            <mxPoint as="offset" />
          </mxGeometry>
        </mxCell>
        <mxCell id="LMdJlQjHxz6_B-gr1qmA-7" style="edgeStyle=orthogonalEdgeStyle;rounded=0;orthogonalLoop=1;jettySize=auto;html=1;exitX=0.5;exitY=0;exitDx=0;exitDy=0;entryX=0;entryY=0.5;entryDx=0;entryDy=0;fillColor=#d5e8d4;strokeColor=#000000;strokeWidth=1;endArrow=none;endFill=0;startArrow=classic;startFill=1;" parent="LMdJlQjHxz6_B-gr1qmA-1" source="LMdJlQjHxz6_B-gr1qmA-11" target="LMdJlQjHxz6_B-gr1qmA-31" edge="1">
          <mxGeometry relative="1" as="geometry" />
        </mxCell>
        <mxCell id="LMdJlQjHxz6_B-gr1qmA-8" value="HAS_CERT&lt;br&gt;1 vs n" style="edgeLabel;html=1;align=center;verticalAlign=middle;resizable=0;points=[];" parent="LMdJlQjHxz6_B-gr1qmA-7" vertex="1" connectable="0">
          <mxGeometry x="-0.2882" y="1" relative="1" as="geometry">
            <mxPoint as="offset" />
          </mxGeometry>
        </mxCell>
        <mxCell id="LMdJlQjHxz6_B-gr1qmA-9" style="edgeStyle=orthogonalEdgeStyle;rounded=0;orthogonalLoop=1;jettySize=auto;html=1;exitX=0.5;exitY=1;exitDx=0;exitDy=0;entryX=0;entryY=0.5;entryDx=0;entryDy=0;fillColor=#d5e8d4;strokeColor=#000000;startArrow=classic;startFill=1;endArrow=none;endFill=0;" parent="LMdJlQjHxz6_B-gr1qmA-1" source="LMdJlQjHxz6_B-gr1qmA-11" target="LMdJlQjHxz6_B-gr1qmA-133" edge="1">
          <mxGeometry relative="1" as="geometry" />
        </mxCell>
        <mxCell id="LMdJlQjHxz6_B-gr1qmA-10" value="HAS_CERT" style="edgeLabel;html=1;align=center;verticalAlign=middle;resizable=0;points=[];" parent="LMdJlQjHxz6_B-gr1qmA-9" vertex="1" connectable="0">
          <mxGeometry x="0.4818" y="1" relative="1" as="geometry">
            <mxPoint as="offset" />
          </mxGeometry>
        </mxCell>
        <mxCell id="LMdJlQjHxz6_B-gr1qmA-11" value="CertID&lt;br&gt;证件号+证件类型" style="ellipse;whiteSpace=wrap;html=1;aspect=fixed;" parent="LMdJlQjHxz6_B-gr1qmA-1" vertex="1">
          <mxGeometry x="370" y="520" width="80" height="80" as="geometry" />
        </mxCell>
        <mxCell id="LMdJlQjHxz6_B-gr1qmA-12" value="PERSON" style="ellipse;whiteSpace=wrap;html=1;aspect=fixed;fillColor=#dae8fc;strokeColor=#6c8ebf;" parent="LMdJlQjHxz6_B-gr1qmA-1" vertex="1">
          <mxGeometry x="150" y="520" width="80" height="80" as="geometry" />
        </mxCell>
        <mxCell id="LMdJlQjHxz6_B-gr1qmA-13" style="edgeStyle=orthogonalEdgeStyle;rounded=0;orthogonalLoop=1;jettySize=auto;html=1;exitX=0.5;exitY=1;exitDx=0;exitDy=0;entryX=0.5;entryY=0;entryDx=0;entryDy=0;" parent="LMdJlQjHxz6_B-gr1qmA-1" target="LMdJlQjHxz6_B-gr1qmA-127" edge="1">
          <mxGeometry relative="1" as="geometry">
            <mxPoint x="590" y="600" as="sourcePoint" />
            <Array as="points">
              <mxPoint x="590" y="940" />
              <mxPoint x="650" y="940" />
            </Array>
          </mxGeometry>
        </mxCell>
        <mxCell id="LMdJlQjHxz6_B-gr1qmA-14" style="edgeStyle=orthogonalEdgeStyle;rounded=0;orthogonalLoop=1;jettySize=auto;html=1;exitX=0.5;exitY=1;exitDx=0;exitDy=0;" parent="LMdJlQjHxz6_B-gr1qmA-1" target="LMdJlQjHxz6_B-gr1qmA-128" edge="1">
          <mxGeometry relative="1" as="geometry">
            <mxPoint x="590" y="600" as="sourcePoint" />
            <Array as="points">
              <mxPoint x="590" y="940" />
              <mxPoint x="530" y="940" />
            </Array>
          </mxGeometry>
        </mxCell>
        <mxCell id="LMdJlQjHxz6_B-gr1qmA-15" style="edgeStyle=orthogonalEdgeStyle;rounded=0;orthogonalLoop=1;jettySize=auto;html=1;exitX=0.5;exitY=1;exitDx=0;exitDy=0;entryX=0.5;entryY=0;entryDx=0;entryDy=0;" parent="LMdJlQjHxz6_B-gr1qmA-1" target="LMdJlQjHxz6_B-gr1qmA-129" edge="1">
          <mxGeometry relative="1" as="geometry">
            <mxPoint x="590" y="600" as="sourcePoint" />
            <Array as="points">
              <mxPoint x="590" y="940" />
              <mxPoint x="410" y="940" />
            </Array>
          </mxGeometry>
        </mxCell>
        <mxCell id="LMdJlQjHxz6_B-gr1qmA-16" style="edgeStyle=orthogonalEdgeStyle;rounded=0;orthogonalLoop=1;jettySize=auto;html=1;exitX=0.5;exitY=1;exitDx=0;exitDy=0;entryX=0.5;entryY=0;entryDx=0;entryDy=0;" parent="LMdJlQjHxz6_B-gr1qmA-1" source="LMdJlQjHxz6_B-gr1qmA-133" target="LMdJlQjHxz6_B-gr1qmA-127" edge="1">
          <mxGeometry relative="1" as="geometry">
            <Array as="points">
              <mxPoint x="590" y="940" />
              <mxPoint x="650" y="940" />
            </Array>
          </mxGeometry>
        </mxCell>
        <mxCell id="LMdJlQjHxz6_B-gr1qmA-17" style="edgeStyle=orthogonalEdgeStyle;rounded=0;orthogonalLoop=1;jettySize=auto;html=1;exitX=0.5;exitY=1;exitDx=0;exitDy=0;" parent="LMdJlQjHxz6_B-gr1qmA-1" source="LMdJlQjHxz6_B-gr1qmA-133" target="LMdJlQjHxz6_B-gr1qmA-128" edge="1">
          <mxGeometry relative="1" as="geometry">
            <Array as="points">
              <mxPoint x="590" y="940" />
              <mxPoint x="530" y="940" />
            </Array>
          </mxGeometry>
        </mxCell>
        <mxCell id="LMdJlQjHxz6_B-gr1qmA-18" style="edgeStyle=orthogonalEdgeStyle;rounded=0;orthogonalLoop=1;jettySize=auto;html=1;exitX=0.5;exitY=1;exitDx=0;exitDy=0;entryX=0.5;entryY=0;entryDx=0;entryDy=0;" parent="LMdJlQjHxz6_B-gr1qmA-1" source="LMdJlQjHxz6_B-gr1qmA-133" target="LMdJlQjHxz6_B-gr1qmA-129" edge="1">
          <mxGeometry relative="1" as="geometry">
            <Array as="points">
              <mxPoint x="590" y="940" />
              <mxPoint x="410" y="940" />
            </Array>
          </mxGeometry>
        </mxCell>
        <mxCell id="LMdJlQjHxz6_B-gr1qmA-19" style="edgeStyle=orthogonalEdgeStyle;rounded=0;orthogonalLoop=1;jettySize=auto;html=1;exitX=1;exitY=0;exitDx=0;exitDy=0;entryX=0;entryY=0;entryDx=0;entryDy=0;endArrow=none;endFill=0;startArrow=classic;startFill=1;fillColor=#d5e8d4;strokeColor=#000000;strokeWidth=1;" parent="LMdJlQjHxz6_B-gr1qmA-1" source="LMdJlQjHxz6_B-gr1qmA-133" target="LMdJlQjHxz6_B-gr1qmA-45" edge="1">
          <mxGeometry relative="1" as="geometry">
            <Array as="points">
              <mxPoint x="690" y="652" />
              <mxPoint x="690" y="532" />
            </Array>
          </mxGeometry>
        </mxCell>
        <mxCell id="lx3__pkFxkGQxuC_tU29-0" value="BENEFIT" style="edgeLabel;html=1;align=center;verticalAlign=middle;resizable=0;points=[];" parent="LMdJlQjHxz6_B-gr1qmA-19" vertex="1" connectable="0">
          <mxGeometry x="0.2225" relative="1" as="geometry">
            <mxPoint as="offset" />
          </mxGeometry>
        </mxCell>
        <mxCell id="LMdJlQjHxz6_B-gr1qmA-20" style="edgeStyle=orthogonalEdgeStyle;rounded=0;orthogonalLoop=1;jettySize=auto;html=1;exitX=0.5;exitY=1;exitDx=0;exitDy=0;entryX=0.5;entryY=0;entryDx=0;entryDy=0;fillColor=#d5e8d4;strokeColor=#82b366;strokeWidth=3;" parent="LMdJlQjHxz6_B-gr1qmA-1" source="LMdJlQjHxz6_B-gr1qmA-22" target="LMdJlQjHxz6_B-gr1qmA-127" edge="1">
          <mxGeometry relative="1" as="geometry">
            <Array as="points">
              <mxPoint x="590" y="940" />
              <mxPoint x="650" y="940" />
            </Array>
          </mxGeometry>
        </mxCell>
        <mxCell id="LMdJlQjHxz6_B-gr1qmA-21" style="edgeStyle=orthogonalEdgeStyle;rounded=0;orthogonalLoop=1;jettySize=auto;html=1;exitX=0;exitY=1;exitDx=0;exitDy=0;startArrow=classic;startFill=1;endArrow=none;endFill=0;strokeWidth=1;strokeColor=#000000;" parent="LMdJlQjHxz6_B-gr1qmA-1" source="LMdJlQjHxz6_B-gr1qmA-22" edge="1">
          <mxGeometry relative="1" as="geometry">
            <mxPoint x="230" y="560" as="targetPoint" />
            <Array as="points">
              <mxPoint x="562" y="560" />
            </Array>
          </mxGeometry>
        </mxCell>
        <mxCell id="LMdJlQjHxz6_B-gr1qmA-22" value="Beneficiary&lt;br&gt;&lt;font color=&quot;#0000ff&quot;&gt;无客户号&lt;/font&gt;" style="ellipse;whiteSpace=wrap;html=1;aspect=fixed;" parent="LMdJlQjHxz6_B-gr1qmA-1" vertex="1">
          <mxGeometry x="550" y="400" width="80" height="80" as="geometry" />
        </mxCell>
        <mxCell id="LMdJlQjHxz6_B-gr1qmA-23" style="edgeStyle=orthogonalEdgeStyle;rounded=0;orthogonalLoop=1;jettySize=auto;html=1;exitX=0.5;exitY=0;exitDx=0;exitDy=0;fillColor=#d5e8d4;strokeColor=#82b366;strokeWidth=3;entryX=0.5;entryY=1;entryDx=0;entryDy=0;" parent="LMdJlQjHxz6_B-gr1qmA-1" source="LMdJlQjHxz6_B-gr1qmA-31" target="LMdJlQjHxz6_B-gr1qmA-99" edge="1">
          <mxGeometry relative="1" as="geometry">
            <Array as="points">
              <mxPoint x="590" y="208" />
              <mxPoint x="440" y="208" />
            </Array>
            <mxPoint x="160" y="95" as="targetPoint" />
          </mxGeometry>
        </mxCell>
        <mxCell id="LMdJlQjHxz6_B-gr1qmA-24" value="WORK_IN&lt;br&gt;1 VS n" style="edgeLabel;html=1;align=center;verticalAlign=middle;resizable=0;points=[];" parent="LMdJlQjHxz6_B-gr1qmA-23" vertex="1" connectable="0">
          <mxGeometry x="0.4744" relative="1" as="geometry">
            <mxPoint as="offset" />
          </mxGeometry>
        </mxCell>
        <mxCell id="LMdJlQjHxz6_B-gr1qmA-26" style="edgeStyle=orthogonalEdgeStyle;rounded=0;orthogonalLoop=1;jettySize=auto;html=1;exitX=1;exitY=0.5;exitDx=0;exitDy=0;entryX=0;entryY=1;entryDx=0;entryDy=0;fillColor=#d5e8d4;strokeColor=#000000;strokeWidth=1;" parent="LMdJlQjHxz6_B-gr1qmA-1" source="LMdJlQjHxz6_B-gr1qmA-31" target="LMdJlQjHxz6_B-gr1qmA-33" edge="1">
          <mxGeometry relative="1" as="geometry">
            <Array as="points">
              <mxPoint x="720" y="320" />
              <mxPoint x="720" y="468" />
            </Array>
          </mxGeometry>
        </mxCell>
        <mxCell id="LMdJlQjHxz6_B-gr1qmA-27" value="SELL / SERVE" style="edgeLabel;html=1;align=center;verticalAlign=middle;resizable=0;points=[];" parent="LMdJlQjHxz6_B-gr1qmA-26" vertex="1" connectable="0">
          <mxGeometry x="-0.3768" relative="1" as="geometry">
            <mxPoint as="offset" />
          </mxGeometry>
        </mxCell>
        <mxCell id="LMdJlQjHxz6_B-gr1qmA-28" style="edgeStyle=orthogonalEdgeStyle;rounded=0;orthogonalLoop=1;jettySize=auto;html=1;exitX=0.5;exitY=1;exitDx=0;exitDy=0;entryX=0.5;entryY=0;entryDx=0;entryDy=0;fillColor=#d5e8d4;strokeColor=#82b366;strokeWidth=3;" parent="LMdJlQjHxz6_B-gr1qmA-1" source="LMdJlQjHxz6_B-gr1qmA-31" target="LMdJlQjHxz6_B-gr1qmA-128" edge="1">
          <mxGeometry relative="1" as="geometry">
            <Array as="points">
              <mxPoint x="480" y="360" />
              <mxPoint x="480" y="850" />
              <mxPoint x="530" y="850" />
            </Array>
          </mxGeometry>
        </mxCell>
        <mxCell id="LMdJlQjHxz6_B-gr1qmA-29" style="edgeStyle=orthogonalEdgeStyle;rounded=0;orthogonalLoop=1;jettySize=auto;html=1;exitX=0.5;exitY=1;exitDx=0;exitDy=0;entryX=0.5;entryY=0;entryDx=0;entryDy=0;fillColor=#d5e8d4;strokeColor=#82b366;strokeWidth=3;" parent="LMdJlQjHxz6_B-gr1qmA-1" source="LMdJlQjHxz6_B-gr1qmA-31" target="LMdJlQjHxz6_B-gr1qmA-129" edge="1">
          <mxGeometry relative="1" as="geometry">
            <Array as="points">
              <mxPoint x="480" y="360" />
              <mxPoint x="480" y="850" />
              <mxPoint x="410" y="850" />
            </Array>
          </mxGeometry>
        </mxCell>
        <mxCell id="LMdJlQjHxz6_B-gr1qmA-30" style="edgeStyle=orthogonalEdgeStyle;rounded=0;orthogonalLoop=1;jettySize=auto;html=1;exitX=0.5;exitY=1;exitDx=0;exitDy=0;entryX=0.5;entryY=0;entryDx=0;entryDy=0;fillColor=#fff2cc;strokeColor=#d6b656;strokeWidth=3;dashed=1;dashPattern=1 1;" parent="LMdJlQjHxz6_B-gr1qmA-1" source="LMdJlQjHxz6_B-gr1qmA-31" target="LMdJlQjHxz6_B-gr1qmA-127" edge="1">
          <mxGeometry relative="1" as="geometry">
            <Array as="points">
              <mxPoint x="480" y="360" />
              <mxPoint x="480" y="850" />
              <mxPoint x="650" y="850" />
            </Array>
          </mxGeometry>
        </mxCell>
        <mxCell id="LMdJlQjHxz6_B-gr1qmA-31" value="Agent&lt;br&gt;&lt;font color=&quot;#0000ff&quot;&gt;agent_id&lt;/font&gt;" style="ellipse;whiteSpace=wrap;html=1;aspect=fixed;" parent="LMdJlQjHxz6_B-gr1qmA-1" vertex="1">
          <mxGeometry x="550" y="280" width="80" height="80" as="geometry" />
        </mxCell>
        <mxCell id="LMdJlQjHxz6_B-gr1qmA-32" style="edgeStyle=orthogonalEdgeStyle;rounded=0;orthogonalLoop=1;jettySize=auto;html=1;exitX=0.5;exitY=1;exitDx=0;exitDy=0;entryX=0.5;entryY=0;entryDx=0;entryDy=0;" parent="LMdJlQjHxz6_B-gr1qmA-1" source="LMdJlQjHxz6_B-gr1qmA-33" target="LMdJlQjHxz6_B-gr1qmA-45" edge="1">
          <mxGeometry relative="1" as="geometry" />
        </mxCell>
        <mxCell id="LMdJlQjHxz6_B-gr1qmA-33" value="Policy&lt;br&gt;&lt;font color=&quot;#0000ff&quot;&gt;policy_id&lt;/font&gt;" style="ellipse;whiteSpace=wrap;html=1;aspect=fixed;" parent="LMdJlQjHxz6_B-gr1qmA-1" vertex="1">
          <mxGeometry x="900" y="400" width="80" height="80" as="geometry" />
        </mxCell>
        <mxCell id="LMdJlQjHxz6_B-gr1qmA-34" style="edgeStyle=orthogonalEdgeStyle;rounded=0;orthogonalLoop=1;jettySize=auto;html=1;exitX=0.5;exitY=1;exitDx=0;exitDy=0;entryX=0.5;entryY=0;entryDx=0;entryDy=0;" parent="LMdJlQjHxz6_B-gr1qmA-1" source="LMdJlQjHxz6_B-gr1qmA-35" target="LMdJlQjHxz6_B-gr1qmA-36" edge="1">
          <mxGeometry relative="1" as="geometry" />
        </mxCell>
        <mxCell id="LMdJlQjHxz6_B-gr1qmA-35" value="Product&lt;br&gt;&lt;font color=&quot;#0000ff&quot;&gt;product_id&lt;/font&gt;" style="ellipse;whiteSpace=wrap;html=1;aspect=fixed;fillColor=#e1d5e7;strokeColor=#9673a6;" parent="LMdJlQjHxz6_B-gr1qmA-1" vertex="1">
          <mxGeometry x="1080" y="520" width="80" height="80" as="geometry" />
        </mxCell>
        <mxCell id="LMdJlQjHxz6_B-gr1qmA-36" value="Liability&lt;br&gt;&lt;font color=&quot;#0000ff&quot;&gt;liab_id&lt;/font&gt;" style="ellipse;whiteSpace=wrap;html=1;aspect=fixed;fillColor=#e1d5e7;strokeColor=#9673a6;" parent="LMdJlQjHxz6_B-gr1qmA-1" vertex="1">
          <mxGeometry x="1080" y="640" width="80" height="80" as="geometry" />
        </mxCell>
        <mxCell id="LMdJlQjHxz6_B-gr1qmA-37" style="edgeStyle=orthogonalEdgeStyle;rounded=0;orthogonalLoop=1;jettySize=auto;html=1;exitX=1;exitY=0.5;exitDx=0;exitDy=0;entryX=0;entryY=0.5;entryDx=0;entryDy=0;" parent="LMdJlQjHxz6_B-gr1qmA-1" source="LMdJlQjHxz6_B-gr1qmA-45" target="LMdJlQjHxz6_B-gr1qmA-35" edge="1">
          <mxGeometry relative="1" as="geometry" />
        </mxCell>
        <mxCell id="LMdJlQjHxz6_B-gr1qmA-38" style="edgeStyle=orthogonalEdgeStyle;rounded=0;orthogonalLoop=1;jettySize=auto;html=1;exitX=0;exitY=0.5;exitDx=0;exitDy=0;fillColor=#d5e8d4;strokeColor=#000000;strokeWidth=1;entryX=1;entryY=0.5;entryDx=0;entryDy=0;" parent="LMdJlQjHxz6_B-gr1qmA-1" source="LMdJlQjHxz6_B-gr1qmA-45" target="LMdJlQjHxz6_B-gr1qmA-133" edge="1">
          <mxGeometry relative="1" as="geometry">
            <mxPoint x="630" y="560" as="targetPoint" />
            <Array as="points">
              <mxPoint x="740" y="560" />
              <mxPoint x="740" y="680" />
            </Array>
          </mxGeometry>
        </mxCell>
        <mxCell id="LMdJlQjHxz6_B-gr1qmA-39" value="MAIN_INSURED" style="edgeLabel;html=1;align=center;verticalAlign=middle;resizable=0;points=[];" parent="LMdJlQjHxz6_B-gr1qmA-38" vertex="1" connectable="0">
          <mxGeometry x="-0.0148" y="1" relative="1" as="geometry">
            <mxPoint as="offset" />
          </mxGeometry>
        </mxCell>
        <mxCell id="LMdJlQjHxz6_B-gr1qmA-40" style="edgeStyle=orthogonalEdgeStyle;rounded=0;orthogonalLoop=1;jettySize=auto;html=1;exitX=0;exitY=1;exitDx=0;exitDy=0;entryX=1;entryY=0.5;entryDx=0;entryDy=0;strokeWidth=1;fillColor=#d5e8d4;strokeColor=#000000;" parent="LMdJlQjHxz6_B-gr1qmA-1" source="LMdJlQjHxz6_B-gr1qmA-45" target="LMdJlQjHxz6_B-gr1qmA-133" edge="1">
          <mxGeometry relative="1" as="geometry">
            <Array as="points">
              <mxPoint x="912" y="680" />
            </Array>
          </mxGeometry>
        </mxCell>
        <mxCell id="LMdJlQjHxz6_B-gr1qmA-41" value="SECOND_INSURED" style="edgeLabel;html=1;align=center;verticalAlign=middle;resizable=0;points=[];" parent="LMdJlQjHxz6_B-gr1qmA-40" vertex="1" connectable="0">
          <mxGeometry x="0.0341" y="1" relative="1" as="geometry">
            <mxPoint as="offset" />
          </mxGeometry>
        </mxCell>
        <mxCell id="LMdJlQjHxz6_B-gr1qmA-42" style="edgeStyle=orthogonalEdgeStyle;rounded=0;orthogonalLoop=1;jettySize=auto;html=1;exitX=0.5;exitY=1;exitDx=0;exitDy=0;entryX=1;entryY=1;entryDx=0;entryDy=0;fillColor=#d5e8d4;strokeColor=#000000;strokeWidth=1;" parent="LMdJlQjHxz6_B-gr1qmA-1" source="LMdJlQjHxz6_B-gr1qmA-45" target="LMdJlQjHxz6_B-gr1qmA-133" edge="1">
          <mxGeometry relative="1" as="geometry">
            <Array as="points">
              <mxPoint x="940" y="708" />
            </Array>
          </mxGeometry>
        </mxCell>
        <mxCell id="LMdJlQjHxz6_B-gr1qmA-43" value="APPLICANT" style="edgeLabel;html=1;align=center;verticalAlign=middle;resizable=0;points=[];" parent="LMdJlQjHxz6_B-gr1qmA-42" vertex="1" connectable="0">
          <mxGeometry x="0.2667" relative="1" as="geometry">
            <mxPoint as="offset" />
          </mxGeometry>
        </mxCell>
        <mxCell id="LMdJlQjHxz6_B-gr1qmA-44" style="edgeStyle=orthogonalEdgeStyle;rounded=0;orthogonalLoop=1;jettySize=auto;html=1;exitX=1;exitY=1;exitDx=0;exitDy=0;entryX=0;entryY=0.5;entryDx=0;entryDy=0;dashed=1;" parent="LMdJlQjHxz6_B-gr1qmA-1" source="LMdJlQjHxz6_B-gr1qmA-45" target="LMdJlQjHxz6_B-gr1qmA-36" edge="1">
          <mxGeometry relative="1" as="geometry">
            <Array as="points">
              <mxPoint x="968" y="680" />
            </Array>
          </mxGeometry>
        </mxCell>
        <mxCell id="LMdJlQjHxz6_B-gr1qmA-45" value="Config&lt;br&gt;&lt;font color=&quot;#00994d&quot;&gt;保单配置&lt;br&gt;rider&lt;br&gt;&lt;/font&gt;" style="ellipse;whiteSpace=wrap;html=1;aspect=fixed;" parent="LMdJlQjHxz6_B-gr1qmA-1" vertex="1">
          <mxGeometry x="900" y="520" width="80" height="80" as="geometry" />
        </mxCell>
        <mxCell id="LMdJlQjHxz6_B-gr1qmA-46" style="edgeStyle=orthogonalEdgeStyle;rounded=0;orthogonalLoop=1;jettySize=auto;html=1;exitX=0;exitY=0;exitDx=0;exitDy=0;entryX=1;entryY=0;entryDx=0;entryDy=0;" parent="LMdJlQjHxz6_B-gr1qmA-1" source="LMdJlQjHxz6_B-gr1qmA-58" target="LMdJlQjHxz6_B-gr1qmA-133" edge="1">
          <mxGeometry relative="1" as="geometry">
            <Array as="points">
              <mxPoint x="1562" y="410" />
              <mxPoint x="690" y="410" />
              <mxPoint x="690" y="652" />
            </Array>
            <mxPoint x="790" y="640" as="targetPoint" />
          </mxGeometry>
        </mxCell>
        <mxCell id="LMdJlQjHxz6_B-gr1qmA-47" value="SETTLE" style="edgeLabel;html=1;align=center;verticalAlign=middle;resizable=0;points=[];" parent="LMdJlQjHxz6_B-gr1qmA-46" vertex="1" connectable="0">
          <mxGeometry x="0.073" y="-1" relative="1" as="geometry">
            <mxPoint x="454" as="offset" />
          </mxGeometry>
        </mxCell>
        <mxCell id="LMdJlQjHxz6_B-gr1qmA-48" style="edgeStyle=orthogonalEdgeStyle;rounded=0;orthogonalLoop=1;jettySize=auto;html=1;exitX=1;exitY=0.5;exitDx=0;exitDy=0;entryX=0;entryY=0.5;entryDx=0;entryDy=0;startArrow=classic;startFill=1;" parent="LMdJlQjHxz6_B-gr1qmA-1" source="LMdJlQjHxz6_B-gr1qmA-58" target="LMdJlQjHxz6_B-gr1qmA-64" edge="1">
          <mxGeometry relative="1" as="geometry" />
        </mxCell>
        <mxCell id="LMdJlQjHxz6_B-gr1qmA-49" value="RELATED&lt;br&gt;n VS n" style="edgeLabel;html=1;align=center;verticalAlign=middle;resizable=0;points=[];" parent="LMdJlQjHxz6_B-gr1qmA-48" vertex="1" connectable="0">
          <mxGeometry x="-0.0286" y="1" relative="1" as="geometry">
            <mxPoint as="offset" />
          </mxGeometry>
        </mxCell>
        <mxCell id="LMdJlQjHxz6_B-gr1qmA-50" style="edgeStyle=orthogonalEdgeStyle;rounded=0;orthogonalLoop=1;jettySize=auto;html=1;exitX=0.5;exitY=1;exitDx=0;exitDy=0;" parent="LMdJlQjHxz6_B-gr1qmA-1" source="LMdJlQjHxz6_B-gr1qmA-58" target="LMdJlQjHxz6_B-gr1qmA-96" edge="1">
          <mxGeometry relative="1" as="geometry" />
        </mxCell>
        <mxCell id="LMdJlQjHxz6_B-gr1qmA-51" value="HAS_INVESTIGATION&lt;br&gt;1 VS n" style="edgeLabel;html=1;align=center;verticalAlign=middle;resizable=0;points=[];" parent="LMdJlQjHxz6_B-gr1qmA-50" vertex="1" connectable="0">
          <mxGeometry x="0.025" relative="1" as="geometry">
            <mxPoint as="offset" />
          </mxGeometry>
        </mxCell>
        <mxCell id="LMdJlQjHxz6_B-gr1qmA-52" style="edgeStyle=orthogonalEdgeStyle;rounded=0;orthogonalLoop=1;jettySize=auto;html=1;exitX=0;exitY=0;exitDx=0;exitDy=0;entryX=1;entryY=0;entryDx=0;entryDy=0;" parent="LMdJlQjHxz6_B-gr1qmA-1" source="LMdJlQjHxz6_B-gr1qmA-58" target="LMdJlQjHxz6_B-gr1qmA-22" edge="1">
          <mxGeometry relative="1" as="geometry">
            <Array as="points">
              <mxPoint x="1562" y="410" />
              <mxPoint x="1510" y="410" />
              <mxPoint x="1510" y="270" />
              <mxPoint x="670" y="270" />
              <mxPoint x="670" y="412" />
            </Array>
          </mxGeometry>
        </mxCell>
        <mxCell id="lx3__pkFxkGQxuC_tU29-1" value="没有客户号" style="edgeLabel;html=1;align=center;verticalAlign=middle;resizable=0;points=[];" parent="LMdJlQjHxz6_B-gr1qmA-52" vertex="1" connectable="0">
          <mxGeometry x="-0.0098" y="1" relative="1" as="geometry">
            <mxPoint as="offset" />
          </mxGeometry>
        </mxCell>
        <mxCell id="LMdJlQjHxz6_B-gr1qmA-56" style="edgeStyle=orthogonalEdgeStyle;rounded=0;orthogonalLoop=1;jettySize=auto;html=1;exitX=0;exitY=1;exitDx=0;exitDy=0;entryX=1;entryY=1;entryDx=0;entryDy=0;" parent="LMdJlQjHxz6_B-gr1qmA-1" source="LMdJlQjHxz6_B-gr1qmA-58" target="LMdJlQjHxz6_B-gr1qmA-33" edge="1">
          <mxGeometry relative="1" as="geometry" />
        </mxCell>
        <mxCell id="LMdJlQjHxz6_B-gr1qmA-57" value="SETTLE&lt;br&gt;1 vs 1&lt;br&gt;一个赔案只有一个保单对应,但是一个保单可以多次出险" style="edgeLabel;html=1;align=center;verticalAlign=middle;resizable=0;points=[];" parent="LMdJlQjHxz6_B-gr1qmA-56" vertex="1" connectable="0">
          <mxGeometry x="-0.0944" y="1" relative="1" as="geometry">
            <mxPoint as="offset" />
          </mxGeometry>
        </mxCell>
        <mxCell id="LMdJlQjHxz6_B-gr1qmA-58" value="Claim&lt;br&gt;&lt;font color=&quot;#0000ff&quot;&gt;claim_id&lt;/font&gt;" style="ellipse;whiteSpace=wrap;html=1;aspect=fixed;" parent="LMdJlQjHxz6_B-gr1qmA-1" vertex="1">
          <mxGeometry x="1550" y="400" width="80" height="80" as="geometry" />
        </mxCell>
        <mxCell id="LMdJlQjHxz6_B-gr1qmA-59" style="edgeStyle=orthogonalEdgeStyle;rounded=0;orthogonalLoop=1;jettySize=auto;html=1;exitX=0.5;exitY=1;exitDx=0;exitDy=0;entryX=0.5;entryY=0;entryDx=0;entryDy=0;" parent="LMdJlQjHxz6_B-gr1qmA-1" source="LMdJlQjHxz6_B-gr1qmA-64" target="LMdJlQjHxz6_B-gr1qmA-74" edge="1">
          <mxGeometry relative="1" as="geometry" />
        </mxCell>
        <mxCell id="LMdJlQjHxz6_B-gr1qmA-60" value="HAS_DIAGNOSIS&lt;br&gt;is_main&lt;br&gt;1 VS n" style="edgeLabel;html=1;align=center;verticalAlign=middle;resizable=0;points=[];" parent="LMdJlQjHxz6_B-gr1qmA-59" vertex="1" connectable="0">
          <mxGeometry x="-0.1778" relative="1" as="geometry">
            <mxPoint as="offset" />
          </mxGeometry>
        </mxCell>
        <mxCell id="LMdJlQjHxz6_B-gr1qmA-61" style="edgeStyle=orthogonalEdgeStyle;rounded=0;orthogonalLoop=1;jettySize=auto;html=1;exitX=1;exitY=0.5;exitDx=0;exitDy=0;entryX=0;entryY=0.5;entryDx=0;entryDy=0;" parent="LMdJlQjHxz6_B-gr1qmA-1" source="LMdJlQjHxz6_B-gr1qmA-64" target="LMdJlQjHxz6_B-gr1qmA-75" edge="1">
          <mxGeometry relative="1" as="geometry" />
        </mxCell>
        <mxCell id="LMdJlQjHxz6_B-gr1qmA-62" style="edgeStyle=orthogonalEdgeStyle;rounded=0;orthogonalLoop=1;jettySize=auto;html=1;exitX=0.5;exitY=0;exitDx=0;exitDy=0;entryX=0.5;entryY=1;entryDx=0;entryDy=0;" parent="LMdJlQjHxz6_B-gr1qmA-1" source="LMdJlQjHxz6_B-gr1qmA-64" target="LMdJlQjHxz6_B-gr1qmA-84" edge="1">
          <mxGeometry relative="1" as="geometry">
            <mxPoint x="1740" y="310" as="targetPoint" />
          </mxGeometry>
        </mxCell>
        <mxCell id="LMdJlQjHxz6_B-gr1qmA-63" value="HAS&lt;br&gt;1 VS n or n VS n" style="edgeLabel;html=1;align=center;verticalAlign=middle;resizable=0;points=[];" parent="LMdJlQjHxz6_B-gr1qmA-62" vertex="1" connectable="0">
          <mxGeometry x="-0.0455" y="-1" relative="1" as="geometry">
            <mxPoint as="offset" />
          </mxGeometry>
        </mxCell>
        <mxCell id="LMdJlQjHxz6_B-gr1qmA-64" value="Admission&lt;br&gt;&lt;font color=&quot;#0000ff&quot;&gt;admin_id&lt;/font&gt;" style="ellipse;whiteSpace=wrap;html=1;aspect=fixed;" parent="LMdJlQjHxz6_B-gr1qmA-1" vertex="1">
          <mxGeometry x="1700" y="400" width="80" height="80" as="geometry" />
        </mxCell>
        <mxCell id="LMdJlQjHxz6_B-gr1qmA-65" style="edgeStyle=orthogonalEdgeStyle;rounded=0;orthogonalLoop=1;jettySize=auto;html=1;exitX=1;exitY=0.5;exitDx=0;exitDy=0;" parent="LMdJlQjHxz6_B-gr1qmA-1" source="LMdJlQjHxz6_B-gr1qmA-73" target="LMdJlQjHxz6_B-gr1qmA-58" edge="1">
          <mxGeometry relative="1" as="geometry" />
        </mxCell>
        <mxCell id="LMdJlQjHxz6_B-gr1qmA-66" value="SETTLE" style="edgeLabel;html=1;align=center;verticalAlign=middle;resizable=0;points=[];" parent="LMdJlQjHxz6_B-gr1qmA-65" vertex="1" connectable="0">
          <mxGeometry x="-0.4992" y="-1" relative="1" as="geometry">
            <mxPoint as="offset" />
          </mxGeometry>
        </mxCell>
        <mxCell id="LMdJlQjHxz6_B-gr1qmA-67" style="edgeStyle=orthogonalEdgeStyle;rounded=0;orthogonalLoop=1;jettySize=auto;html=1;exitX=0.5;exitY=1;exitDx=0;exitDy=0;entryX=0.5;entryY=0;entryDx=0;entryDy=0;" parent="LMdJlQjHxz6_B-gr1qmA-1" source="LMdJlQjHxz6_B-gr1qmA-73" target="LMdJlQjHxz6_B-gr1qmA-35" edge="1">
          <mxGeometry relative="1" as="geometry" />
        </mxCell>
        <mxCell id="LMdJlQjHxz6_B-gr1qmA-68" value="SETTLE" style="edgeLabel;html=1;align=center;verticalAlign=middle;resizable=0;points=[];" parent="LMdJlQjHxz6_B-gr1qmA-67" vertex="1" connectable="0">
          <mxGeometry x="-0.0061" y="-3" relative="1" as="geometry">
            <mxPoint as="offset" />
          </mxGeometry>
        </mxCell>
        <mxCell id="LMdJlQjHxz6_B-gr1qmA-69" style="edgeStyle=orthogonalEdgeStyle;rounded=0;orthogonalLoop=1;jettySize=auto;html=1;exitX=0;exitY=0.5;exitDx=0;exitDy=0;" parent="LMdJlQjHxz6_B-gr1qmA-1" source="LMdJlQjHxz6_B-gr1qmA-73" target="LMdJlQjHxz6_B-gr1qmA-33" edge="1">
          <mxGeometry relative="1" as="geometry" />
        </mxCell>
        <mxCell id="LMdJlQjHxz6_B-gr1qmA-70" value="SETTLE" style="edgeLabel;html=1;align=center;verticalAlign=middle;resizable=0;points=[];" parent="LMdJlQjHxz6_B-gr1qmA-69" vertex="1" connectable="0">
          <mxGeometry x="-0.2813" y="-1" relative="1" as="geometry">
            <mxPoint as="offset" />
          </mxGeometry>
        </mxCell>
        <mxCell id="LMdJlQjHxz6_B-gr1qmA-71" style="edgeStyle=orthogonalEdgeStyle;rounded=0;orthogonalLoop=1;jettySize=auto;html=1;exitX=0.5;exitY=1;exitDx=0;exitDy=0;entryX=1;entryY=0.5;entryDx=0;entryDy=0;" parent="LMdJlQjHxz6_B-gr1qmA-1" source="LMdJlQjHxz6_B-gr1qmA-73" target="LMdJlQjHxz6_B-gr1qmA-36" edge="1">
          <mxGeometry relative="1" as="geometry">
            <Array as="points">
              <mxPoint x="1240" y="150" />
              <mxPoint x="1240" y="680" />
            </Array>
          </mxGeometry>
        </mxCell>
        <mxCell id="LMdJlQjHxz6_B-gr1qmA-72" value="SETTLE" style="edgeLabel;html=1;align=center;verticalAlign=middle;resizable=0;points=[];" parent="LMdJlQjHxz6_B-gr1qmA-71" vertex="1" connectable="0">
          <mxGeometry x="-0.234" y="1" relative="1" as="geometry">
            <mxPoint as="offset" />
          </mxGeometry>
        </mxCell>
        <mxCell id="LMdJlQjHxz6_B-gr1qmA-73" value="LiabilityPay" style="ellipse;whiteSpace=wrap;html=1;aspect=fixed;" parent="LMdJlQjHxz6_B-gr1qmA-1" vertex="1">
          <mxGeometry x="1201" y="70" width="80" height="80" as="geometry" />
        </mxCell>
        <mxCell id="LMdJlQjHxz6_B-gr1qmA-74" value="Diagnosis" style="ellipse;whiteSpace=wrap;html=1;aspect=fixed;fillColor=#e1d5e7;strokeColor=#9673a6;" parent="LMdJlQjHxz6_B-gr1qmA-1" vertex="1">
          <mxGeometry x="1700" y="570" width="80" height="80" as="geometry" />
        </mxCell>
        <mxCell id="LMdJlQjHxz6_B-gr1qmA-75" value="Surgery" style="ellipse;whiteSpace=wrap;html=1;aspect=fixed;fillColor=#e1d5e7;strokeColor=#9673a6;" parent="LMdJlQjHxz6_B-gr1qmA-1" vertex="1">
          <mxGeometry x="1870" y="400" width="80" height="80" as="geometry" />
        </mxCell>
        <mxCell id="LMdJlQjHxz6_B-gr1qmA-76" style="edgeStyle=orthogonalEdgeStyle;rounded=0;orthogonalLoop=1;jettySize=auto;html=1;exitX=1;exitY=0.5;exitDx=0;exitDy=0;entryX=0.5;entryY=0;entryDx=0;entryDy=0;" parent="LMdJlQjHxz6_B-gr1qmA-1" source="LMdJlQjHxz6_B-gr1qmA-77" target="LMdJlQjHxz6_B-gr1qmA-99" edge="1">
          <mxGeometry relative="1" as="geometry">
            <Array as="points">
              <mxPoint x="1970" y="610" />
              <mxPoint x="1970" y="10" />
              <mxPoint x="440" y="10" />
            </Array>
          </mxGeometry>
        </mxCell>
        <mxCell id="LMdJlQjHxz6_B-gr1qmA-77" value="Hospital" style="ellipse;whiteSpace=wrap;html=1;aspect=fixed;fillColor=#e1d5e7;strokeColor=#9673a6;" parent="LMdJlQjHxz6_B-gr1qmA-1" vertex="1">
          <mxGeometry x="1870" y="570" width="80" height="80" as="geometry" />
        </mxCell>
        <mxCell id="LMdJlQjHxz6_B-gr1qmA-78" value="" style="endArrow=classic;html=1;rounded=0;entryX=0;entryY=0;entryDx=0;entryDy=0;exitX=1;exitY=1;exitDx=0;exitDy=0;" parent="LMdJlQjHxz6_B-gr1qmA-1" source="LMdJlQjHxz6_B-gr1qmA-64" target="LMdJlQjHxz6_B-gr1qmA-77" edge="1">
          <mxGeometry width="50" height="50" relative="1" as="geometry">
            <mxPoint x="1320" y="580" as="sourcePoint" />
            <mxPoint x="1370" y="530" as="targetPoint" />
          </mxGeometry>
        </mxCell>
        <mxCell id="LMdJlQjHxz6_B-gr1qmA-79" value="LOCATE_IN" style="edgeLabel;html=1;align=center;verticalAlign=middle;resizable=0;points=[];" parent="LMdJlQjHxz6_B-gr1qmA-78" vertex="1" connectable="0">
          <mxGeometry x="-0.0617" y="1" relative="1" as="geometry">
            <mxPoint as="offset" />
          </mxGeometry>
        </mxCell>
        <mxCell id="LMdJlQjHxz6_B-gr1qmA-80" style="edgeStyle=orthogonalEdgeStyle;rounded=0;orthogonalLoop=1;jettySize=auto;html=1;exitX=1;exitY=0.5;exitDx=0;exitDy=0;" parent="LMdJlQjHxz6_B-gr1qmA-1" source="LMdJlQjHxz6_B-gr1qmA-84" target="LMdJlQjHxz6_B-gr1qmA-85" edge="1">
          <mxGeometry relative="1" as="geometry" />
        </mxCell>
        <mxCell id="LMdJlQjHxz6_B-gr1qmA-81" value="HAS" style="edgeLabel;html=1;align=center;verticalAlign=middle;resizable=0;points=[];" parent="LMdJlQjHxz6_B-gr1qmA-80" vertex="1" connectable="0">
          <mxGeometry x="0.4" relative="1" as="geometry">
            <mxPoint as="offset" />
          </mxGeometry>
        </mxCell>
        <mxCell id="LMdJlQjHxz6_B-gr1qmA-82" style="edgeStyle=orthogonalEdgeStyle;rounded=0;orthogonalLoop=1;jettySize=auto;html=1;exitX=1;exitY=0.5;exitDx=0;exitDy=0;entryX=0;entryY=0.5;entryDx=0;entryDy=0;" parent="LMdJlQjHxz6_B-gr1qmA-1" source="LMdJlQjHxz6_B-gr1qmA-84" target="LMdJlQjHxz6_B-gr1qmA-88" edge="1">
          <mxGeometry relative="1" as="geometry" />
        </mxCell>
        <mxCell id="LMdJlQjHxz6_B-gr1qmA-83" value="HAS" style="edgeLabel;html=1;align=center;verticalAlign=middle;resizable=0;points=[];" parent="LMdJlQjHxz6_B-gr1qmA-82" vertex="1" connectable="0">
          <mxGeometry x="-0.0091" y="1" relative="1" as="geometry">
            <mxPoint as="offset" />
          </mxGeometry>
        </mxCell>
        <mxCell id="LMdJlQjHxz6_B-gr1qmA-84" value="Invoice&lt;br&gt;&lt;font color=&quot;#0000ff&quot;&gt;inv_id&lt;/font&gt;" style="ellipse;whiteSpace=wrap;html=1;aspect=fixed;" parent="LMdJlQjHxz6_B-gr1qmA-1" vertex="1">
          <mxGeometry x="1700" y="100" width="80" height="80" as="geometry" />
        </mxCell>
        <mxCell id="LMdJlQjHxz6_B-gr1qmA-85" value="Item&lt;br&gt;&lt;font color=&quot;#0000ff&quot;&gt;item_id&lt;/font&gt;" style="ellipse;whiteSpace=wrap;html=1;aspect=fixed;" parent="LMdJlQjHxz6_B-gr1qmA-1" vertex="1">
          <mxGeometry x="1870" y="100" width="80" height="80" as="geometry" />
        </mxCell>
        <mxCell id="LMdJlQjHxz6_B-gr1qmA-86" style="edgeStyle=orthogonalEdgeStyle;rounded=0;orthogonalLoop=1;jettySize=auto;html=1;exitX=0.5;exitY=0;exitDx=0;exitDy=0;entryX=0.5;entryY=1;entryDx=0;entryDy=0;" parent="LMdJlQjHxz6_B-gr1qmA-1" source="LMdJlQjHxz6_B-gr1qmA-88" target="LMdJlQjHxz6_B-gr1qmA-85" edge="1">
          <mxGeometry relative="1" as="geometry" />
        </mxCell>
        <mxCell id="LMdJlQjHxz6_B-gr1qmA-87" value="HAS" style="edgeLabel;html=1;align=center;verticalAlign=middle;resizable=0;points=[];" parent="LMdJlQjHxz6_B-gr1qmA-86" vertex="1" connectable="0">
          <mxGeometry x="-0.04" relative="1" as="geometry">
            <mxPoint as="offset" />
          </mxGeometry>
        </mxCell>
        <mxCell id="LMdJlQjHxz6_B-gr1qmA-88" value="CategoricalFee&lt;br&gt;&lt;font color=&quot;#0000ff&quot;&gt;cf_id&lt;/font&gt;" style="ellipse;whiteSpace=wrap;html=1;aspect=fixed;" parent="LMdJlQjHxz6_B-gr1qmA-1" vertex="1">
          <mxGeometry x="1870" y="230" width="80" height="80" as="geometry" />
        </mxCell>
        <mxCell id="LMdJlQjHxz6_B-gr1qmA-89" style="edgeStyle=orthogonalEdgeStyle;rounded=0;orthogonalLoop=1;jettySize=auto;html=1;exitX=0;exitY=0;exitDx=0;exitDy=0;entryX=0;entryY=1;entryDx=0;entryDy=0;fillColor=#d5e8d4;strokeColor=#82b366;strokeWidth=3;" parent="LMdJlQjHxz6_B-gr1qmA-1" source="LMdJlQjHxz6_B-gr1qmA-133" target="LMdJlQjHxz6_B-gr1qmA-133" edge="1">
          <mxGeometry relative="1" as="geometry">
            <Array as="points">
              <mxPoint x="460" y="652" />
              <mxPoint x="460" y="708" />
            </Array>
          </mxGeometry>
        </mxCell>
        <mxCell id="LMdJlQjHxz6_B-gr1qmA-90" value="HAS_RELATION" style="edgeLabel;html=1;align=center;verticalAlign=middle;resizable=0;points=[];" parent="LMdJlQjHxz6_B-gr1qmA-89" vertex="1" connectable="0">
          <mxGeometry x="0.5882" y="-1" relative="1" as="geometry">
            <mxPoint as="offset" />
          </mxGeometry>
        </mxCell>
        <mxCell id="LMdJlQjHxz6_B-gr1qmA-91" value="1 VS n" style="edgeLabel;html=1;align=center;verticalAlign=middle;resizable=0;points=[];" parent="LMdJlQjHxz6_B-gr1qmA-89" vertex="1" connectable="0">
          <mxGeometry x="-0.5939" relative="1" as="geometry">
            <mxPoint as="offset" />
          </mxGeometry>
        </mxCell>
        <mxCell id="LMdJlQjHxz6_B-gr1qmA-92" style="edgeStyle=orthogonalEdgeStyle;rounded=0;orthogonalLoop=1;jettySize=auto;html=1;exitX=0;exitY=0.5;exitDx=0;exitDy=0;entryX=1;entryY=1;entryDx=0;entryDy=0;" parent="LMdJlQjHxz6_B-gr1qmA-1" source="LMdJlQjHxz6_B-gr1qmA-96" target="LMdJlQjHxz6_B-gr1qmA-33" edge="1">
          <mxGeometry relative="1" as="geometry">
            <Array as="points">
              <mxPoint x="1370" y="680" />
              <mxPoint x="1370" y="468" />
            </Array>
          </mxGeometry>
        </mxCell>
        <mxCell id="LMdJlQjHxz6_B-gr1qmA-93" value="HAS_TARGET&lt;br&gt;1/0 vs 1" style="edgeLabel;html=1;align=center;verticalAlign=middle;resizable=0;points=[];" parent="LMdJlQjHxz6_B-gr1qmA-92" vertex="1" connectable="0">
          <mxGeometry x="-0.6799" y="1" relative="1" as="geometry">
            <mxPoint as="offset" />
          </mxGeometry>
        </mxCell>
        <mxCell id="LMdJlQjHxz6_B-gr1qmA-94" style="edgeStyle=orthogonalEdgeStyle;rounded=0;orthogonalLoop=1;jettySize=auto;html=1;exitX=1;exitY=0.5;exitDx=0;exitDy=0;entryX=0.5;entryY=1;entryDx=0;entryDy=0;" parent="LMdJlQjHxz6_B-gr1qmA-1" source="LMdJlQjHxz6_B-gr1qmA-96" target="LMdJlQjHxz6_B-gr1qmA-77" edge="1">
          <mxGeometry relative="1" as="geometry" />
        </mxCell>
        <mxCell id="LMdJlQjHxz6_B-gr1qmA-95" value="HAS_TARGET&lt;br&gt;1/0 vs 1" style="edgeLabel;html=1;align=center;verticalAlign=middle;resizable=0;points=[];" parent="LMdJlQjHxz6_B-gr1qmA-94" vertex="1" connectable="0">
          <mxGeometry x="-0.1194" y="-1" relative="1" as="geometry">
            <mxPoint x="1" as="offset" />
          </mxGeometry>
        </mxCell>
        <mxCell id="LMdJlQjHxz6_B-gr1qmA-96" value="Investigation&lt;br&gt;&lt;font color=&quot;#0000ff&quot;&gt;invest_id&lt;/font&gt;" style="ellipse;whiteSpace=wrap;html=1;aspect=fixed;" parent="LMdJlQjHxz6_B-gr1qmA-1" vertex="1">
          <mxGeometry x="1550" y="640" width="80" height="80" as="geometry" />
        </mxCell>
        <mxCell id="LMdJlQjHxz6_B-gr1qmA-99" value="Org&lt;br&gt;&lt;font color=&quot;#0000ff&quot;&gt;uuid=code+level&lt;br&gt;&lt;/font&gt;level=team" style="ellipse;whiteSpace=wrap;html=1;aspect=fixed;fillColor=#e1d5e7;strokeColor=#9673a6;" parent="LMdJlQjHxz6_B-gr1qmA-1" vertex="1">
          <mxGeometry x="400" y="55" width="80" height="80" as="geometry" />
        </mxCell>
        <mxCell id="LMdJlQjHxz6_B-gr1qmA-101" style="edgeStyle=orthogonalEdgeStyle;rounded=0;orthogonalLoop=1;jettySize=auto;html=1;exitX=1;exitY=0;exitDx=0;exitDy=0;entryX=1;entryY=1;entryDx=0;entryDy=0;" parent="LMdJlQjHxz6_B-gr1qmA-1" source="LMdJlQjHxz6_B-gr1qmA-99" target="LMdJlQjHxz6_B-gr1qmA-99" edge="1">
          <mxGeometry relative="1" as="geometry">
            <Array as="points">
              <mxPoint x="468" y="35" />
              <mxPoint x="550" y="35" />
              <mxPoint x="550" y="155" />
              <mxPoint x="468" y="155" />
            </Array>
          </mxGeometry>
        </mxCell>
        <mxCell id="LMdJlQjHxz6_B-gr1qmA-102" value="SUB_ORGANIZATION" style="edgeLabel;html=1;align=center;verticalAlign=middle;resizable=0;points=[];" parent="LMdJlQjHxz6_B-gr1qmA-101" vertex="1" connectable="0">
          <mxGeometry x="0.0081" y="2" relative="1" as="geometry">
            <mxPoint x="-2" y="-2" as="offset" />
          </mxGeometry>
        </mxCell>
        <mxCell id="LMdJlQjHxz6_B-gr1qmA-103" style="edgeStyle=orthogonalEdgeStyle;rounded=0;orthogonalLoop=1;jettySize=auto;html=1;exitX=0.5;exitY=0;exitDx=0;exitDy=0;entryX=0.5;entryY=1;entryDx=0;entryDy=0;fillColor=#d5e8d4;strokeColor=#82b366;strokeWidth=3;" parent="LMdJlQjHxz6_B-gr1qmA-1" source="LMdJlQjHxz6_B-gr1qmA-105" target="LMdJlQjHxz6_B-gr1qmA-12" edge="1">
          <mxGeometry relative="1" as="geometry" />
        </mxCell>
        <mxCell id="LMdJlQjHxz6_B-gr1qmA-104" value="HAS_MEMBER" style="edgeLabel;html=1;align=center;verticalAlign=middle;resizable=0;points=[];" parent="LMdJlQjHxz6_B-gr1qmA-103" vertex="1" connectable="0">
          <mxGeometry x="-0.2519" y="-1" relative="1" as="geometry">
            <mxPoint as="offset" />
          </mxGeometry>
        </mxCell>
        <mxCell id="LMdJlQjHxz6_B-gr1qmA-105" value="Family" style="ellipse;whiteSpace=wrap;html=1;aspect=fixed;fillColor=#dae8fc;strokeColor=#6c8ebf;" parent="LMdJlQjHxz6_B-gr1qmA-1" vertex="1">
          <mxGeometry x="150" y="790" width="80" height="80" as="geometry" />
        </mxCell>
        <mxCell id="LMdJlQjHxz6_B-gr1qmA-106" style="edgeStyle=orthogonalEdgeStyle;rounded=0;orthogonalLoop=1;jettySize=auto;html=1;exitX=0.5;exitY=1;exitDx=0;exitDy=0;entryX=0;entryY=0.5;entryDx=0;entryDy=0;" parent="LMdJlQjHxz6_B-gr1qmA-1" source="LMdJlQjHxz6_B-gr1qmA-107" target="LMdJlQjHxz6_B-gr1qmA-33" edge="1">
          <mxGeometry relative="1" as="geometry" />
        </mxCell>
        <mxCell id="LMdJlQjHxz6_B-gr1qmA-107" value="AppliedPolicy" style="ellipse;whiteSpace=wrap;html=1;aspect=fixed;" parent="LMdJlQjHxz6_B-gr1qmA-1" vertex="1">
          <mxGeometry x="780" y="120" width="80" height="80" as="geometry" />
        </mxCell>
        <mxCell id="LMdJlQjHxz6_B-gr1qmA-108" value="WithdrewClaim&lt;br&gt;&lt;font color=&quot;#0000ff&quot;&gt;claim_id&lt;/font&gt;" style="ellipse;whiteSpace=wrap;html=1;aspect=fixed;" parent="LMdJlQjHxz6_B-gr1qmA-1" vertex="1">
          <mxGeometry x="1430" y="505" width="80" height="80" as="geometry" />
        </mxCell>
        <mxCell id="LMdJlQjHxz6_B-gr1qmA-109" value="" style="endArrow=classic;startArrow=classic;html=1;rounded=0;entryX=0;entryY=1;entryDx=0;entryDy=0;exitX=1;exitY=0;exitDx=0;exitDy=0;dashed=1;dashPattern=8 8;" parent="LMdJlQjHxz6_B-gr1qmA-1" source="LMdJlQjHxz6_B-gr1qmA-108" target="LMdJlQjHxz6_B-gr1qmA-58" edge="1">
          <mxGeometry width="50" height="50" relative="1" as="geometry">
            <mxPoint x="1150" y="610" as="sourcePoint" />
            <mxPoint x="1200" y="560" as="targetPoint" />
          </mxGeometry>
        </mxCell>
        <mxCell id="LMdJlQjHxz6_B-gr1qmA-110" value="" style="endArrow=classic;startArrow=classic;html=1;rounded=0;entryX=1;entryY=1;entryDx=0;entryDy=0;exitX=0;exitY=0;exitDx=0;exitDy=0;dashed=1;dashPattern=8 8;" parent="LMdJlQjHxz6_B-gr1qmA-1" source="LMdJlQjHxz6_B-gr1qmA-33" target="LMdJlQjHxz6_B-gr1qmA-107" edge="1">
          <mxGeometry width="50" height="50" relative="1" as="geometry">
            <mxPoint x="1328" y="527" as="sourcePoint" />
            <mxPoint x="1392" y="478" as="targetPoint" />
          </mxGeometry>
        </mxCell>
        <mxCell id="LMdJlQjHxz6_B-gr1qmA-111" value="Q:投保单相对保单而言，&lt;br&gt;有多少字段是可以提供的" style="edgeLabel;html=1;align=center;verticalAlign=middle;resizable=0;points=[];fontColor=#FF0000;" parent="LMdJlQjHxz6_B-gr1qmA-110" vertex="1" connectable="0">
          <mxGeometry x="0.1502" y="-1" relative="1" as="geometry">
            <mxPoint x="-166" y="-123" as="offset" />
          </mxGeometry>
        </mxCell>
        <mxCell id="LMdJlQjHxz6_B-gr1qmA-114" style="edgeStyle=orthogonalEdgeStyle;rounded=0;orthogonalLoop=1;jettySize=auto;html=1;exitX=0.5;exitY=0;exitDx=0;exitDy=0;strokeWidth=3;strokeColor=#FF0000;" parent="LMdJlQjHxz6_B-gr1qmA-1" source="LMdJlQjHxz6_B-gr1qmA-115" edge="1">
          <mxGeometry relative="1" as="geometry">
            <Array as="points">
              <mxPoint x="850" y="790" />
              <mxPoint x="940" y="790" />
            </Array>
            <mxPoint x="940" y="600" as="targetPoint" />
          </mxGeometry>
        </mxCell>
        <mxCell id="LMdJlQjHxz6_B-gr1qmA-115" value="不实告知" style="ellipse;whiteSpace=wrap;html=1;aspect=fixed;fillColor=#ffe6cc;strokeColor=#d79b00;" parent="LMdJlQjHxz6_B-gr1qmA-1" vertex="1">
          <mxGeometry x="810" y="980" width="80" height="80" as="geometry" />
        </mxCell>
        <mxCell id="LMdJlQjHxz6_B-gr1qmA-120" value="Q: 发票是否集中在某一次就诊下" style="text;html=1;strokeColor=none;fillColor=none;align=center;verticalAlign=middle;whiteSpace=wrap;rounded=0;fontColor=#FF0000;" parent="LMdJlQjHxz6_B-gr1qmA-1" vertex="1">
          <mxGeometry x="1670" y="200" width="140" height="30" as="geometry" />
        </mxCell>
        <mxCell id="LMdJlQjHxz6_B-gr1qmA-123" value="&lt;div style=&quot;text-align: left;&quot;&gt;Q: 是否所有证件类型/证件号都具有唯一性&lt;br&gt;&lt;/div&gt;&lt;div style=&quot;text-align: left;&quot;&gt;准生证号有可能重复&lt;/div&gt;&lt;div style=&quot;text-align: left;&quot;&gt;Q: 删除操作是否有全量记录，哪怕是物理删除&lt;/div&gt;&lt;div style=&quot;text-align: left;&quot;&gt;Q: 完全无法跟踪的东西的量&lt;/div&gt;" style="edgeLabel;html=1;align=center;verticalAlign=middle;resizable=0;points=[];fontColor=#FF0000;" parent="LMdJlQjHxz6_B-gr1qmA-1" vertex="1" connectable="0">
          <mxGeometry x="190" y="670" as="geometry" />
        </mxCell>
        <mxCell id="LMdJlQjHxz6_B-gr1qmA-124" value="Q: 保单配置中，特别约定导致责任与险种通用配置不符，所以直连配置，不算险种" style="text;html=1;strokeColor=none;fillColor=none;align=center;verticalAlign=middle;whiteSpace=wrap;rounded=0;fontColor=#FF0000;" parent="LMdJlQjHxz6_B-gr1qmA-1" vertex="1">
          <mxGeometry x="970" y="610" width="140" height="60" as="geometry" />
        </mxCell>
        <mxCell id="LMdJlQjHxz6_B-gr1qmA-126" style="edgeStyle=orthogonalEdgeStyle;rounded=0;orthogonalLoop=1;jettySize=auto;html=1;exitX=0.5;exitY=0;exitDx=0;exitDy=0;entryX=0;entryY=0.5;entryDx=0;entryDy=0;strokeWidth=3;strokeColor=#FF0000;" parent="LMdJlQjHxz6_B-gr1qmA-1" target="LMdJlQjHxz6_B-gr1qmA-33" edge="1">
          <mxGeometry relative="1" as="geometry">
            <mxPoint x="850" y="920" as="sourcePoint" />
            <mxPoint x="1170" y="480" as="targetPoint" />
            <Array as="points">
              <mxPoint x="850" y="440" />
            </Array>
          </mxGeometry>
        </mxCell>
        <mxCell id="LMdJlQjHxz6_B-gr1qmA-127" value="BankCard&lt;br&gt;&lt;font color=&quot;#0000ff&quot;&gt;bank_code&lt;br&gt;bankcard_num&lt;/font&gt;" style="ellipse;whiteSpace=wrap;html=1;aspect=fixed;dashed=1;" parent="LMdJlQjHxz6_B-gr1qmA-1" vertex="1">
          <mxGeometry x="610" y="1050" width="80" height="80" as="geometry" />
        </mxCell>
        <mxCell id="LMdJlQjHxz6_B-gr1qmA-128" value="Telephone&lt;br&gt;&lt;font color=&quot;#0000ff&quot;&gt;number&lt;br&gt;&lt;/font&gt;" style="ellipse;whiteSpace=wrap;html=1;aspect=fixed;" parent="LMdJlQjHxz6_B-gr1qmA-1" vertex="1">
          <mxGeometry x="490" y="1050" width="80" height="80" as="geometry" />
        </mxCell>
        <mxCell id="LMdJlQjHxz6_B-gr1qmA-129" value="Address&lt;br&gt;&lt;font color=&quot;#0000ff&quot;&gt;address&lt;br&gt;&lt;/font&gt;" style="ellipse;whiteSpace=wrap;html=1;aspect=fixed;" parent="LMdJlQjHxz6_B-gr1qmA-1" vertex="1">
          <mxGeometry x="370" y="1050" width="80" height="80" as="geometry" />
        </mxCell>
        <mxCell id="LMdJlQjHxz6_B-gr1qmA-130" value="&lt;font color=&quot;#ff0000&quot;&gt;Q: 组织架构层级，数据里面很复杂&lt;/font&gt;" style="text;html=1;strokeColor=none;fillColor=none;align=center;verticalAlign=middle;whiteSpace=wrap;rounded=0;" parent="LMdJlQjHxz6_B-gr1qmA-1" vertex="1">
          <mxGeometry x="570" y="40" width="220" height="60" as="geometry" />
        </mxCell>
        <mxCell id="LMdJlQjHxz6_B-gr1qmA-131" style="edgeStyle=orthogonalEdgeStyle;rounded=0;orthogonalLoop=1;jettySize=auto;html=1;exitX=0.5;exitY=0;exitDx=0;exitDy=0;entryX=1;entryY=0.5;entryDx=0;entryDy=0;startArrow=classic;startFill=1;endArrow=none;endFill=0;strokeWidth=1;strokeColor=#000000;" parent="LMdJlQjHxz6_B-gr1qmA-1" source="LMdJlQjHxz6_B-gr1qmA-133" target="LMdJlQjHxz6_B-gr1qmA-12" edge="1">
          <mxGeometry relative="1" as="geometry">
            <Array as="points">
              <mxPoint x="310" y="640" />
              <mxPoint x="310" y="560" />
            </Array>
          </mxGeometry>
        </mxCell>
        <mxCell id="LMdJlQjHxz6_B-gr1qmA-132" value="HAS_ROLE&lt;br&gt;1 vs n" style="edgeLabel;html=1;align=center;verticalAlign=middle;resizable=0;points=[];" parent="LMdJlQjHxz6_B-gr1qmA-131" vertex="1" connectable="0">
          <mxGeometry x="0.8682" y="1" relative="1" as="geometry">
            <mxPoint x="11" y="-1" as="offset" />
          </mxGeometry>
        </mxCell>
        <mxCell id="LMdJlQjHxz6_B-gr1qmA-133" value="Customer&lt;br&gt;&lt;font color=&quot;#0000ff&quot;&gt;cust_id&lt;/font&gt;" style="ellipse;whiteSpace=wrap;html=1;aspect=fixed;" parent="LMdJlQjHxz6_B-gr1qmA-1" vertex="1">
          <mxGeometry x="550" y="640" width="80" height="80" as="geometry" />
        </mxCell>
        <mxCell id="LMdJlQjHxz6_B-gr1qmA-134" style="edgeStyle=orthogonalEdgeStyle;rounded=0;orthogonalLoop=1;jettySize=auto;html=1;exitX=0.5;exitY=0;exitDx=0;exitDy=0;entryX=1;entryY=0.5;entryDx=0;entryDy=0;" parent="LMdJlQjHxz6_B-gr1qmA-1" source="LMdJlQjHxz6_B-gr1qmA-137" target="LMdJlQjHxz6_B-gr1qmA-33" edge="1">
          <mxGeometry relative="1" as="geometry" />
        </mxCell>
        <mxCell id="LMdJlQjHxz6_B-gr1qmA-135" style="edgeStyle=orthogonalEdgeStyle;rounded=0;orthogonalLoop=1;jettySize=auto;html=1;exitX=0;exitY=0;exitDx=0;exitDy=0;entryX=1;entryY=0.5;entryDx=0;entryDy=0;" parent="LMdJlQjHxz6_B-gr1qmA-1" source="LMdJlQjHxz6_B-gr1qmA-137" target="LMdJlQjHxz6_B-gr1qmA-35" edge="1">
          <mxGeometry relative="1" as="geometry" />
        </mxCell>
        <mxCell id="LMdJlQjHxz6_B-gr1qmA-136" style="edgeStyle=orthogonalEdgeStyle;rounded=0;orthogonalLoop=1;jettySize=auto;html=1;exitX=0;exitY=0.5;exitDx=0;exitDy=0;entryX=1;entryY=1;entryDx=0;entryDy=0;" parent="LMdJlQjHxz6_B-gr1qmA-1" source="LMdJlQjHxz6_B-gr1qmA-137" target="LMdJlQjHxz6_B-gr1qmA-133" edge="1">
          <mxGeometry relative="1" as="geometry" />
        </mxCell>
        <mxCell id="LMdJlQjHxz6_B-gr1qmA-137" value="RideUW&lt;br&gt;核保结论" style="ellipse;whiteSpace=wrap;html=1;aspect=fixed;" parent="LMdJlQjHxz6_B-gr1qmA-1" vertex="1">
          <mxGeometry x="1230" y="780" width="80" height="80" as="geometry" />
        </mxCell>
      </root>
    </mxGraphModel>
  </diagram>
</mxfile>
